<svg xmlns="http://www.w3.org/2000/svg" xmlns:xlink="http://www.w3.org/1999/xlink" width="200" zoomAndPan="magnify" viewBox="0 0 150 37.5" height="50" preserveAspectRatio="xMidYMid meet" version="1.0"><defs><g/><clipPath id="4dca329059"><path d="M 0.988281 0 L 149.011719 0 L 149.011719 37.007812 L 0.988281 37.007812 Z M 0.988281 0 " clip-rule="nonzero"/></clipPath><clipPath id="bc68add590"><path d="M 7.816406 0 L 142.171875 0 L 142.171875 37.003906 L 7.816406 37.003906 Z M 7.816406 0 " clip-rule="nonzero"/></clipPath><clipPath id="7e2439c6b4"><path d="M 11.445312 3.476562 L 108.339844 3.476562 L 108.339844 33.527344 L 11.445312 33.527344 Z M 11.445312 3.476562 " clip-rule="nonzero"/></clipPath><clipPath id="b8e11abb35"><path d="M 0.445312 0.476562 L 97.339844 0.476562 L 97.339844 30.527344 L 0.445312 30.527344 Z M 0.445312 0.476562 " clip-rule="nonzero"/></clipPath><clipPath id="636d1a0b61"><rect x="0" width="98" y="0" height="31"/></clipPath><clipPath id="32d2fcd4bb"><rect x="0" width="150" y="0" height="38"/></clipPath></defs><g clip-path="url(#4dca329059)"><g transform="matrix(1, 0, 0, 1, 0.000000000000000222, -0.000000000000001478)"><g clip-path="url(#32d2fcd4bb)"><g clip-path="url(#bc68add590)"><path stroke-linecap="butt" transform="matrix(0.278749, 0, 0, 0.278749, 7.817593, 0.000000986842)" fill="none" stroke-linejoin="miter" d="M -0.0042562 -0.00000354025 L 482.01746 -0.00000354025 L 482.01746 132.749705 L -0.0042562 132.749705 Z M -0.0042562 -0.00000354025 " stroke="#000000" stroke-width="15.931114" stroke-opacity="1" stroke-miterlimit="4"/></g><g clip-path="url(#7e2439c6b4)"><g transform="matrix(1, 0, 0, 1, 11, 3)"><g clip-path="url(#636d1a0b61)"><g clip-path="url(#b8e11abb35)"><path fill="#000000" d="M 0.445312 0.476562 L 97.289062 0.476562 L 97.289062 30.527344 L 0.445312 30.527344 Z M 0.445312 0.476562 " fill-opacity="1" fill-rule="nonzero"/></g></g></g></g><g fill="#ffffff" fill-opacity="1"><g transform="translate(15.894959, 25.371243)"><g><path d="M 2.792969 -14.050781 C 2.792969 -13.949219 2.84375 -13.949219 2.910156 -13.949219 C 2.945312 -14.050781 2.875 -14.050781 2.792969 -14.050781 Z M 2.945312 -12.695312 C 2.875 -12.628906 2.875 -12.460938 2.976562 -12.425781 C 2.976562 -12.527344 3.078125 -12.660156 2.945312 -12.695312 Z M 9.75 -11.523438 C 9.015625 -11.589844 7.976562 -11.65625 7.226562 -11.589844 C 6.808594 -11.722656 6.371094 -11.757812 5.886719 -11.65625 C 5.738281 -11.792969 5.351562 -11.792969 5.101562 -11.691406 C 4.132812 -11.808594 2.960938 -11.839844 1.941406 -11.792969 C 1.65625 -11.941406 1.121094 -11.808594 0.835938 -11.839844 C 0.804688 -11.839844 0.804688 -11.808594 0.804688 -11.792969 C 0.804688 -10.871094 1.003906 -9.601562 0.9375 -8.714844 C 0.902344 -8.128906 1.222656 -7.578125 1.1875 -7.023438 C 1.1875 -6.605469 1.019531 -6.171875 1.019531 -5.785156 C 1.019531 -5.71875 1.085938 -5.71875 1.085938 -5.6875 C 1.085938 -5.652344 1.003906 -5.601562 1.003906 -5.570312 C 0.96875 -5.335938 1.019531 -5.085938 1.019531 -4.867188 C 1.019531 -4.046875 1.003906 -3.261719 0.96875 -2.726562 C 0.96875 -2.191406 0.96875 -1.738281 0.96875 -1.203125 C 0.96875 -0.667969 0.9375 -0.0664062 1.085938 -0.0351562 C 0.804688 0.183594 2.476562 0.152344 2.609375 0.152344 C 5.320312 0.285156 7.910156 0.367188 10.21875 0.535156 C 10.21875 0.25 10.183594 0 10.085938 -0.234375 C 10.085938 -0.484375 10.117188 -0.851562 9.933594 -1.054688 C 10.035156 -1.839844 9.648438 -2.757812 9.71875 -3.578125 C 9.902344 -3.578125 9.96875 -3.664062 10.035156 -3.730469 C 9.902344 -4.179688 10.117188 -4.902344 9.867188 -5.152344 C 9.933594 -5.152344 10 -5.152344 9.96875 -5.21875 C 9.933594 -5.570312 9.96875 -5.820312 9.96875 -6.039062 C 9.96875 -6.605469 9.933594 -7.273438 9.902344 -7.859375 C 9.902344 -8.027344 9.867188 -8.414062 9.800781 -8.378906 C 9.902344 -9.316406 9.75 -10.335938 9.75 -11.523438 Z M 7.308594 -8.996094 C 7.308594 -8.980469 7.273438 -8.980469 7.273438 -8.996094 C 7.242188 -8.949219 7.410156 -8.78125 7.507812 -8.746094 C 7.761719 -8.246094 7.945312 -7.960938 7.945312 -7.292969 C 7.476562 -7.242188 7.160156 -7.359375 6.625 -7.324219 C 6.421875 -7.996094 6.085938 -8.429688 5.386719 -8.628906 C 5.386719 -8.460938 5.234375 -8.628906 5.101562 -8.664062 C 5.132812 -8.53125 4.96875 -8.664062 4.917969 -8.664062 C 4.949219 -8.664062 4.667969 -8.496094 4.597656 -8.496094 C 4.53125 -8.496094 4.382812 -8.5625 4.28125 -8.460938 C 4.179688 -8.378906 3.964844 -8.246094 3.847656 -8.09375 C 3.8125 -8.027344 3.863281 -7.925781 3.714844 -7.925781 C 3.714844 -7.84375 3.8125 -7.859375 3.78125 -7.742188 C 3.746094 -7.8125 3.714844 -7.710938 3.679688 -7.777344 C 3.496094 -7.425781 3.277344 -7.023438 3.363281 -6.507812 C 3.328125 -6.539062 3.328125 -6.507812 3.277344 -6.507812 C 3.292969 -6.039062 3.292969 -5.4375 3.527344 -4.933594 C 3.613281 -4.714844 3.898438 -4.296875 4.097656 -4.199219 C 4.148438 -4.179688 4.214844 -4.230469 4.25 -4.199219 C 4.316406 -4.179688 4.25 -4.082031 4.414062 -4.148438 C 4.433594 -4.113281 4.433594 -4.082031 4.433594 -4.046875 C 4.714844 -4.082031 5.066406 -3.863281 5.320312 -4.046875 C 5.484375 -3.980469 5.820312 -4.113281 5.804688 -4.230469 C 6.203125 -4.398438 6.421875 -5.035156 6.554688 -5.46875 C 6.941406 -5.335938 7.375 -5.4375 7.878906 -5.335938 C 7.878906 -5.085938 7.8125 -4.765625 7.660156 -4.550781 C 7.660156 -4.480469 7.761719 -4.515625 7.726562 -4.433594 C 7.625 -4.398438 7.507812 -4.179688 7.527344 -4.113281 C 7.476562 -4.046875 7.34375 -4.046875 7.410156 -3.914062 C 7.34375 -3.914062 7.34375 -3.898438 7.273438 -3.898438 C 7.242188 -3.480469 6.554688 -3.226562 6.421875 -3.042969 C 6.339844 -3.011719 6.371094 -3.078125 6.273438 -3.078125 C 6.171875 -3.042969 6.238281 -3.011719 6.238281 -2.945312 C 6.105469 -2.945312 5.886719 -2.910156 5.855469 -2.808594 C 5.703125 -2.910156 5.570312 -2.625 5.453125 -2.808594 C 5.035156 -2.625 4.699219 -2.808594 4.179688 -2.808594 C 4.179688 -2.84375 4.179688 -2.875 4.179688 -2.910156 C 3.964844 -2.808594 3.929688 -3.011719 3.746094 -2.945312 C 3.8125 -2.976562 3.8125 -3.078125 3.714844 -3.078125 C 3.679688 -3.078125 3.644531 -3.042969 3.644531 -3.011719 C 3.496094 -3.128906 3.328125 -3.226562 3.179688 -3.378906 C 2.992188 -3.378906 2.441406 -3.945312 2.292969 -4.230469 C 2.074219 -4.648438 2.039062 -5.117188 1.855469 -5.601562 C 1.789062 -6.574219 1.972656 -7.425781 2.324219 -8.3125 C 2.507812 -8.460938 2.675781 -8.664062 2.757812 -8.914062 C 2.960938 -8.949219 3.042969 -9.066406 3.078125 -9.230469 C 3.179688 -9.164062 3.292969 -9.265625 3.277344 -9.382812 C 3.527344 -9.417969 3.8125 -9.601562 3.996094 -9.734375 C 4.148438 -9.667969 4.316406 -9.765625 4.433594 -9.835938 C 4.75 -9.851562 5.101562 -9.800781 5.320312 -9.917969 C 5.886719 -9.734375 6.390625 -9.601562 6.90625 -9.347656 C 6.992188 -9.164062 7.125 -9.066406 7.308594 -8.996094 Z M 6.320312 -13.949219 C 6.421875 -13.914062 6.507812 -13.765625 6.574219 -13.914062 C 6.472656 -13.882812 6.289062 -14.050781 6.320312 -13.949219 Z M 6.320312 -13.949219 "/></g></g></g><g fill="#ffffff" fill-opacity="1"><g transform="translate(28.054, 25.371243)"><g><path d="M 10.503906 -14.632812 C 10.554688 -14 10.554688 -13.3125 10.703125 -12.863281 C 10.703125 -13.515625 10.703125 -14.199219 10.503906 -14.632812 Z M 5.101562 -11.238281 C 4.0625 -11.140625 3.128906 -10.855469 2.476562 -10.402344 C 1.503906 -9.667969 0.71875 -8.480469 0.617188 -6.855469 C 0.46875 -4.832031 1.203125 -2.425781 2.875 -1.4375 C 4.648438 -0.367188 7.460938 -0.652344 8.882812 -2.222656 C 9.566406 -3.027344 10.019531 -4.148438 10.070312 -5.386719 C 10.269531 -8.882812 8.445312 -11.539062 5.101562 -11.238281 Z M 2.292969 -9.617188 C 2.925781 -10.300781 4.015625 -10.753906 5.132812 -10.804688 C 8.246094 -10.988281 9.816406 -8.480469 9.515625 -5.085938 C 9.382812 -3.714844 8.679688 -2.476562 7.761719 -1.890625 C 6.421875 -1.003906 4.113281 -0.953125 2.777344 -2.039062 C 1.003906 -3.460938 0.519531 -7.695312 2.292969 -9.617188 Z M 10.703125 -11.289062 C 10.605469 -11.1875 10.320312 -11.289062 10.167969 -11.238281 C 10.167969 -11.089844 10.167969 -10.988281 10.167969 -10.855469 C 10.402344 -10.855469 10.605469 -10.855469 10.804688 -10.90625 C 10.804688 -11.039062 10.753906 -11.1875 10.703125 -11.289062 Z M 11.207031 -1.152344 C 11.15625 -1.339844 11.289062 -1.789062 11.105469 -1.839844 C 11.003906 -1.738281 10.855469 -1.738281 10.652344 -1.738281 C 10.652344 -1.589844 10.605469 -1.386719 10.703125 -1.339844 C 10.953125 -1.4375 11.207031 -1.386719 11.207031 -1.152344 Z M 1.085938 -12.695312 C 1.085938 -12.492188 0.988281 -12.191406 1.171875 -12.191406 C 1.121094 -12.34375 1.121094 -12.746094 1.085938 -12.695312 Z M 1.121094 -12.160156 C 1.085938 -11.90625 1.121094 -11.40625 1.171875 -11.121094 C 1.171875 -11.355469 1.222656 -11.859375 1.121094 -12.160156 Z M 1.121094 -12.160156 "/></g></g></g><g fill="#ffffff" fill-opacity="1"><g transform="translate(40.614436, 25.371243)"><g><path d="M 10.4375 -2.257812 C 10.4375 -2.140625 10.386719 -1.722656 10.46875 -1.804688 C 10.46875 -1.921875 10.503906 -2.339844 10.4375 -2.257812 Z M 10.351562 -0.167969 C 10.300781 0.0507812 10.4375 0.453125 10.300781 0.652344 C 10.4375 0.535156 10.4375 -0.0351562 10.351562 -0.167969 Z M 10.300781 0.785156 C 10.300781 1.40625 10.269531 2.089844 10.21875 2.875 C 10.183594 2.992188 10.269531 3.246094 10.269531 2.992188 C 10.269531 2.875 10.269531 2.710938 10.269531 2.59375 C 10.300781 1.972656 10.386719 1.4375 10.300781 0.785156 Z M 10.183594 3.246094 C 10.136719 3.496094 10.21875 3.578125 10.21875 3.527344 C 10.269531 3.496094 10.21875 3.042969 10.183594 3.246094 Z M 0.703125 -2.625 C 0.769531 -2.339844 0.453125 -2.058594 0.453125 -1.722656 C 0.851562 -1.6875 1.4375 -1.554688 2.007812 -1.757812 C 2.125 -2.089844 2.207031 -2.59375 2.507812 -2.828125 C 2.875 -3.980469 3.277344 -5 3.945312 -6.238281 C 4.179688 -4.800781 4.433594 -3.042969 4.597656 -1.4375 C 4.882812 -1.4375 4.917969 -1.386719 5.21875 -1.4375 C 6.15625 -3.078125 7.058594 -4.683594 8.011719 -6.15625 C 8.042969 -4.230469 7.84375 -3.195312 8.011719 -1.386719 C 8.414062 -1.472656 8.949219 -1.386719 9.484375 -1.386719 C 9.535156 -4.0625 9.484375 -7.273438 9.566406 -10.21875 C 9.148438 -10.300781 8.949219 -10.300781 8.628906 -10.269531 C 8.496094 -10.070312 8.378906 -9.734375 8.246094 -9.683594 C 7.960938 -8.914062 7.425781 -8.09375 6.972656 -7.425781 C 6.855469 -7.023438 6.523438 -6.40625 6.289062 -6.15625 C 6.203125 -5.753906 5.835938 -5.300781 5.585938 -4.933594 C 5.503906 -5.535156 5.367188 -5.988281 5.453125 -6.4375 C 5.167969 -7.644531 5.050781 -9.113281 4.917969 -10.386719 C 4.597656 -10.4375 4.179688 -10.46875 3.980469 -10.4375 C 2.792969 -7.59375 1.890625 -5.25 0.734375 -2.625 C 0.734375 -2.660156 0.703125 -2.660156 0.703125 -2.625 Z M 0.703125 -2.625 "/></g></g></g><g fill="#ffffff" fill-opacity="1"><g transform="translate(52.271727, 25.371243)"><g><path d="M 10.4375 -2.257812 C 10.4375 -2.140625 10.386719 -1.722656 10.46875 -1.804688 C 10.46875 -1.921875 10.503906 -2.339844 10.4375 -2.257812 Z M 10.351562 -0.167969 C 10.300781 0.0507812 10.4375 0.453125 10.300781 0.652344 C 10.4375 0.535156 10.4375 -0.0351562 10.351562 -0.167969 Z M 10.300781 0.785156 C 10.300781 1.40625 10.269531 2.089844 10.21875 2.875 C 10.183594 2.992188 10.269531 3.246094 10.269531 2.992188 C 10.269531 2.875 10.269531 2.710938 10.269531 2.59375 C 10.300781 1.972656 10.386719 1.4375 10.300781 0.785156 Z M 10.183594 3.246094 C 10.136719 3.496094 10.21875 3.578125 10.21875 3.527344 C 10.269531 3.496094 10.21875 3.042969 10.183594 3.246094 Z M 0.703125 -2.625 C 0.769531 -2.339844 0.453125 -2.058594 0.453125 -1.722656 C 0.851562 -1.6875 1.4375 -1.554688 2.007812 -1.757812 C 2.125 -2.089844 2.207031 -2.59375 2.507812 -2.828125 C 2.875 -3.980469 3.277344 -5 3.945312 -6.238281 C 4.179688 -4.800781 4.433594 -3.042969 4.597656 -1.4375 C 4.882812 -1.4375 4.917969 -1.386719 5.21875 -1.4375 C 6.15625 -3.078125 7.058594 -4.683594 8.011719 -6.15625 C 8.042969 -4.230469 7.84375 -3.195312 8.011719 -1.386719 C 8.414062 -1.472656 8.949219 -1.386719 9.484375 -1.386719 C 9.535156 -4.0625 9.484375 -7.273438 9.566406 -10.21875 C 9.148438 -10.300781 8.949219 -10.300781 8.628906 -10.269531 C 8.496094 -10.070312 8.378906 -9.734375 8.246094 -9.683594 C 7.960938 -8.914062 7.425781 -8.09375 6.972656 -7.425781 C 6.855469 -7.023438 6.523438 -6.40625 6.289062 -6.15625 C 6.203125 -5.753906 5.835938 -5.300781 5.585938 -4.933594 C 5.503906 -5.535156 5.367188 -5.988281 5.453125 -6.4375 C 5.167969 -7.644531 5.050781 -9.113281 4.917969 -10.386719 C 4.597656 -10.4375 4.179688 -10.46875 3.980469 -10.4375 C 2.792969 -7.59375 1.890625 -5.25 0.734375 -2.625 C 0.734375 -2.660156 0.703125 -2.660156 0.703125 -2.625 Z M 0.703125 -2.625 "/></g></g></g><g fill="#ffffff" fill-opacity="1"><g transform="translate(63.929018, 25.371243)"><g><path d="M 5.21875 -5.183594 C 5.285156 -5.988281 4.683594 -6.839844 3.828125 -6.707031 C 2.84375 -6.691406 2.492188 -6.019531 2.390625 -5.101562 C 3.160156 -5.117188 4.464844 -5.152344 5.21875 -5.183594 Z M 5.785156 -15.453125 C 5.855469 -15.320312 5.753906 -14.851562 5.886719 -14.851562 C 5.855469 -14.953125 5.921875 -15.035156 5.855469 -15.167969 C 5.855469 -15.285156 5.953125 -15.421875 5.785156 -15.453125 Z M 5.855469 -14.601562 C 5.855469 -13.898438 5.953125 -13.328125 5.953125 -12.628906 C 4.230469 -12.59375 2.808594 -12.492188 1.1875 -12.492188 C 0.835938 -8.996094 1.019531 -5 0.769531 -1.121094 C 2.390625 -1.121094 3.980469 -1.121094 5.570312 -1.121094 C 6.105469 -1.121094 6.625 -1.054688 7.125 -1.222656 C 6.625 -5.601562 6.273438 -10.117188 5.855469 -14.601562 Z M 6.105469 -4.480469 C 4.75 -4.480469 3.5625 -4.398438 2.390625 -4.433594 C 2.425781 -3.914062 2.527344 -3.378906 2.925781 -2.992188 C 3.628906 -2.359375 4.832031 -2.574219 5.785156 -2.875 C 5.855469 -2.640625 5.886719 -2.359375 5.988281 -2.242188 C 5.753906 -2.105469 5.753906 -2.105469 5.503906 -2.074219 C 4.363281 -1.605469 2.742188 -1.722656 1.972656 -2.710938 C 1.253906 -3.597656 1.253906 -5.285156 1.855469 -6.304688 C 2.574219 -7.542969 4.582031 -7.859375 5.535156 -6.839844 C 6.019531 -6.339844 6.136719 -5.601562 6.136719 -5 C 6.136719 -4.96875 6.304688 -4.648438 6.105469 -4.480469 Z M 6.105469 -4.480469 "/></g></g></g><g fill="#ffffff" fill-opacity="1"><g transform="translate(72.876868, 25.371243)"><g><path d="M 9.097656 -12.84375 C 9.148438 -11.757812 9.066406 -10.820312 9.214844 -9.835938 C 9.183594 -10.886719 9.332031 -12.292969 9.097656 -12.84375 Z M 0.734375 -10.621094 C 0.96875 -10.769531 1.152344 -10.972656 1.320312 -11.238281 C 1.085938 -11.089844 0.886719 -10.886719 0.734375 -10.621094 Z M 0.804688 -10.417969 C 0.96875 -10.703125 1.503906 -10.972656 1.4375 -11.238281 C 1.269531 -10.9375 0.804688 -10.738281 0.804688 -10.417969 Z M 6.171875 -10.972656 C 6.121094 -11.089844 6.238281 -11.054688 6.238281 -11.121094 C 6.171875 -11.121094 6.085938 -11.089844 6.054688 -11.003906 C 6.085938 -11.003906 6.085938 -10.972656 6.171875 -10.972656 Z M 9.148438 -9.398438 C 9.183594 -9.398438 9.148438 -9.214844 9.214844 -9.132812 C 9.214844 -9.214844 9.265625 -9.566406 9.148438 -9.398438 Z M 7.578125 -9.25 C 7.578125 -9.097656 7.375 -9.132812 7.375 -8.929688 C 7.492188 -8.929688 7.726562 -9.214844 7.578125 -9.25 Z M -0.167969 -1.855469 C -0.25 -1.6875 -0.402344 -1.65625 -0.453125 -1.453125 C -0.335938 -1.503906 -0.015625 -1.773438 -0.167969 -1.855469 Z M -0.167969 -1.65625 C -0.167969 -1.539062 -0.25 -1.453125 -0.367188 -1.453125 C -0.335938 -1.304688 -0.484375 -1.339844 -0.453125 -1.222656 C -0.335938 -1.222656 -0.335938 -1.421875 -0.167969 -1.421875 C -0.21875 -1.222656 -0.402344 -1.222656 -0.453125 -1.035156 C -0.167969 -1.152344 -0.015625 -1.503906 -0.167969 -1.65625 Z M 8.128906 -0.988281 C 7.925781 -0.917969 7.894531 -0.753906 7.777344 -0.636719 C 7.960938 -0.667969 8.078125 -0.785156 8.128906 -0.988281 Z M 3.078125 -10.738281 C 3.3125 -10.886719 3.460938 -11.089844 3.628906 -11.324219 C 3.34375 -11.207031 3.226562 -10.9375 2.992188 -10.769531 C 3.042969 -11.003906 3.429688 -11.089844 3.34375 -11.324219 C 3.109375 -11.089844 2.925781 -10.855469 2.691406 -10.652344 C 2.726562 -10.972656 3.195312 -11.054688 3.160156 -11.324219 C 2.84375 -11.054688 2.558594 -10.738281 2.292969 -10.453125 C 2.410156 -10.820312 2.875 -11.003906 2.960938 -11.324219 C 2.726562 -11.207031 2.558594 -10.820312 2.375 -10.820312 C 2.527344 -10.972656 2.640625 -11.089844 2.757812 -11.289062 C 2.527344 -11.238281 2.527344 -11.054688 2.375 -10.972656 C 2.375 -11.121094 2.527344 -11.089844 2.527344 -11.289062 C 2.324219 -11.171875 2.257812 -10.972656 2.058594 -10.855469 C 2.089844 -11.054688 2.292969 -11.089844 2.375 -11.289062 C 2.207031 -11.289062 2.207031 -11.089844 2.058594 -11.089844 C 2.058594 -11.207031 2.175781 -11.171875 2.175781 -11.289062 C 1.671875 -10.855469 1.085938 -10.300781 0.804688 -9.800781 C 1.203125 -10.183594 1.589844 -10.652344 2.023438 -11.054688 C 1.671875 -10.503906 1.121094 -10.152344 0.769531 -9.601562 C 1.035156 -9.683594 1.121094 -9.953125 1.320312 -10.101562 C 1.203125 -9.75 0.886719 -9.683594 0.769531 -9.367188 C 1.035156 -9.449219 1.085938 -9.800781 1.355469 -9.867188 C 1.203125 -9.601562 0.886719 -9.484375 0.769531 -9.164062 C 1.121094 -9.367188 1.320312 -9.75 1.621094 -9.984375 C 1.4375 -9.601562 0.886719 -9.367188 0.851562 -8.980469 C 1.238281 -9.332031 1.554688 -9.800781 1.972656 -10.101562 C 1.671875 -9.601562 1.003906 -9.25 0.851562 -8.746094 C 1.003906 -8.929688 1.152344 -9.132812 1.355469 -9.25 C 1.238281 -8.980469 0.804688 -8.8125 0.851562 -8.546875 C 1.085938 -8.78125 1.320312 -9.046875 1.554688 -9.28125 C 1.355469 -8.898438 0.96875 -8.746094 0.804688 -8.347656 C 1.035156 -8.460938 1.152344 -8.695312 1.355469 -8.863281 C 1.238281 -8.496094 0.851562 -8.378906 0.804688 -8.113281 C 0.96875 -8.144531 1.003906 -8.347656 1.152344 -8.429688 C 1.085938 -8.195312 0.851562 -8.144531 0.804688 -7.910156 C 0.96875 -7.84375 0.804688 -8.078125 0.96875 -8.027344 C 0.96875 -7.878906 0.804688 -7.878906 0.804688 -7.726562 C 0.96875 -7.726562 0.917969 -7.878906 1.085938 -7.910156 C 1.035156 -7.761719 0.769531 -7.675781 0.886719 -7.527344 C 1.035156 -7.644531 1.121094 -7.84375 1.269531 -7.960938 C 1.238281 -7.644531 0.804688 -7.558594 0.886719 -7.292969 C 0.96875 -7.410156 1.085938 -7.609375 1.203125 -7.558594 C 1.085938 -7.410156 0.886719 -7.324219 0.851562 -7.089844 C 1.003906 -7.175781 1.035156 -7.324219 1.203125 -7.410156 C 1.152344 -7.175781 0.886719 -7.140625 0.851562 -6.90625 C 1.085938 -6.941406 1.085938 -7.207031 1.320312 -7.292969 C 1.203125 -7.058594 0.917969 -6.941406 0.851562 -6.707031 C 1.085938 -6.789062 1.121094 -7.023438 1.320312 -7.089844 C 1.121094 -6.789062 0.851562 -6.625 0.851562 -6.273438 C 1.035156 -6.304688 1.152344 -6.65625 1.320312 -6.625 C 1.121094 -6.390625 0.769531 -6.15625 0.917969 -5.835938 C 1.238281 -6.238281 1.589844 -6.539062 1.941406 -6.90625 C 1.621094 -6.421875 1.121094 -6.15625 0.886719 -5.652344 C 1.152344 -5.769531 1.320312 -6.1875 1.554688 -6.238281 C 1.320312 -5.953125 1.035156 -5.769531 0.886719 -5.453125 C 1.238281 -5.652344 1.386719 -6.039062 1.738281 -6.273438 C 1.503906 -5.804688 0.769531 -5.535156 0.96875 -5.015625 C 1.035156 -5.183594 1.238281 -5.25 1.269531 -5.453125 C 1.121094 -5.484375 1.203125 -5.300781 1.085938 -5.335938 C 1.238281 -5.535156 1.4375 -5.886719 1.671875 -5.921875 C 1.554688 -5.769531 1.355469 -5.652344 1.269531 -5.453125 C 1.589844 -5.652344 1.789062 -5.953125 2.058594 -6.1875 C 1.789062 -5.6875 1.121094 -5.335938 0.96875 -4.832031 C 1.386719 -5.300781 1.824219 -5.769531 2.257812 -6.1875 C 1.90625 -5.570312 1.152344 -5.183594 0.96875 -4.582031 C 1.152344 -4.832031 1.320312 -5.066406 1.589844 -5.21875 C 1.386719 -4.902344 1.085938 -4.75 0.917969 -4.398438 C 1.085938 -4.464844 1.121094 -4.632812 1.269531 -4.699219 C 1.238281 -4.464844 0.96875 -4.433594 0.917969 -4.199219 C 1.203125 -4.230469 1.269531 -4.699219 1.503906 -4.667969 C 1.269531 -4.464844 1.152344 -4.230469 0.917969 -4.082031 C 1.003906 -3.929688 0.96875 -3.847656 1.003906 -3.644531 C 0.96875 -3.644531 0.917969 -3.644531 0.917969 -3.578125 C 1.238281 -3.730469 1.472656 -4.164062 1.707031 -4.28125 C 1.503906 -3.929688 1.003906 -3.730469 1.003906 -3.34375 C 1.035156 -3.460938 1.238281 -3.644531 1.320312 -3.613281 C 1.238281 -3.460938 0.886719 -3.34375 1.003906 -3.144531 C 1.035156 -3.226562 1.085938 -3.34375 1.238281 -3.34375 C 1.152344 -3.179688 1.003906 -3.144531 0.96875 -2.945312 C 1.320312 -3.179688 1.589844 -3.730469 1.941406 -3.847656 C 1.589844 -3.496094 1.238281 -3.179688 0.96875 -2.742188 C 1.035156 -2.710938 1.085938 -2.910156 1.152344 -2.792969 C 1.003906 -2.792969 0.917969 -2.390625 1.121094 -2.59375 C 1.085938 -2.507812 1.003906 -2.441406 0.96875 -2.359375 C 1.035156 -2.242188 1.035156 -2.390625 1.152344 -2.390625 C 1.121094 -2.324219 0.917969 -2.207031 1.035156 -2.125 C 1.320312 -2.359375 1.589844 -2.828125 1.855469 -2.910156 C 1.589844 -2.59375 1.238281 -2.390625 1.085938 -2.007812 C 1.355469 -2.15625 1.472656 -2.476562 1.738281 -2.625 C 1.554688 -2.324219 1.320312 -2.125 1.085938 -1.890625 C 1.085938 -1.921875 1.085938 -2.007812 1.003906 -2.007812 C 1.085938 -1.804688 1.035156 -1.855469 1.003906 -1.6875 C 1.121094 -1.621094 1.085938 -1.890625 1.152344 -1.773438 C 1.152344 -1.65625 1.003906 -1.65625 1.003906 -1.503906 C 1.085938 -1.453125 1.121094 -1.65625 1.203125 -1.539062 C 1.121094 -1.539062 1.003906 -1.339844 1.085938 -1.304688 C 1.4375 -1.6875 1.789062 -2.089844 2.175781 -2.441406 C 1.855469 -1.855469 1.085938 -1.570312 1.035156 -0.871094 C 1.121094 -0.835938 1.121094 -1.035156 1.203125 -0.917969 C 1.121094 -0.835938 1.035156 -0.785156 1.035156 -0.667969 C 1.386719 -0.871094 1.554688 -1.269531 1.90625 -1.503906 C 1.707031 -1.105469 1.121094 -0.871094 1.085938 -0.433594 C 1.121094 -0.519531 1.152344 -0.636719 1.320312 -0.636719 C 1.238281 -0.550781 1.203125 -0.484375 1.121094 -0.402344 C 1.386719 -0.433594 1.472656 -0.871094 1.707031 -0.835938 C 1.554688 -0.71875 1.472656 -0.519531 1.320312 -0.402344 C 1.472656 -0.367188 1.472656 -0.519531 1.589844 -0.550781 C 1.589844 -0.519531 1.621094 -0.519531 1.621094 -0.484375 C 1.589844 -0.484375 1.503906 -0.484375 1.503906 -0.433594 C 1.789062 -0.316406 1.90625 -0.917969 2.140625 -0.835938 C 1.972656 -0.71875 1.738281 -0.519531 1.789062 -0.402344 C 1.90625 -0.519531 2.140625 -0.402344 2.207031 -0.601562 C 2.257812 -0.484375 2.140625 -0.519531 2.140625 -0.433594 C 2.324219 -0.433594 2.375 -0.636719 2.527344 -0.71875 C 2.527344 -0.550781 2.410156 -0.550781 2.375 -0.433594 C 2.527344 -0.433594 2.640625 -0.71875 2.726562 -0.667969 C 2.691406 -0.601562 2.609375 -0.519531 2.558594 -0.433594 C 2.726562 -0.433594 2.726562 -0.601562 2.84375 -0.601562 C 2.875 -0.484375 2.726562 -0.550781 2.757812 -0.433594 C 2.960938 -0.433594 3.042969 -0.753906 3.195312 -0.667969 C 3.109375 -0.601562 3.078125 -0.550781 2.992188 -0.484375 C 3.078125 -0.519531 3.195312 -0.484375 3.226562 -0.519531 C 3.160156 -0.667969 3.277344 -0.953125 3.195312 -1.152344 C 3.195312 -1.035156 3.042969 -0.871094 2.960938 -0.988281 C 3.078125 -1.070312 3.195312 -1.1875 3.226562 -1.339844 C 3.109375 -1.386719 3.160156 -1.152344 3.078125 -1.304688 C 3.226562 -1.386719 3.195312 -1.65625 3.160156 -1.773438 C 3.195312 -1.6875 3.078125 -1.570312 3.078125 -1.6875 C 3.195312 -1.804688 3.195312 -2.039062 3.160156 -2.15625 C 3.078125 -2.125 3.078125 -1.972656 2.960938 -1.972656 C 2.992188 -2.039062 2.992188 -2.15625 3.160156 -2.15625 C 3.109375 -2.273438 3.195312 -2.242188 3.195312 -2.359375 C 3.042969 -2.359375 2.960938 -2.039062 2.84375 -2.125 C 2.960938 -2.273438 3.160156 -2.324219 3.195312 -2.558594 C 3.078125 -2.59375 3.078125 -2.390625 3.042969 -2.507812 C 3.109375 -2.59375 3.160156 -2.675781 3.195312 -2.792969 C 3.078125 -2.828125 3.109375 -2.59375 3.042969 -2.742188 C 3.078125 -2.792969 3.195312 -2.945312 3.109375 -2.992188 C 3.042969 -2.910156 2.925781 -2.625 2.808594 -2.742188 C 3.042969 -2.910156 3.195312 -3.109375 3.160156 -3.410156 C 3.042969 -3.460938 3.109375 -3.292969 2.992188 -3.34375 C 3.042969 -3.410156 3.160156 -3.460938 3.160156 -3.613281 C 2.960938 -3.527344 2.875 -3.292969 2.691406 -3.226562 C 2.757812 -3.460938 3.078125 -3.496094 3.160156 -3.8125 C 3.042969 -3.847656 3.078125 -3.613281 2.992188 -3.761719 C 3.277344 -3.929688 2.960938 -4.199219 3.160156 -4.433594 C 2.992188 -4.433594 2.992188 -4.28125 2.875 -4.28125 C 2.925781 -4.398438 3.042969 -4.433594 3.109375 -4.550781 C 2.960938 -5.21875 3.746094 -5.453125 4.015625 -5.953125 C 3.980469 -5.652344 3.511719 -5.417969 3.34375 -5.101562 C 3.511719 -5.132812 3.460938 -5.21875 3.628906 -5.101562 C 3.695312 -5.183594 3.746094 -5.25 3.863281 -5.300781 C 3.863281 -5.183594 3.746094 -5.21875 3.746094 -5.101562 C 3.929688 -5.066406 3.898438 -5.300781 4.046875 -5.300781 C 4.046875 -5.21875 3.929688 -5.21875 3.980469 -5.101562 C 4.164062 -5.101562 4.214844 -5.453125 4.363281 -5.367188 C 4.332031 -5.25 4.164062 -5.25 4.164062 -5.101562 C 4.28125 -5.066406 4.25 -5.21875 4.398438 -5.21875 C 4.398438 -5.132812 4.332031 -5.132812 4.332031 -5.101562 C 4.566406 -5.132812 4.648438 -5.101562 4.832031 -5.066406 C 5.066406 -5.300781 5.351562 -5.71875 5.621094 -5.835938 C 5.351562 -5.570312 5.117188 -5.335938 4.882812 -5.015625 C 5.117188 -5.015625 5.117188 -5.300781 5.300781 -5.335938 C 5.269531 -5.183594 5.066406 -5.132812 5.035156 -4.984375 C 5.035156 -4.902344 5.183594 -4.949219 5.152344 -4.832031 C 5.300781 -4.785156 5.234375 -4.984375 5.351562 -4.949219 C 5.351562 -4.867188 5.183594 -4.832031 5.269531 -4.75 C 5.351562 -4.699219 5.351562 -4.902344 5.417969 -4.785156 C 5.417969 -4.699219 5.300781 -4.75 5.351562 -4.667969 C 5.503906 -4.632812 5.417969 -4.550781 5.46875 -4.464844 C 5.535156 -4.464844 5.585938 -4.699219 5.652344 -4.582031 C 5.585938 -4.515625 5.386719 -4.398438 5.535156 -4.316406 C 5.535156 -4.347656 5.621094 -4.515625 5.652344 -4.398438 C 5.621094 -4.347656 5.46875 -4.230469 5.585938 -4.164062 C 5.703125 -4.230469 5.738281 -4.398438 5.855469 -4.433594 C 5.855469 -4.230469 5.46875 -4.113281 5.652344 -3.996094 C 5.738281 -4.113281 5.820312 -4.28125 5.972656 -4.316406 C 5.621094 -4.046875 5.621094 -3.761719 5.621094 -3.410156 C 5.855469 -3.527344 5.9375 -3.847656 6.203125 -3.929688 C 6.003906 -3.695312 5.769531 -3.496094 5.621094 -3.226562 C 5.886719 -3.292969 6.003906 -3.761719 6.289062 -3.761719 C 6.054688 -3.496094 5.535156 -3.226562 5.703125 -2.792969 C 5.703125 -2.828125 5.738281 -2.875 5.820312 -2.875 C 5.652344 -2.710938 5.652344 -2.558594 5.738281 -2.390625 C 5.738281 -2.476562 5.820312 -2.507812 5.886719 -2.558594 C 5.769531 -2.390625 5.652344 -2.15625 5.738281 -2.007812 C 5.855469 -2.039062 5.855469 -2.207031 6.003906 -2.242188 C 5.972656 -2.089844 5.652344 -1.972656 5.769531 -1.804688 C 5.9375 -2.007812 6.085938 -2.207031 6.320312 -2.359375 C 6.203125 -2.089844 5.769531 -1.890625 5.769531 -1.621094 C 5.886719 -1.65625 5.886719 -1.804688 6.003906 -1.855469 C 5.972656 -1.65625 5.769531 -1.65625 5.769531 -1.421875 C 5.9375 -1.453125 6.003906 -1.773438 6.171875 -1.6875 C 6.003906 -1.570312 5.855469 -1.421875 5.769531 -1.222656 C 5.886719 -1.152344 5.855469 -1.421875 5.9375 -1.304688 C 5.9375 -1.222656 5.738281 -1.105469 5.855469 -1.035156 C 6.054688 -1.269531 6.320312 -1.621094 6.554688 -1.6875 C 6.320312 -1.421875 6.054688 -1.222656 5.855469 -0.917969 C 6.003906 -0.871094 5.9375 -1.070312 6.054688 -1.035156 C 6.054688 -0.871094 5.886719 -0.917969 5.886719 -0.753906 C 5.9375 -0.71875 5.972656 -0.71875 5.972656 -0.636719 C 6.289062 -0.71875 6.4375 -1.152344 6.671875 -1.1875 C 6.472656 -0.953125 6.238281 -0.785156 6.085938 -0.550781 C 6.238281 -0.550781 6.289062 -0.636719 6.355469 -0.71875 C 6.40625 -0.601562 6.289062 -0.636719 6.289062 -0.550781 C 6.472656 -0.519531 6.4375 -0.71875 6.605469 -0.71875 C 6.640625 -0.601562 6.472656 -0.667969 6.523438 -0.550781 C 6.671875 -0.636719 6.839844 -0.601562 7.023438 -0.71875 C 7.023438 -0.636719 6.90625 -0.667969 6.90625 -0.601562 C 7.140625 -0.550781 7.140625 -0.785156 7.308594 -0.871094 C 7.308594 -0.71875 7.191406 -0.71875 7.140625 -0.601562 C 7.34375 -0.636719 7.460938 -0.601562 7.609375 -0.753906 C 7.660156 -0.636719 7.492188 -0.71875 7.542969 -0.601562 C 7.777344 -0.667969 7.894531 -0.917969 8.042969 -1.070312 C 7.925781 -1.105469 8.011719 -1.152344 8.011719 -1.304688 C 7.894531 -1.269531 7.84375 -1.105469 7.777344 -1.070312 C 7.726562 -1.1875 8.160156 -1.503906 7.8125 -1.65625 C 7.84375 -1.6875 7.925781 -1.6875 7.925781 -1.804688 C 7.777344 -1.804688 7.777344 -1.621094 7.609375 -1.621094 C 7.695312 -1.738281 7.84375 -1.804688 7.894531 -2.007812 C 7.726562 -2.007812 7.726562 -1.738281 7.609375 -1.855469 C 7.726562 -1.921875 7.8125 -2.039062 7.894531 -2.207031 C 7.660156 -2.15625 7.609375 -1.890625 7.425781 -1.804688 C 7.578125 -2.089844 7.925781 -2.242188 7.84375 -2.625 C 7.695312 -2.625 7.777344 -2.441406 7.609375 -2.441406 C 7.660156 -2.59375 7.8125 -2.625 7.84375 -2.828125 C 7.695312 -2.792969 7.660156 -2.59375 7.492188 -2.558594 C 7.578125 -2.710938 7.894531 -2.828125 7.777344 -3.0625 C 7.777344 -2.992188 7.726562 -2.945312 7.660156 -2.945312 C 7.695312 -3.027344 7.894531 -3.144531 7.777344 -3.261719 C 7.609375 -3.027344 7.425781 -2.792969 7.191406 -2.625 C 7.308594 -2.945312 7.8125 -3.109375 7.777344 -3.460938 C 7.660156 -3.34375 7.492188 -3.0625 7.375 -3.109375 C 7.460938 -3.261719 7.8125 -3.410156 7.726562 -3.613281 C 7.660156 -3.613281 7.609375 -3.378906 7.578125 -3.496094 C 7.578125 -3.644531 7.777344 -3.578125 7.726562 -3.761719 C 7.578125 -3.730469 7.492188 -3.527344 7.375 -3.460938 C 7.460938 -3.644531 7.609375 -3.761719 7.777344 -3.929688 C 7.609375 -3.996094 7.695312 -4.046875 7.726562 -4.199219 C 7.578125 -4.164062 7.609375 -3.996094 7.460938 -3.996094 C 7.492188 -4.164062 7.695312 -4.164062 7.695312 -4.398438 C 7.578125 -4.316406 7.492188 -4.164062 7.375 -4.082031 C 7.375 -4.082031 7.375 -4.113281 7.34375 -4.113281 C 7.460938 -4.230469 7.695312 -4.398438 7.609375 -4.550781 C 7.492188 -4.464844 7.375 -4.199219 7.257812 -4.230469 C 7.375 -4.398438 7.578125 -4.464844 7.609375 -4.699219 C 7.492188 -4.699219 7.425781 -4.433594 7.34375 -4.550781 C 7.375 -4.632812 7.609375 -4.75 7.492188 -4.867188 C 7.460938 -4.832031 7.375 -4.667969 7.34375 -4.75 C 7.375 -4.832031 7.492188 -4.867188 7.492188 -5.015625 C 7.226562 -4.867188 7.109375 -4.550781 6.839844 -4.398438 C 6.992188 -4.667969 7.257812 -4.832031 7.425781 -5.101562 C 7.257812 -5.132812 7.375 -5.183594 7.308594 -5.300781 C 7.308594 -5.21875 7.140625 -5.101562 7.109375 -5.183594 C 7.140625 -5.25 7.257812 -5.300781 7.257812 -5.417969 C 7.140625 -5.367188 7.191406 -5.535156 7.074219 -5.484375 C 6.992188 -5.367188 6.90625 -5.25 6.789062 -5.21875 C 6.839844 -5.367188 6.992188 -5.417969 7.074219 -5.570312 C 6.957031 -5.6875 6.90625 -5.417969 6.789062 -5.417969 C 6.789062 -5.535156 6.90625 -5.570312 6.957031 -5.652344 C 6.757812 -5.71875 6.605469 -5.300781 6.472656 -5.335938 C 6.554688 -5.484375 6.757812 -5.535156 6.789062 -5.71875 C 6.605469 -5.769531 6.605469 -5.804688 6.4375 -5.71875 C 6.4375 -5.769531 6.4375 -5.804688 6.472656 -5.835938 C 6.320312 -5.804688 6.289062 -5.652344 6.121094 -5.601562 C 6.121094 -5.71875 6.320312 -5.71875 6.320312 -5.886719 C 6.121094 -5.835938 6.085938 -5.652344 5.9375 -5.601562 C 5.9375 -5.769531 6.121094 -5.71875 6.121094 -5.921875 C 6.003906 -5.953125 5.972656 -5.71875 5.9375 -5.835938 C 5.972656 -5.953125 6.121094 -6.003906 6.171875 -6.121094 C 6.238281 -6.121094 6.203125 -6.003906 6.238281 -6.003906 C 6.4375 -6.121094 6.523438 -6.355469 6.757812 -6.421875 C 6.722656 -6.304688 6.472656 -6.238281 6.554688 -6.15625 C 6.875 -6.421875 7.308594 -6.789062 7.425781 -7.140625 C 7.308594 -7.058594 7.308594 -6.90625 7.140625 -6.90625 C 7.257812 -6.972656 7.375 -7.257812 7.492188 -7.207031 C 7.460938 -7.375 7.660156 -7.644531 7.609375 -7.792969 C 7.609375 -7.726562 7.492188 -7.558594 7.425781 -7.675781 C 7.578125 -7.726562 7.609375 -7.878906 7.695312 -8.027344 C 7.542969 -8.027344 7.578125 -7.84375 7.425781 -7.84375 C 7.460938 -7.960938 7.578125 -7.996094 7.609375 -8.113281 C 7.460938 -8.144531 7.425781 -7.878906 7.34375 -7.996094 C 7.460938 -8.113281 7.660156 -8.195312 7.695312 -8.429688 C 7.578125 -8.460938 7.609375 -8.230469 7.542969 -8.378906 C 7.578125 -8.460938 7.695312 -8.496094 7.695312 -8.664062 C 7.492188 -8.546875 7.425781 -8.3125 7.226562 -8.230469 C 7.34375 -8.460938 7.609375 -8.546875 7.695312 -8.863281 C 7.542969 -8.8125 7.578125 -8.664062 7.425781 -8.664062 C 7.460938 -8.8125 7.660156 -8.863281 7.695312 -9.046875 C 7.542969 -9.097656 7.578125 -8.898438 7.460938 -8.863281 C 7.375 -9.015625 7.257812 -8.8125 7.191406 -8.898438 C 7.308594 -9.046875 7.609375 -9.214844 7.578125 -9.449219 C 7.34375 -9.214844 7.191406 -8.898438 6.875 -8.746094 C 7.023438 -9.046875 7.542969 -9.25 7.542969 -9.601562 C 7.460938 -9.515625 7.425781 -9.398438 7.308594 -9.367188 C 7.34375 -9.566406 7.542969 -9.566406 7.578125 -9.75 C 7.34375 -9.800781 7.34375 -9.398438 7.191406 -9.515625 C 7.257812 -9.632812 7.425781 -9.683594 7.460938 -9.867188 C 7.257812 -9.835938 7.191406 -9.515625 7.074219 -9.601562 C 7.191406 -9.71875 7.460938 -9.867188 7.375 -10.070312 C 7.34375 -10.035156 7.226562 -9.835938 7.191406 -9.917969 C 7.191406 -10.035156 7.34375 -10.035156 7.34375 -10.183594 C 6.839844 -9.800781 6.4375 -9.132812 5.9375 -8.863281 C 6.054688 -9.046875 6.554688 -9.25 6.355469 -9.515625 C 6.523438 -9.515625 6.554688 -9.917969 6.757812 -9.800781 C 6.640625 -9.683594 6.472656 -9.601562 6.4375 -9.449219 C 6.789062 -9.632812 7.023438 -9.953125 7.257812 -10.300781 C 7.109375 -10.335938 7.191406 -10.152344 7.074219 -10.183594 C 7.074219 -10.300781 7.191406 -10.300781 7.191406 -10.417969 C 6.90625 -10.300781 6.839844 -9.984375 6.554688 -9.867188 C 6.640625 -10.152344 7.191406 -10.335938 7.023438 -10.570312 C 6.90625 -10.453125 6.789062 -10.152344 6.640625 -10.21875 C 6.757812 -10.335938 6.992188 -10.503906 6.957031 -10.652344 C 6.722656 -10.503906 6.554688 -10.101562 6.320312 -10.101562 C 6.523438 -10.300781 6.722656 -10.503906 6.90625 -10.738281 C 6.789062 -10.820312 6.757812 -10.570312 6.640625 -10.570312 C 6.640625 -10.703125 6.757812 -10.738281 6.789062 -10.855469 C 6.605469 -10.769531 6.472656 -10.570312 6.320312 -10.453125 C 6.355469 -10.703125 6.605469 -10.738281 6.671875 -10.9375 C 6.355469 -10.820312 6.238281 -10.503906 6.003906 -10.335938 C 6.121094 -10.621094 6.40625 -10.703125 6.523438 -11.003906 C 6.203125 -10.855469 6.054688 -10.535156 5.820312 -10.335938 C 5.9375 -10.652344 6.238281 -10.769531 6.40625 -11.054688 C 6.171875 -11.121094 6.003906 -10.535156 5.769531 -10.621094 C 5.886719 -10.703125 6.003906 -10.820312 6.085938 -10.972656 C 5.9375 -11.054688 5.972656 -10.769531 5.886719 -10.886719 C 5.886719 -11.003906 6.054688 -11.003906 6.054688 -11.171875 C 5.886719 -11.121094 5.820312 -10.9375 5.703125 -10.855469 C 5.703125 -11.054688 5.886719 -11.089844 5.9375 -11.238281 C 5.652344 -11.121094 5.535156 -10.652344 5.269531 -10.703125 C 5.46875 -10.886719 5.652344 -11.054688 5.769531 -11.289062 C 5.386719 -11.054688 5.117188 -10.503906 4.765625 -10.386719 C 5.035156 -10.652344 5.386719 -10.886719 5.585938 -11.289062 C 5.269531 -11.171875 5.117188 -10.703125 4.882812 -10.703125 C 5.066406 -10.886719 5.269531 -11.089844 5.46875 -11.324219 C 5.117188 -11.207031 5.035156 -10.886719 4.765625 -10.738281 C 4.882812 -10.972656 5.152344 -11.089844 5.269531 -11.355469 C 5.035156 -11.324219 5 -11.054688 4.765625 -10.972656 C 4.800781 -11.171875 5.035156 -11.121094 5.035156 -11.355469 C 4.882812 -11.324219 4.917969 -11.171875 4.765625 -11.171875 C 4.714844 -11.289062 4.882812 -11.207031 4.832031 -11.355469 C 4.515625 -11.207031 4.449219 -10.855469 4.132812 -10.738281 C 4.25 -10.972656 4.597656 -11.121094 4.597656 -11.355469 C 4.480469 -11.289062 4.363281 -11.003906 4.25 -11.089844 C 4.28125 -11.171875 4.480469 -11.289062 4.398438 -11.355469 C 4.046875 -11.089844 3.863281 -10.703125 3.511719 -10.503906 C 3.746094 -10.769531 4.015625 -11.003906 4.214844 -11.324219 C 3.929688 -11.324219 3.929688 -10.886719 3.695312 -10.972656 C 3.8125 -11.054688 3.929688 -11.171875 4.015625 -11.324219 C 3.695312 -11.121094 3.511719 -10.886719 3.3125 -10.570312 C 3.511719 -10.621094 3.511719 -10.855469 3.695312 -10.886719 C 3.460938 -10.621094 3.195312 -10.183594 2.925781 -10.101562 C 3.042969 -10.269531 3.277344 -10.335938 3.3125 -10.570312 C 3.109375 -10.621094 3.195312 -10.335938 2.992188 -10.386719 C 3.226562 -10.703125 3.578125 -10.9375 3.78125 -11.289062 C 3.460938 -11.207031 3.34375 -10.703125 3.078125 -10.738281 Z M 7.257812 -7.207031 C 7.34375 -7.324219 7.425781 -7.441406 7.542969 -7.527344 C 7.492188 -7.324219 7.375 -7.292969 7.257812 -7.207031 Z M 6.957031 -5.101562 C 6.992188 -5.25 7.140625 -5.25 7.191406 -5.417969 C 7.074219 -5.367188 6.875 -5.21875 6.957031 -5.101562 Z M 6.722656 -0.636719 C 6.90625 -0.953125 7.226562 -1.1875 7.460938 -1.503906 C 7.578125 -1.339844 7.226562 -1.269531 7.226562 -1.105469 C 7.308594 -0.953125 7.34375 -1.1875 7.425781 -1.152344 C 7.425781 -1.035156 7.308594 -0.988281 7.226562 -0.988281 C 7.226562 -1.035156 7.226562 -1.070312 7.191406 -1.070312 C 6.992188 -0.953125 6.90625 -0.71875 6.722656 -0.636719 Z M 6.320312 -1.152344 C 6.355469 -0.988281 6.085938 -0.785156 5.972656 -0.71875 C 6.054688 -0.871094 6.238281 -0.953125 6.320312 -1.152344 Z M 5.738281 -2.15625 C 5.855469 -2.359375 6.003906 -2.558594 6.203125 -2.675781 C 6.085938 -2.476562 5.886719 -2.324219 5.738281 -2.15625 Z M 1.671875 -1.6875 C 1.503906 -1.421875 1.320312 -1.222656 1.085938 -1.070312 C 1.238281 -1.304688 1.4375 -1.503906 1.671875 -1.6875 Z M 1.503906 -4.28125 C 1.355469 -4.082031 1.203125 -3.878906 1.003906 -3.761719 C 1.152344 -3.929688 1.269531 -4.164062 1.503906 -4.28125 Z M 1.554688 -4.632812 C 1.554688 -4.398438 1.203125 -4.164062 1.003906 -3.964844 C 1.121094 -4.230469 1.386719 -4.347656 1.554688 -4.632812 Z M 1.320312 -6.472656 C 1.203125 -6.273438 1.121094 -6.121094 0.917969 -6.039062 C 1.003906 -6.238281 1.152344 -6.304688 1.320312 -6.472656 Z M 0.917969 -6.472656 C 0.917969 -6.589844 1.035156 -6.625 1.121094 -6.65625 C 1.085938 -6.589844 1.035156 -6.472656 0.917969 -6.472656 Z M 4.25 -10.621094 C 4.363281 -10.820312 4.515625 -11.003906 4.714844 -11.121094 C 4.597656 -10.9375 4.449219 -10.738281 4.25 -10.621094 Z M 3.578125 -10.269531 C 3.578125 -10.535156 3.980469 -10.769531 4.214844 -11.003906 C 4.046875 -10.703125 3.746094 -10.570312 3.578125 -10.269531 Z M 2.175781 -10.855469 C 2.292969 -10.820312 2.257812 -10.9375 2.292969 -10.972656 C 2.410156 -10.886719 2.207031 -10.820312 2.207031 -10.738281 C 2.175781 -10.738281 2.175781 -10.738281 2.175781 -10.769531 C 2.175781 -10.820312 2.175781 -10.820312 2.175781 -10.855469 Z M 4.046875 -10.21875 C 4.214844 -10.503906 4.515625 -10.652344 4.683594 -10.9375 C 4.648438 -10.703125 4.28125 -10.386719 4.046875 -10.21875 Z M 5.351562 -10.386719 C 5.152344 -10.535156 5.585938 -10.703125 5.652344 -10.855469 C 5.621094 -10.621094 5.386719 -10.621094 5.351562 -10.386719 Z M 5.066406 -10.269531 C 5.117188 -10.300781 5.183594 -10.386719 5.269531 -10.417969 C 5.234375 -10.335938 5.152344 -10.183594 5.066406 -10.269531 Z M 5.183594 -10.152344 C 5.417969 -10.386719 5.585938 -10.652344 5.855469 -10.855469 C 5.652344 -10.570312 5.46875 -10.300781 5.183594 -10.152344 Z M 2.175781 -10.652344 C 2.292969 -10.621094 2.257812 -10.738281 2.292969 -10.769531 C 2.410156 -10.703125 2.207031 -10.621094 2.207031 -10.535156 C 2.175781 -10.535156 2.175781 -10.535156 2.175781 -10.570312 C 2.175781 -10.621094 2.175781 -10.621094 2.175781 -10.652344 Z M 2.691406 -10.453125 C 2.691406 -10.621094 2.875 -10.652344 2.925781 -10.769531 C 2.992188 -10.652344 2.757812 -10.535156 2.691406 -10.453125 Z M 1.707031 -10.417969 C 1.621094 -10.535156 1.824219 -10.652344 1.941406 -10.738281 C 1.90625 -10.570312 1.738281 -10.570312 1.707031 -10.417969 Z M 4.132812 -10.101562 C 4.332031 -10.269531 4.515625 -10.652344 4.765625 -10.703125 C 4.515625 -10.503906 4.398438 -10.21875 4.132812 -10.101562 Z M 3.746094 -10.300781 C 3.8125 -10.453125 3.980469 -10.535156 4.046875 -10.703125 C 4.097656 -10.570312 3.863281 -10.386719 3.746094 -10.300781 Z M 2.492188 -10.453125 C 2.527344 -10.535156 2.527344 -10.621094 2.640625 -10.652344 C 2.609375 -10.535156 2.609375 -10.453125 2.492188 -10.453125 Z M 2.410156 -9.953125 C 2.558594 -10.21875 2.808594 -10.453125 3.078125 -10.652344 C 2.875 -10.386719 2.640625 -10.152344 2.410156 -9.953125 Z M 1.738281 -10.335938 C 1.824219 -10.417969 1.90625 -10.570312 2.058594 -10.621094 C 1.941406 -10.535156 1.90625 -10.386719 1.738281 -10.335938 Z M 5 -10.335938 C 5.035156 -10.453125 5.152344 -10.535156 5.269531 -10.621094 C 5.183594 -10.503906 5.117188 -10.417969 5 -10.335938 Z M 3.929688 -10.300781 C 3.980469 -10.417969 4.097656 -10.503906 4.214844 -10.570312 C 4.164062 -10.453125 4.046875 -10.386719 3.929688 -10.300781 Z M 6.40625 -10.386719 C 6.472656 -10.417969 6.472656 -10.535156 6.605469 -10.570312 C 6.554688 -10.453125 6.554688 -10.335938 6.40625 -10.386719 Z M 5.621094 -10.335938 C 5.652344 -10.417969 5.652344 -10.503906 5.769531 -10.535156 C 5.769531 -10.453125 5.585938 -10.335938 5.769531 -10.335938 C 5.738281 -10.21875 5.738281 -10.152344 5.621094 -10.152344 C 5.585938 -10.21875 5.820312 -10.300781 5.621094 -10.335938 Z M 4.480469 -10.300781 C 4.648438 -10.300781 4.597656 -10.503906 4.765625 -10.503906 C 4.714844 -10.417969 4.515625 -10.152344 4.480469 -10.300781 Z M 6.085938 -10.269531 C 6.171875 -10.300781 6.171875 -10.417969 6.289062 -10.453125 C 6.238281 -10.335938 6.238281 -10.21875 6.085938 -10.269531 Z M 1.355469 -10.101562 C 1.386719 -10.269531 1.503906 -10.300781 1.621094 -10.417969 C 1.589844 -10.269531 1.472656 -10.183594 1.355469 -10.101562 Z M 1.972656 -10.152344 C 2.023438 -10.269531 2.140625 -10.335938 2.257812 -10.417969 C 2.175781 -10.300781 2.140625 -10.183594 1.972656 -10.152344 Z M 1.671875 -10.035156 C 1.707031 -10.152344 1.855469 -10.183594 1.90625 -10.335938 C 1.972656 -10.21875 1.789062 -10.070312 1.671875 -10.035156 Z M 1.738281 -8.980469 C 2.023438 -9.398438 2.527344 -9.953125 2.992188 -10.335938 C 2.609375 -9.867188 2.140625 -9.449219 1.738281 -8.980469 Z M 5.621094 -9.953125 C 5.703125 -10.101562 5.820312 -10.21875 5.972656 -10.335938 C 5.886719 -10.183594 5.769531 -10.035156 5.621094 -9.953125 Z M 5.738281 -9.632812 C 5.9375 -9.917969 6.121094 -10.152344 6.40625 -10.335938 C 6.203125 -10.070312 5.972656 -9.835938 5.738281 -9.632812 Z M 4.515625 -9.984375 C 4.398438 -10.101562 4.683594 -10.21875 4.765625 -10.300781 C 4.714844 -10.152344 4.566406 -10.152344 4.515625 -9.984375 Z M 4.28125 -9.75 C 4.566406 -9.71875 4.683594 -10.183594 4.949219 -10.300781 C 4.832031 -10.070312 4.648438 -9.917969 4.480469 -9.75 C 4.480469 -9.71875 4.515625 -9.71875 4.515625 -9.683594 C 4.683594 -9.800781 4.765625 -9.984375 4.949219 -10.101562 C 4.917969 -9.867188 4.683594 -9.917969 4.683594 -9.683594 C 4.882812 -9.71875 4.917969 -9.953125 5.066406 -10.035156 C 5.035156 -9.800781 4.832031 -9.800781 4.800781 -9.601562 C 5.066406 -9.683594 5.117188 -9.984375 5.386719 -10.101562 C 5.269531 -9.867188 5.066406 -9.75 4.917969 -9.566406 C 5.066406 -9.484375 5.117188 -9.800781 5.300781 -9.800781 C 5.269531 -9.632812 5.117188 -9.632812 5.066406 -9.484375 C 5.152344 -9.367188 5.183594 -9.601562 5.300781 -9.601562 C 5.300781 -9.484375 5.183594 -9.515625 5.183594 -9.398438 C 5.234375 -9.367188 5.351562 -9.398438 5.269531 -9.25 C 5.351562 -9.25 5.351562 -9.28125 5.417969 -9.28125 C 5.46875 -9.164062 5.300781 -9.25 5.351562 -9.097656 C 5.503906 -9.097656 5.46875 -9.28125 5.621094 -9.28125 C 5.585938 -9.132812 5.417969 -9.164062 5.417969 -8.980469 C 5.652344 -9.046875 5.703125 -9.28125 5.886719 -9.398438 C 5.820312 -9.132812 5.417969 -9.015625 5.503906 -8.78125 C 5.621094 -8.863281 5.652344 -9.015625 5.820312 -9.097656 C 5.769531 -8.898438 5.535156 -8.898438 5.535156 -8.664062 C 5.769531 -8.746094 5.769531 -9.015625 6.003906 -9.097656 C 5.886719 -8.863281 5.652344 -8.695312 5.535156 -8.496094 C 5.703125 -8.378906 5.738281 -8.78125 5.9375 -8.78125 C 5.855469 -8.578125 5.621094 -8.496094 5.585938 -8.261719 C 5.703125 -8.261719 5.703125 -8.460938 5.855469 -8.460938 C 5.769531 -8.261719 5.585938 -8.261719 5.585938 -8.027344 C 6.085938 -8.496094 6.472656 -9.097656 7.074219 -9.515625 C 6.554688 -8.929688 5.9375 -8.460938 5.535156 -7.792969 C 5.652344 -7.910156 5.769531 -8.027344 5.9375 -8.144531 C 5.820312 -7.910156 5.585938 -7.792969 5.503906 -7.558594 C 5.769531 -7.761719 5.972656 -8.078125 6.238281 -8.261719 C 5.820312 -7.726562 5.300781 -7.207031 4.882812 -6.707031 C 4.714844 -6.738281 4.683594 -6.738281 4.566406 -6.65625 C 4.714844 -6.390625 4.25 -6.15625 4.046875 -5.953125 C 4.164062 -6.1875 4.449219 -6.304688 4.566406 -6.539062 C 4.363281 -6.625 4.363281 -6.273438 4.132812 -6.273438 C 4.25 -6.390625 4.363281 -6.507812 4.480469 -6.65625 C 4.015625 -6.65625 3.8125 -6.273438 3.546875 -6.003906 C 3.511719 -5.886719 3.664062 -5.953125 3.628906 -5.835938 C 3.429688 -5.601562 3.195312 -5.417969 2.992188 -5.183594 C 2.960938 -5.453125 3.578125 -5.652344 3.511719 -5.953125 C 3.3125 -5.769531 3.195312 -5.484375 2.925781 -5.417969 C 3.277344 -5.804688 3.664062 -6.1875 4.015625 -6.625 C 3.746094 -6.539062 3.695312 -6.273438 3.460938 -6.15625 C 3.546875 -6.304688 3.664062 -6.421875 3.78125 -6.539062 C 3.277344 -6.789062 2.960938 -6.15625 2.609375 -5.921875 C 2.757812 -6.15625 2.992188 -6.355469 3.195312 -6.539062 C 3.160156 -6.65625 3.078125 -6.507812 2.992188 -6.539062 C 3.078125 -6.738281 2.960938 -6.90625 3.042969 -7.089844 C 2.925781 -7.175781 2.84375 -6.855469 2.691406 -6.855469 C 2.757812 -7.058594 3.042969 -7.089844 3.042969 -7.375 C 2.875 -7.375 2.960938 -7.140625 2.757812 -7.175781 C 2.84375 -7.292969 2.960938 -7.375 3.042969 -7.492188 C 2.960938 -7.609375 3.042969 -7.726562 2.992188 -7.792969 C 2.875 -7.644531 2.726562 -7.492188 2.558594 -7.375 C 2.726562 -7.644531 3.042969 -7.792969 3.042969 -8.144531 C 2.726562 -8.078125 2.691406 -7.761719 2.441406 -7.675781 C 2.558594 -7.960938 2.925781 -8.027344 2.992188 -8.347656 C 2.925781 -8.429688 2.875 -8.144531 2.757812 -8.195312 C 2.808594 -8.347656 2.992188 -8.347656 2.992188 -8.578125 C 2.875 -8.613281 2.960938 -8.460938 2.84375 -8.496094 C 2.875 -8.613281 2.960938 -8.664062 2.992188 -8.78125 C 2.875 -8.8125 2.960938 -8.664062 2.84375 -8.695312 C 2.960938 -8.8125 2.925781 -8.980469 2.960938 -9.164062 C 2.84375 -9.214844 2.726562 -8.863281 2.527344 -8.8125 C 2.726562 -9.097656 3.078125 -9.28125 2.925781 -9.71875 C 3.226562 -9.632812 3.226562 -9.867188 3.429688 -9.953125 C 3.429688 -9.835938 3.3125 -9.800781 3.277344 -9.71875 C 3.578125 -9.800781 3.628906 -10.152344 3.929688 -10.269531 C 3.8125 -10.070312 3.578125 -9.917969 3.460938 -9.71875 C 3.746094 -9.800781 3.8125 -10.035156 4.015625 -10.183594 C 3.980469 -9.953125 3.746094 -9.917969 3.695312 -9.71875 C 3.898438 -9.75 3.929688 -9.984375 4.132812 -10.070312 C 4.097656 -9.917969 3.980469 -9.867188 3.898438 -9.800781 C 4.046875 -9.683594 4.332031 -9.75 4.398438 -9.984375 C 4.515625 -9.917969 4.332031 -9.800781 4.28125 -9.75 Z M 2.558594 -7.558594 C 2.640625 -7.761719 2.808594 -7.878906 2.960938 -7.996094 C 2.84375 -7.792969 2.726562 -7.675781 2.558594 -7.558594 Z M 2.808594 -6.738281 C 2.808594 -6.855469 2.875 -6.90625 2.992188 -6.941406 C 2.960938 -6.824219 2.875 -6.789062 2.808594 -6.738281 Z M 3.109375 -6.238281 C 3.195312 -6.355469 3.3125 -6.472656 3.429688 -6.539062 C 3.394531 -6.390625 3.226562 -6.304688 3.109375 -6.238281 Z M 3.042969 -5.921875 C 3.195312 -6.15625 3.394531 -6.390625 3.628906 -6.539062 C 3.460938 -6.304688 3.277344 -6.070312 3.042969 -5.921875 Z M 3.863281 -6.15625 C 3.929688 -6.355469 4.097656 -6.472656 4.25 -6.589844 C 4.132812 -6.390625 4.015625 -6.273438 3.863281 -6.15625 Z M 4.765625 -6.507812 C 4.714844 -6.625 4.949219 -6.507812 4.882812 -6.707031 C 5.066406 -6.707031 4.832031 -6.507812 4.765625 -6.507812 Z M 6.355469 -8.144531 C 5.9375 -7.761719 5.621094 -7.292969 5.183594 -6.941406 C 5.535156 -7.375 5.886719 -7.84375 6.355469 -8.144531 Z M 3.429688 -9.984375 C 3.546875 -10.070312 3.546875 -10.21875 3.695312 -10.269531 C 3.628906 -10.152344 3.578125 -9.984375 3.429688 -9.984375 Z M 5.9375 -10.152344 C 6.003906 -10.101562 6.003906 -10.183594 6.003906 -10.269531 C 6.171875 -10.183594 5.972656 -10.101562 5.972656 -10.035156 C 5.9375 -10.035156 5.9375 -10.035156 5.9375 -10.070312 C 5.9375 -10.101562 5.9375 -10.101562 5.9375 -10.152344 Z M 1.355469 -9.917969 C 1.386719 -10.035156 1.554688 -10.070312 1.589844 -10.21875 C 1.671875 -10.101562 1.472656 -9.953125 1.355469 -9.917969 Z M 2.175781 -9.953125 C 2.292969 -10.035156 2.324219 -10.183594 2.441406 -10.21875 C 2.375 -10.101562 2.324219 -9.953125 2.175781 -9.953125 Z M 3.195312 -9.835938 C 3.109375 -9.953125 3.3125 -10.070312 3.429688 -10.152344 C 3.394531 -9.984375 3.226562 -9.984375 3.195312 -9.835938 Z M 5.300781 -9.835938 C 5.417969 -9.917969 5.503906 -10.183594 5.621094 -10.101562 C 5.503906 -10.035156 5.46875 -9.867188 5.300781 -9.835938 Z M 6.320312 -9.867188 C 6.4375 -9.953125 6.4375 -10.152344 6.640625 -10.152344 C 6.523438 -10.070312 6.523438 -9.867188 6.320312 -9.867188 Z M 1.589844 -9.601562 C 1.855469 -9.71875 1.90625 -9.984375 2.175781 -10.101562 C 2.058594 -9.835938 1.738281 -9.75 1.671875 -9.484375 C 1.90625 -9.484375 1.855469 -9.75 2.058594 -9.800781 C 1.972656 -9.601562 1.855469 -9.515625 1.738281 -9.398438 C 1.621094 -9.398438 1.621094 -9.484375 1.589844 -9.601562 Z M 2.640625 -9.71875 C 2.527344 -9.835938 2.808594 -9.953125 2.875 -10.035156 C 2.84375 -9.867188 2.691406 -9.867188 2.640625 -9.71875 Z M 2.808594 -9.75 C 2.875 -9.867188 2.925781 -9.984375 3.109375 -10.035156 C 2.992188 -9.953125 2.960938 -9.800781 2.808594 -9.75 Z M 6.003906 -9.75 C 6.121094 -9.835938 6.121094 -9.984375 6.320312 -10.035156 C 6.238281 -9.917969 6.171875 -9.75 6.003906 -9.75 Z M 1.671875 -9.214844 C 1.941406 -9.398438 2.089844 -9.71875 2.375 -9.917969 C 2.175781 -9.683594 1.90625 -9.28125 1.671875 -9.214844 Z M 5.300781 -9.632812 C 5.386719 -9.71875 5.46875 -9.75 5.503906 -9.917969 C 5.535156 -9.917969 5.585938 -9.917969 5.621094 -9.917969 C 5.535156 -9.835938 5.417969 -9.601562 5.300781 -9.632812 Z M 5.585938 -9.601562 C 5.503906 -9.71875 5.703125 -9.867188 5.820312 -9.917969 C 5.738281 -9.800781 5.621094 -9.71875 5.585938 -9.601562 Z M 6.757812 -9.484375 C 6.90625 -9.601562 6.992188 -9.75 7.140625 -9.867188 C 7.074219 -9.683594 6.875 -9.449219 6.757812 -9.484375 Z M 5.9375 -9.449219 C 6.054688 -9.601562 6.121094 -9.75 6.320312 -9.835938 C 6.238281 -9.632812 6.085938 -9.566406 5.9375 -9.449219 Z M 5.886719 -9.132812 C 5.9375 -9.367188 6.289062 -9.632812 6.523438 -9.835938 C 6.40625 -9.632812 6.203125 -9.515625 6.289062 -9.332031 C 6.238281 -9.332031 6.289062 -9.449219 6.203125 -9.449219 C 6.054688 -9.367188 5.972656 -9.25 5.886719 -9.132812 Z M 2.410156 -9.332031 C 2.527344 -9.449219 2.609375 -9.632812 2.808594 -9.71875 C 2.691406 -9.566406 2.558594 -9.398438 2.410156 -9.332031 Z M 5.621094 -9.332031 C 5.738281 -9.484375 5.855469 -9.601562 6.003906 -9.71875 C 5.886719 -9.566406 5.820312 -9.398438 5.621094 -9.332031 Z M 1.941406 -8.980469 C 1.90625 -9.164062 2.257812 -9.28125 2.292969 -9.484375 C 2.441406 -9.398438 2.140625 -9.25 2.089844 -9.132812 C 2.089844 -9.097656 2.175781 -9.097656 2.175781 -9.046875 C 2.175781 -8.980469 2.089844 -8.898438 2.023438 -8.898438 C 1.972656 -9.015625 2.140625 -8.929688 2.089844 -9.097656 C 1.972656 -9.132812 1.972656 -9.015625 1.941406 -8.980469 Z M 6.875 -9.164062 C 6.992188 -9.25 6.992188 -9.398438 7.140625 -9.449219 C 7.074219 -9.332031 7.023438 -9.214844 6.875 -9.164062 Z M 7.109375 -9.25 C 7.226562 -9.214844 7.191406 -9.332031 7.226562 -9.367188 C 7.140625 -9.046875 6.757812 -8.746094 6.472656 -8.496094 C 6.640625 -8.78125 6.957031 -8.929688 7.109375 -9.25 Z M 6.355469 -9.132812 C 6.523438 -9.132812 6.472656 -9.28125 6.640625 -9.332031 C 6.605469 -9.164062 6.472656 -9.097656 6.355469 -9.015625 C 6.355469 -9.046875 6.355469 -9.097656 6.355469 -9.132812 Z M 6.355469 -8.613281 C 6.523438 -8.8125 6.640625 -9.015625 6.875 -9.132812 C 6.722656 -8.929688 6.605469 -8.746094 6.355469 -8.613281 Z M 1.90625 -8.578125 C 2.023438 -8.695312 2.089844 -8.898438 2.292969 -8.980469 C 2.175781 -8.8125 2.089844 -8.613281 1.90625 -8.578125 Z M 1.503906 -8.027344 C 1.90625 -8.261719 2.089844 -8.695312 2.492188 -8.980469 C 2.441406 -8.8125 2.257812 -8.78125 2.207031 -8.613281 C 2.292969 -8.460938 2.324219 -8.695312 2.410156 -8.664062 C 2.292969 -8.496094 2.207031 -8.347656 2.023438 -8.261719 C 2.023438 -8.429688 2.207031 -8.378906 2.207031 -8.578125 C 1.824219 -8.3125 1.589844 -7.878906 1.203125 -7.644531 C 1.320312 -7.761719 1.386719 -7.878906 1.503906 -7.996094 C 1.4375 -8.113281 1.386719 -7.910156 1.320312 -7.960938 C 1.503906 -8.144531 1.671875 -8.378906 1.90625 -8.546875 C 1.789062 -8.347656 1.589844 -8.261719 1.503906 -8.027344 Z M 1.386719 -8.460938 C 1.503906 -8.613281 1.621094 -8.746094 1.789062 -8.863281 C 1.671875 -8.695312 1.554688 -8.546875 1.386719 -8.460938 Z M 1.503906 -8.347656 C 1.621094 -8.546875 1.789062 -8.695312 1.972656 -8.863281 C 1.855469 -8.664062 1.671875 -8.496094 1.503906 -8.347656 Z M 6.90625 -8.546875 C 6.992188 -8.664062 7.023438 -8.78125 7.191406 -8.8125 C 7.109375 -8.695312 7.023438 -8.578125 6.90625 -8.546875 Z M 2.207031 -8.261719 C 2.375 -8.429688 2.492188 -8.664062 2.726562 -8.78125 C 2.558594 -8.613281 2.441406 -8.347656 2.207031 -8.261719 Z M 6.003906 -8.578125 C 5.855469 -8.613281 6.054688 -8.746094 6.121094 -8.78125 C 6.121094 -8.664062 6.003906 -8.695312 6.003906 -8.578125 Z M 5.972656 -8.195312 C 6.054688 -8.347656 6.203125 -8.460938 6.355469 -8.578125 C 6.238281 -8.429688 6.121094 -8.261719 5.972656 -8.195312 Z M 6.90625 -8.3125 C 6.957031 -8.378906 6.957031 -8.460938 7.074219 -8.496094 C 7.023438 -8.378906 7.023438 -8.3125 6.90625 -8.3125 Z M 2.324219 -7.996094 C 2.527344 -8.113281 2.558594 -8.378906 2.84375 -8.460938 C 2.640625 -8.3125 2.558594 -8.078125 2.324219 -7.996094 Z M 6.90625 -8.113281 C 6.957031 -8.261719 7.109375 -8.261719 7.140625 -8.429688 C 7.226562 -8.3125 6.992188 -8.195312 6.90625 -8.113281 Z M 6.355469 -8.195312 C 6.40625 -8.261719 6.472656 -8.347656 6.554688 -8.378906 C 6.523438 -8.3125 6.472656 -8.195312 6.355469 -8.195312 Z M 6.289062 -7.910156 C 6.4375 -8.078125 6.554688 -8.261719 6.789062 -8.378906 C 6.640625 -8.195312 6.472656 -8.027344 6.289062 -7.910156 Z M 1.320312 -8.144531 C 1.355469 -8.230469 1.4375 -8.378906 1.503906 -8.3125 C 1.472656 -8.230469 1.355469 -8.230469 1.355469 -8.113281 C 1.320312 -8.113281 1.320312 -8.113281 1.320312 -8.144531 Z M 1.738281 -7.558594 C 1.972656 -7.84375 2.207031 -8.113281 2.527344 -8.347656 C 2.292969 -8.078125 2.058594 -7.761719 1.738281 -7.558594 Z M 1.003906 -8.027344 C 1.035156 -8.144531 1.152344 -8.230469 1.269531 -8.3125 C 1.203125 -8.195312 1.121094 -8.078125 1.003906 -8.027344 Z M 6.640625 -7.410156 C 6.90625 -7.726562 7.191406 -8.027344 7.492188 -8.3125 C 7.226562 -7.996094 6.957031 -7.675781 6.640625 -7.410156 Z M 6.671875 -8.027344 C 6.605469 -8.078125 6.789062 -8.195312 6.839844 -8.261719 C 6.875 -8.261719 6.875 -8.261719 6.90625 -8.261719 C 6.839844 -8.195312 6.757812 -8.113281 6.671875 -8.027344 Z M 1.789062 -7.960938 C 1.707031 -8.027344 1.90625 -8.195312 2.023438 -8.230469 C 1.972656 -8.078125 1.824219 -8.078125 1.789062 -7.960938 Z M 1.738281 -7.761719 C 1.855469 -7.960938 2.023438 -8.113281 2.207031 -8.230469 C 2.089844 -8.027344 1.941406 -7.878906 1.738281 -7.761719 Z M 2.257812 -7.675781 C 2.375 -7.878906 2.527344 -8.027344 2.726562 -8.144531 C 2.558594 -7.996094 2.441406 -7.792969 2.257812 -7.675781 Z M 6.722656 -7.726562 C 6.757812 -7.84375 6.90625 -7.878906 6.957031 -8.027344 C 7.023438 -7.910156 6.789062 -7.792969 6.722656 -7.726562 Z M 1.4375 -7.644531 C 1.472656 -7.792969 1.589844 -7.84375 1.671875 -7.960938 C 1.738281 -7.84375 1.503906 -7.675781 1.4375 -7.644531 Z M 6.40625 -7.609375 C 6.4375 -7.726562 6.605469 -7.761719 6.640625 -7.910156 C 6.722656 -7.792969 6.472656 -7.675781 6.40625 -7.609375 Z M 6.238281 -7.558594 C 6.054688 -7.644531 6.320312 -7.675781 6.320312 -7.792969 C 6.4375 -7.726562 6.238281 -7.644531 6.238281 -7.558594 Z M 7.140625 -7.527344 C 7.140625 -7.609375 7.34375 -7.726562 7.109375 -7.726562 C 7.191406 -7.878906 7.257812 -7.644531 7.425781 -7.792969 C 7.375 -7.675781 7.257812 -7.558594 7.140625 -7.527344 Z M 1.472656 -7.410156 C 1.386719 -7.492188 1.589844 -7.675781 1.707031 -7.726562 C 1.671875 -7.558594 1.503906 -7.558594 1.472656 -7.410156 Z M 6.722656 -7.292969 C 6.839844 -7.410156 6.90625 -7.609375 7.109375 -7.675781 C 6.992188 -7.527344 6.90625 -7.375 6.722656 -7.292969 Z M 1.238281 -7.527344 C 1.355469 -7.492188 1.320312 -7.609375 1.355469 -7.644531 C 1.472656 -7.558594 1.269531 -7.492188 1.269531 -7.410156 C 1.238281 -7.410156 1.238281 -7.410156 1.238281 -7.441406 C 1.238281 -7.492188 1.238281 -7.492188 1.238281 -7.527344 Z M 1.621094 -7.257812 C 1.738281 -7.375 1.855469 -7.527344 2.023438 -7.644531 C 1.941406 -7.441406 1.824219 -7.292969 1.621094 -7.257812 Z M 5.9375 -7.257812 C 5.855469 -7.375 6.054688 -7.492188 6.171875 -7.558594 C 6.121094 -7.410156 5.972656 -7.410156 5.9375 -7.257812 Z M 6.003906 -7.175781 C 6.121094 -7.324219 6.203125 -7.492188 6.40625 -7.558594 C 6.289062 -7.441406 6.203125 -7.257812 6.003906 -7.175781 Z M 1.355469 -6.707031 C 1.589844 -6.972656 1.824219 -7.292969 2.140625 -7.527344 C 1.90625 -7.207031 1.621094 -6.941406 1.355469 -6.707031 Z M 1.855469 -7.023438 C 2.023438 -7.175781 2.089844 -7.410156 2.324219 -7.527344 C 2.089844 -7.175781 1.738281 -6.941406 1.503906 -6.589844 C 1.472656 -6.789062 1.738281 -6.855469 1.855469 -7.023438 Z M 1.972656 -6.941406 C 2.089844 -7.175781 2.324219 -7.292969 2.441406 -7.527344 C 2.527344 -7.410156 2.140625 -7.089844 1.972656 -6.941406 Z M 7.023438 -7.207031 C 7.140625 -7.292969 7.191406 -7.441406 7.34375 -7.492188 C 7.257812 -7.375 7.191406 -7.257812 7.023438 -7.207031 Z M 2.558594 -7.175781 C 2.640625 -7.257812 2.726562 -7.375 2.84375 -7.441406 C 2.808594 -7.324219 2.691406 -7.207031 2.558594 -7.175781 Z M 5.503906 -7.058594 C 5.621094 -7.207031 5.703125 -7.324219 5.855469 -7.441406 C 5.769531 -7.257812 5.652344 -7.140625 5.503906 -7.058594 Z M 6.757812 -7.089844 C 6.789062 -7.207031 6.90625 -7.292969 7.023438 -7.375 C 6.957031 -7.257812 6.875 -7.175781 6.757812 -7.089844 Z M 5.585938 -6.941406 C 5.652344 -7.058594 5.769531 -7.140625 5.820312 -7.257812 C 5.886719 -7.140625 5.703125 -6.972656 5.585938 -6.941406 Z M 6.121094 -6.855469 C 6.203125 -7.023438 6.320312 -7.175781 6.472656 -7.257812 C 6.40625 -7.058594 6.289062 -6.941406 6.121094 -6.855469 Z M 2.375 -6.738281 C 2.492188 -6.90625 2.609375 -7.023438 2.757812 -7.140625 C 2.640625 -6.972656 2.527344 -6.824219 2.375 -6.738281 Z M 6.003906 -7.058594 C 6.085938 -7.023438 6.085938 -7.089844 6.085938 -7.140625 C 6.121094 -7.140625 6.171875 -7.140625 6.203125 -7.140625 C 6.171875 -7.058594 6.054688 -7.058594 6.054688 -6.941406 C 6.003906 -6.941406 6.003906 -6.941406 6.003906 -6.972656 C 6.003906 -7.023438 6.003906 -7.023438 6.003906 -7.058594 Z M 1.269531 -6.789062 C 1.203125 -6.855469 1.386719 -7.058594 1.503906 -7.089844 C 1.503906 -6.90625 1.320312 -6.90625 1.269531 -6.789062 Z M 6.757812 -6.65625 C 6.875 -6.824219 6.957031 -6.972656 7.140625 -7.058594 C 6.992188 -6.941406 6.90625 -6.738281 6.757812 -6.65625 Z M 2.175781 -6.738281 C 2.175781 -6.90625 2.375 -6.855469 2.375 -7.023438 C 2.527344 -6.972656 2.257812 -6.738281 2.175781 -6.738281 Z M 4.683594 -6.1875 C 4.917969 -6.507812 5.183594 -6.789062 5.503906 -7.023438 C 5.234375 -6.738281 5 -6.421875 4.683594 -6.1875 Z M 5.621094 -6.738281 C 5.703125 -6.855469 5.738281 -6.972656 5.886719 -7.023438 C 5.820312 -6.90625 5.738281 -6.789062 5.621094 -6.738281 Z M 6.171875 -6.625 C 6.085938 -6.738281 6.289062 -6.855469 6.40625 -6.941406 C 6.355469 -6.789062 6.203125 -6.789062 6.171875 -6.625 Z M 6.4375 -6.855469 C 6.523438 -6.824219 6.523438 -6.90625 6.523438 -6.941406 C 6.554688 -6.941406 6.605469 -6.941406 6.640625 -6.941406 C 6.605469 -6.855469 6.472656 -6.855469 6.472656 -6.738281 C 6.4375 -6.738281 6.4375 -6.738281 6.4375 -6.789062 C 6.4375 -6.824219 6.4375 -6.824219 6.4375 -6.855469 Z M 5.035156 -6.707031 C 4.917969 -6.738281 5.117188 -6.789062 5.066406 -6.90625 C 5.117188 -6.90625 5.152344 -6.90625 5.183594 -6.90625 C 5.183594 -6.789062 5.035156 -6.824219 5.035156 -6.707031 Z M 5.300781 -6.625 C 5.300781 -6.789062 5.46875 -6.738281 5.503906 -6.90625 C 5.652344 -6.855469 5.386719 -6.625 5.300781 -6.625 Z M 6.757812 -6.472656 C 6.839844 -6.625 6.992188 -6.738281 7.140625 -6.855469 C 7.023438 -6.707031 6.90625 -6.539062 6.757812 -6.472656 Z M 5.820312 -6.539062 C 5.855469 -6.65625 5.972656 -6.738281 6.085938 -6.824219 C 6.003906 -6.707031 5.9375 -6.589844 5.820312 -6.539062 Z M 1.824219 -6.507812 C 1.738281 -6.589844 1.941406 -6.738281 2.058594 -6.789062 C 2.023438 -6.65625 1.855469 -6.625 1.824219 -6.507812 Z M 6.203125 -6.539062 C 6.238281 -6.625 6.320312 -6.707031 6.40625 -6.738281 C 6.355469 -6.65625 6.320312 -6.539062 6.203125 -6.539062 Z M 5.117188 -6.1875 C 5.234375 -6.390625 5.386719 -6.539062 5.585938 -6.707031 C 5.46875 -6.507812 5.269531 -6.355469 5.117188 -6.1875 Z M 6.605469 -6.421875 C 6.40625 -6.507812 6.671875 -6.539062 6.671875 -6.65625 C 6.789062 -6.589844 6.605469 -6.507812 6.605469 -6.421875 Z M 1.789062 -6.304688 C 1.824219 -6.421875 1.941406 -6.507812 2.058594 -6.589844 C 1.972656 -6.472656 1.90625 -6.355469 1.789062 -6.304688 Z M 1.824219 -6.070312 C 1.789062 -6.273438 2.089844 -6.421875 2.257812 -6.589844 C 2.175781 -6.355469 1.90625 -6.304688 1.824219 -6.070312 Z M 4.164062 -5.453125 C 4.515625 -5.835938 4.832031 -6.273438 5.269531 -6.589844 C 5.035156 -6.273438 4.714844 -6.003906 4.480469 -5.71875 C 4.480469 -5.652344 4.515625 -5.652344 4.566406 -5.652344 C 4.515625 -5.535156 4.515625 -5.453125 4.398438 -5.453125 C 4.363281 -5.570312 4.515625 -5.484375 4.480469 -5.652344 C 4.28125 -5.6875 4.363281 -5.417969 4.164062 -5.453125 Z M 5.535156 -6.507812 C 5.621094 -6.472656 5.621094 -6.539062 5.621094 -6.589844 C 5.652344 -6.507812 5.300781 -6.121094 5.117188 -5.921875 C 5.035156 -5.835938 4.949219 -5.769531 4.882812 -5.769531 C 4.832031 -5.652344 4.832031 -5.535156 4.683594 -5.570312 C 4.683594 -5.484375 4.683594 -5.453125 4.597656 -5.453125 C 4.882812 -5.835938 5.269531 -6.121094 5.535156 -6.507812 Z M 6.203125 -6.355469 C 6.203125 -6.421875 6.320312 -6.421875 6.320312 -6.539062 C 6.523438 -6.507812 6.289062 -6.355469 6.203125 -6.355469 Z M 1.554688 -6.304688 C 1.621094 -6.355469 1.621094 -6.472656 1.738281 -6.507812 C 1.738281 -6.355469 1.621094 -6.355469 1.554688 -6.304688 Z M 2.324219 -6.1875 C 2.257812 -6.304688 2.492188 -6.421875 2.558594 -6.507812 C 2.527344 -6.355469 2.375 -6.355469 2.324219 -6.1875 Z M 2.375 -6.121094 C 2.441406 -6.273438 2.609375 -6.390625 2.757812 -6.507812 C 2.640625 -6.355469 2.558594 -6.1875 2.375 -6.121094 Z M 4.515625 -6.15625 C 4.449219 -6.273438 4.648438 -6.390625 4.765625 -6.472656 C 4.714844 -6.304688 4.566406 -6.304688 4.515625 -6.15625 Z M 6.289062 -6.121094 C 6.171875 -6.238281 6.4375 -6.355469 6.523438 -6.421875 C 6.472656 -6.273438 6.320312 -6.273438 6.289062 -6.121094 Z M 5.417969 -6.121094 C 5.46875 -6.238281 5.585938 -6.304688 5.703125 -6.390625 C 5.652344 -6.273438 5.535156 -6.15625 5.417969 -6.121094 Z M 5.300781 -5.804688 C 5.46875 -6.003906 5.652344 -6.15625 5.820312 -6.390625 C 5.886719 -6.273438 5.503906 -5.921875 5.300781 -5.804688 Z M 2.691406 -5.804688 C 2.808594 -5.921875 2.960938 -6.1875 3.109375 -6.1875 C 2.960938 -6.070312 2.875 -5.886719 2.691406 -5.804688 Z M 4.882812 -6.003906 C 4.949219 -6.039062 4.949219 -6.15625 5.066406 -6.1875 C 5.066406 -6.070312 5 -6.003906 4.882812 -6.003906 Z M 5.820312 -5.921875 C 5.820312 -6.039062 6.003906 -6.039062 6.003906 -6.1875 C 6.171875 -6.15625 5.886719 -5.921875 5.820312 -5.921875 Z M 3.8125 -5.417969 C 3.8125 -5.6875 4.25 -5.886719 4.398438 -6.15625 C 4.363281 -5.886719 3.929688 -5.6875 3.8125 -5.417969 Z M 3.863281 -5.335938 C 4.132812 -5.601562 4.363281 -5.921875 4.683594 -6.15625 C 4.398438 -5.886719 4.164062 -5.535156 3.863281 -5.335938 Z M 2.207031 -5.6875 C 2.257812 -5.886719 2.441406 -5.921875 2.527344 -6.121094 C 2.609375 -5.953125 2.292969 -5.804688 2.207031 -5.6875 Z M 3.042969 -5.71875 C 3.160156 -5.886719 3.277344 -6.003906 3.429688 -6.121094 C 3.34375 -5.953125 3.195312 -5.804688 3.042969 -5.71875 Z M 3.664062 -5.71875 C 3.746094 -5.886719 3.863281 -6.039062 4.015625 -6.121094 C 3.929688 -5.953125 3.78125 -5.835938 3.664062 -5.71875 Z M 1.972656 -5.6875 C 2.089844 -5.804688 2.175781 -6.003906 2.375 -6.070312 C 2.257812 -5.921875 2.175781 -5.71875 1.972656 -5.6875 Z M 5 -5.6875 C 5.117188 -5.769531 5.117188 -5.953125 5.300781 -5.953125 C 5.183594 -5.886719 5.152344 -5.71875 5 -5.6875 Z M 2.410156 -5.6875 C 2.375 -5.804688 2.527344 -5.769531 2.492188 -5.886719 C 2.527344 -5.886719 2.558594 -5.886719 2.609375 -5.886719 C 2.527344 -5.835938 2.527344 -5.6875 2.410156 -5.6875 Z M 5.535156 -5.601562 C 5.621094 -5.71875 5.652344 -5.835938 5.820312 -5.886719 C 5.738281 -5.769531 5.652344 -5.652344 5.535156 -5.601562 Z M 3.042969 -5.101562 C 3.226562 -5.300781 3.429688 -5.484375 3.578125 -5.71875 C 3.578125 -5.484375 3.277344 -5.21875 3.042969 -5.101562 Z M 6.355469 -5.6875 C 6.4375 -5.601562 6.554688 -5.535156 6.605469 -5.71875 C 6.605469 -5.484375 6.238281 -5.25 6.054688 -5.101562 C 6.171875 -5.25 6.238281 -5.417969 6.4375 -5.484375 C 6.472656 -5.652344 6.320312 -5.570312 6.355469 -5.6875 Z M 1.707031 -5.132812 C 1.789062 -5.367188 2.023438 -5.453125 2.140625 -5.6875 C 2.175781 -5.453125 1.824219 -5.300781 1.707031 -5.132812 Z M 2.375 -5.183594 C 2.375 -5.335938 2.640625 -5.570312 2.808594 -5.6875 C 2.691406 -5.484375 2.492188 -5.335938 2.375 -5.183594 Z M 2.207031 -4.867188 C 2.492188 -5.132812 2.691406 -5.484375 3.042969 -5.6875 C 2.757812 -5.417969 2.527344 -5.066406 2.207031 -4.867188 Z M 1.589844 -5.25 C 1.707031 -5.417969 1.789062 -5.570312 1.972656 -5.652344 C 1.90625 -5.453125 1.738281 -5.367188 1.589844 -5.25 Z M 4.597656 -5.25 C 4.714844 -5.367188 4.800781 -5.570312 5 -5.652344 C 4.882812 -5.484375 4.765625 -5.335938 4.597656 -5.25 Z M 4.917969 -5.367188 C 5 -5.484375 5.066406 -5.601562 5.234375 -5.652344 C 5.117188 -5.535156 5.066406 -5.417969 4.917969 -5.367188 Z M 5.738281 -4.984375 C 5.886719 -5.21875 6.121094 -5.367188 6.289062 -5.601562 C 6.238281 -5.367188 5.972656 -5.132812 5.738281 -4.984375 Z M 5.46875 -5.066406 C 5.585938 -5.300781 5.738281 -5.453125 5.9375 -5.570312 C 5.769531 -5.367188 5.652344 -5.21875 5.46875 -5.066406 Z M 5.46875 -4.867188 C 5.585938 -5.101562 5.820312 -5.25 5.972656 -5.484375 C 5.972656 -5.25 5.621094 -5.015625 5.46875 -4.867188 Z M 2.089844 -5.183594 C 2.207031 -5.25 2.257812 -5.417969 2.410156 -5.453125 C 2.292969 -5.367188 2.292969 -5.183594 2.089844 -5.183594 Z M 6.472656 -5.101562 C 6.523438 -5.25 6.671875 -5.25 6.722656 -5.417969 C 6.789062 -5.300781 6.554688 -5.183594 6.472656 -5.101562 Z M 4.714844 -5.132812 C 4.765625 -5.21875 4.765625 -5.335938 4.917969 -5.335938 C 4.832031 -5.25 4.832031 -5.132812 4.714844 -5.132812 Z M 2.140625 -5.066406 C 2.257812 -5.015625 2.207031 -5.132812 2.257812 -5.183594 C 2.375 -5.101562 2.175781 -5.015625 2.175781 -4.949219 C 2.140625 -4.949219 2.140625 -4.949219 2.140625 -4.984375 C 2.140625 -5.015625 2.140625 -5.015625 2.140625 -5.066406 Z M 6.472656 -4.902344 C 6.605469 -4.984375 6.605469 -5.183594 6.789062 -5.183594 C 6.722656 -5.066406 6.640625 -4.949219 6.472656 -4.902344 Z M 1.707031 -4.75 C 1.824219 -4.867188 1.941406 -5.015625 2.089844 -5.132812 C 1.972656 -4.984375 1.90625 -4.832031 1.707031 -4.75 Z M 6.289062 -4.902344 C 6.320312 -4.984375 6.40625 -5.132812 6.472656 -5.066406 C 6.4375 -4.984375 6.355469 -4.902344 6.289062 -4.902344 Z M 1.941406 -4.113281 C 2.175781 -4.433594 2.492188 -4.75 2.757812 -5.066406 C 2.640625 -4.75 2.257812 -4.398438 1.941406 -4.113281 Z M 2.757812 -4.785156 C 2.808594 -4.902344 2.925781 -4.984375 3.042969 -5.066406 C 2.960938 -4.949219 2.875 -4.832031 2.757812 -4.785156 Z M 5.652344 -4.667969 C 5.820312 -4.785156 5.855469 -5.015625 6.054688 -5.066406 C 5.886719 -4.949219 5.855469 -4.699219 5.652344 -4.667969 Z M 5.972656 -4.785156 C 5.972656 -4.949219 6.121094 -4.902344 6.171875 -5.066406 C 6.320312 -5.015625 6.054688 -4.785156 5.972656 -4.785156 Z M 1.355469 -4.699219 C 1.203125 -4.785156 1.472656 -4.949219 1.589844 -5.015625 C 1.554688 -4.867188 1.386719 -4.867188 1.355469 -4.699219 Z M 6.605469 -4.582031 C 6.722656 -4.75 6.839844 -4.867188 6.992188 -4.984375 C 6.875 -4.832031 6.757812 -4.667969 6.605469 -4.582031 Z M 6.90625 -4.699219 C 6.90625 -4.832031 7.109375 -4.832031 7.109375 -4.984375 C 7.257812 -4.949219 6.992188 -4.699219 6.90625 -4.699219 Z M 6.40625 -4.582031 C 6.4375 -4.699219 6.554688 -4.785156 6.671875 -4.867188 C 6.605469 -4.75 6.523438 -4.632812 6.40625 -4.582031 Z M 1.707031 -4.550781 C 1.824219 -4.632812 1.855469 -4.785156 2.023438 -4.832031 C 1.90625 -4.75 1.824219 -4.464844 1.707031 -4.550781 Z M 2.140625 -4.550781 C 2.207031 -4.667969 2.292969 -4.75 2.410156 -4.832031 C 2.324219 -4.699219 2.257812 -4.582031 2.140625 -4.550781 Z M 1.941406 -4.632812 C 2.058594 -4.582031 2.023438 -4.699219 2.058594 -4.75 C 2.175781 -4.667969 1.972656 -4.582031 1.972656 -4.515625 C 1.941406 -4.515625 1.941406 -4.515625 1.941406 -4.550781 C 1.941406 -4.582031 1.941406 -4.582031 1.941406 -4.632812 Z M 2.324219 -4.347656 C 2.492188 -4.464844 2.527344 -4.667969 2.726562 -4.75 C 2.609375 -4.582031 2.527344 -4.433594 2.324219 -4.347656 Z M 2.757812 -4.347656 C 2.808594 -4.464844 2.960938 -4.515625 2.992188 -4.667969 C 3.078125 -4.550781 2.875 -4.398438 2.757812 -4.347656 Z M 5.703125 -3.847656 C 5.886719 -4.082031 6.121094 -4.347656 6.355469 -4.550781 C 6.203125 -4.316406 6.003906 -4.082031 5.769531 -3.929688 C 5.738281 -3.761719 5.886719 -3.847656 5.855469 -3.730469 C 5.738281 -3.730469 5.769531 -3.8125 5.703125 -3.847656 Z M 6.523438 -4.28125 C 6.554688 -4.398438 6.671875 -4.464844 6.789062 -4.550781 C 6.722656 -4.433594 6.640625 -4.316406 6.523438 -4.28125 Z M 1.503906 -4.316406 C 1.554688 -4.398438 1.621094 -4.464844 1.707031 -4.515625 C 1.738281 -4.398438 1.589844 -4.464844 1.621094 -4.316406 C 1.589844 -4.316406 1.554688 -4.316406 1.503906 -4.316406 Z M 1.355469 -3.695312 C 1.554688 -3.996094 1.824219 -4.28125 2.140625 -4.515625 C 1.855469 -4.230469 1.621094 -3.929688 1.355469 -3.695312 Z M 6.722656 -3.878906 C 6.957031 -4.046875 7.023438 -4.347656 7.34375 -4.464844 C 7.109375 -4.28125 7.023438 -3.996094 6.722656 -3.878906 Z M 6.40625 -3.964844 C 6.472656 -4.113281 6.640625 -4.230469 6.789062 -4.347656 C 6.671875 -4.199219 6.605469 -4.046875 6.40625 -3.964844 Z M 1.941406 -3.929688 C 2.058594 -4.046875 2.175781 -4.230469 2.324219 -4.316406 C 2.207031 -4.164062 2.140625 -3.964844 1.941406 -3.929688 Z M 2.257812 -4.046875 C 2.292969 -4.164062 2.410156 -4.230469 2.527344 -4.316406 C 2.492188 -4.199219 2.375 -4.082031 2.257812 -4.046875 Z M 2.640625 -4.046875 C 2.726562 -4.082031 2.726562 -4.199219 2.84375 -4.230469 C 2.808594 -4.113281 2.691406 -4.082031 2.84375 -3.996094 C 2.84375 -3.929688 2.757812 -3.847656 2.691406 -3.847656 C 2.691406 -3.929688 2.875 -4.046875 2.640625 -4.046875 Z M 6.839844 -3.761719 C 6.90625 -3.878906 6.992188 -3.996094 7.140625 -4.046875 C 7.023438 -3.929688 6.992188 -3.8125 6.839844 -3.761719 Z M 2.207031 -3.695312 C 2.140625 -3.8125 2.324219 -3.929688 2.441406 -3.996094 C 2.410156 -3.847656 2.257812 -3.847656 2.207031 -3.695312 Z M 2.375 -3.730469 C 2.375 -3.847656 2.558594 -3.847656 2.558594 -3.996094 C 2.726562 -3.964844 2.441406 -3.730469 2.375 -3.730469 Z M 7.109375 -3.34375 C 7.109375 -3.578125 7.460938 -3.8125 7.660156 -3.964844 C 7.460938 -3.730469 7.257812 -3.578125 7.109375 -3.34375 Z M 6.003906 -3.34375 C 6.121094 -3.527344 6.355469 -3.613281 6.4375 -3.847656 C 6.4375 -3.644531 6.171875 -3.460938 6.003906 -3.34375 Z M 6.523438 -3.644531 C 6.554688 -3.730469 6.640625 -3.8125 6.722656 -3.847656 C 6.722656 -3.730469 6.605469 -3.695312 6.523438 -3.644531 Z M 6.722656 -3.460938 C 6.875 -3.578125 6.957031 -3.730469 7.109375 -3.847656 C 7.023438 -3.695312 6.90625 -3.496094 6.722656 -3.460938 Z M 6.523438 -3.027344 C 6.789062 -3.292969 6.992188 -3.613281 7.34375 -3.847656 C 7.074219 -3.578125 6.875 -3.226562 6.523438 -3.027344 Z M 1.707031 -3.378906 C 1.621094 -3.460938 1.824219 -3.644531 1.941406 -3.695312 C 1.90625 -3.527344 1.738281 -3.527344 1.707031 -3.378906 Z M 1.386719 -3.460938 C 1.238281 -3.496094 1.4375 -3.613281 1.503906 -3.644531 C 1.503906 -3.527344 1.386719 -3.578125 1.386719 -3.460938 Z M 6.203125 -3.34375 C 6.289062 -3.460938 6.40625 -3.496094 6.4375 -3.644531 C 6.523438 -3.527344 6.320312 -3.378906 6.203125 -3.34375 Z M 1.671875 -3.179688 C 1.707031 -3.34375 1.855469 -3.34375 1.90625 -3.496094 C 1.972656 -3.378906 1.738281 -3.226562 1.671875 -3.179688 Z M 2.492188 -3.226562 C 2.492188 -3.378906 2.691406 -3.34375 2.691406 -3.496094 C 2.84375 -3.460938 2.558594 -3.261719 2.492188 -3.226562 Z M 7.257812 -3.144531 C 7.308594 -3.261719 7.425781 -3.378906 7.542969 -3.460938 C 7.492188 -3.292969 7.375 -3.226562 7.257812 -3.144531 Z M 6.472656 -3.109375 C 6.40625 -3.226562 6.605469 -3.34375 6.722656 -3.410156 C 6.671875 -3.261719 6.523438 -3.261719 6.472656 -3.109375 Z M 1.355469 -3.0625 C 1.386719 -3.226562 1.554688 -3.226562 1.589844 -3.378906 C 1.671875 -3.261719 1.472656 -3.109375 1.355469 -3.0625 Z M 1.855469 -2.992188 C 1.972656 -3.144531 2.089844 -3.261719 2.257812 -3.378906 C 2.175781 -3.226562 2.023438 -3.0625 1.855469 -2.992188 Z M 2.175781 -3.109375 C 2.257812 -3.226562 2.324219 -3.292969 2.441406 -3.378906 C 2.410156 -3.261719 2.292969 -3.144531 2.175781 -3.109375 Z M 2.691406 -3.027344 C 2.808594 -3.109375 2.84375 -3.261719 2.992188 -3.292969 C 2.875 -3.226562 2.84375 -3.027344 2.691406 -3.027344 Z M 5.769531 -2.992188 C 5.621094 -3.0625 5.886719 -3.226562 5.972656 -3.292969 C 5.972656 -3.144531 5.820312 -3.109375 5.769531 -2.992188 Z M 5.738281 -2.59375 C 5.9375 -2.875 6.121094 -3.109375 6.40625 -3.292969 C 6.203125 -3.027344 5.972656 -2.792969 5.738281 -2.59375 Z M 1.554688 -2.875 C 1.589844 -3.027344 1.738281 -3.027344 1.789062 -3.179688 C 1.941406 -3.109375 1.621094 -2.945312 1.554688 -2.875 Z M 1.90625 -2.558594 C 2.023438 -2.828125 2.257812 -2.945312 2.410156 -3.179688 C 2.375 -2.992188 2.058594 -2.710938 1.90625 -2.558594 Z M 2.292969 -2.792969 C 2.410156 -2.945312 2.492188 -3.109375 2.691406 -3.179688 C 2.527344 -3.0625 2.492188 -2.875 2.292969 -2.792969 Z M 1.355469 -2.875 C 1.386719 -2.992188 1.503906 -3.0625 1.621094 -3.144531 C 1.589844 -3.027344 1.472656 -2.910156 1.355469 -2.875 Z M 6.875 -3.027344 C 6.992188 -2.992188 6.957031 -3.109375 6.992188 -3.144531 C 7.109375 -3.0625 6.90625 -2.992188 6.90625 -2.910156 C 6.875 -2.910156 6.875 -2.910156 6.875 -2.945312 C 6.875 -2.992188 6.875 -2.992188 6.875 -3.027344 Z M 1.824219 -2.625 C 1.789062 -2.792969 2.023438 -2.992188 2.175781 -3.0625 C 2.058594 -2.910156 1.941406 -2.792969 1.824219 -2.625 Z M 2.441406 -2.675781 C 2.375 -2.742188 2.558594 -2.945312 2.691406 -2.992188 C 2.640625 -2.828125 2.492188 -2.828125 2.441406 -2.675781 Z M 6.238281 -2.710938 C 6.289062 -2.828125 6.40625 -2.910156 6.523438 -2.992188 C 6.4375 -2.875 6.355469 -2.742188 6.238281 -2.710938 Z M 6.320312 -2.625 C 6.4375 -2.675781 6.472656 -2.875 6.640625 -2.910156 C 6.554688 -2.792969 6.4375 -2.59375 6.320312 -2.625 Z M 6.554688 -2.59375 C 6.605469 -2.742188 6.722656 -2.828125 6.839844 -2.910156 C 6.757812 -2.742188 6.671875 -2.675781 6.554688 -2.59375 Z M 6.554688 -2.207031 C 6.757812 -2.476562 7.023438 -2.625 7.191406 -2.910156 C 7.226562 -2.792969 6.789062 -2.359375 6.554688 -2.207031 Z M 7.34375 -2.507812 C 7.226562 -2.675781 7.542969 -2.742188 7.578125 -2.910156 C 7.726562 -2.828125 7.34375 -2.675781 7.34375 -2.507812 Z M 1.152344 -2.625 C 1.152344 -2.742188 1.238281 -2.792969 1.355469 -2.828125 C 1.269531 -2.742188 1.269531 -2.625 1.152344 -2.625 Z M 1.152344 -2.441406 C 1.203125 -2.558594 1.355469 -2.59375 1.386719 -2.742188 C 1.472656 -2.625 1.269531 -2.476562 1.152344 -2.441406 Z M 6.554688 -2.390625 C 6.605469 -2.558594 6.757812 -2.558594 6.789062 -2.710938 C 6.875 -2.59375 6.640625 -2.476562 6.554688 -2.390625 Z M 2.292969 -1.972656 C 2.527344 -2.207031 2.726562 -2.476562 2.992188 -2.675781 C 2.925781 -2.441406 2.640625 -2.390625 2.609375 -2.15625 C 2.808594 -2.125 2.726562 -2.359375 2.925781 -2.359375 C 2.84375 -2.242188 2.726562 -2.207031 2.691406 -2.039062 C 2.609375 -2.039062 2.640625 -2.15625 2.558594 -2.15625 C 2.410156 -2.15625 2.492188 -1.921875 2.292969 -1.972656 Z M 1.589844 -2.242188 C 1.671875 -2.359375 1.738281 -2.476562 1.855469 -2.558594 C 1.824219 -2.390625 1.707031 -2.324219 1.589844 -2.242188 Z M 1.589844 -2.039062 C 1.707031 -2.242188 1.941406 -2.324219 2.023438 -2.558594 C 2.023438 -2.359375 1.738281 -2.15625 1.589844 -2.039062 Z M 2.410156 -2.273438 C 2.441406 -2.390625 2.558594 -2.476562 2.691406 -2.558594 C 2.640625 -2.441406 2.527344 -2.324219 2.410156 -2.273438 Z M 6.003906 -2.273438 C 6.054688 -2.390625 6.203125 -2.441406 6.238281 -2.558594 C 6.355469 -2.507812 6.121094 -2.273438 6.003906 -2.273438 Z M 7.492188 -2.125 C 7.578125 -2.207031 7.695312 -2.441406 7.8125 -2.390625 C 7.695312 -2.324219 7.660156 -2.15625 7.492188 -2.125 Z M 7.257812 -2.007812 C 7.226562 -2.125 7.460938 -2.324219 7.578125 -2.390625 C 7.492188 -2.207031 7.34375 -2.15625 7.257812 -2.007812 Z M 6.238281 -2.089844 C 6.320312 -2.207031 6.40625 -2.324219 6.554688 -2.359375 C 6.4375 -2.273438 6.40625 -2.125 6.238281 -2.089844 Z M 6.605469 -2.007812 C 6.671875 -2.125 6.722656 -2.242188 6.875 -2.273438 C 6.789062 -2.15625 6.722656 -2.039062 6.605469 -2.007812 Z M 2.023438 -1.855469 C 2.089844 -2.007812 2.257812 -2.089844 2.324219 -2.242188 C 2.375 -2.089844 2.140625 -1.921875 2.023438 -1.855469 Z M 1.203125 -1.804688 C 1.269531 -1.972656 1.386719 -2.125 1.554688 -2.207031 C 1.472656 -2.039062 1.355469 -1.890625 1.203125 -1.804688 Z M 6.238281 -1.890625 C 6.355469 -1.972656 6.40625 -2.125 6.554688 -2.15625 C 6.472656 -2.039062 6.40625 -1.890625 6.238281 -1.890625 Z M 6.640625 -1.773438 C 6.554688 -1.890625 6.757812 -2.007812 6.875 -2.089844 C 6.875 -1.890625 6.671875 -1.921875 6.640625 -1.773438 Z M 6.722656 -1.6875 C 6.839844 -1.855469 6.90625 -1.972656 7.074219 -2.089844 C 6.992188 -1.890625 6.875 -1.773438 6.722656 -1.6875 Z M 2.375 -1.738281 C 2.292969 -1.855469 2.492188 -1.972656 2.609375 -2.039062 C 2.558594 -1.890625 2.410156 -1.890625 2.375 -1.738281 Z M 2.324219 -1.539062 C 2.441406 -1.738281 2.609375 -1.890625 2.808594 -2.039062 C 2.691406 -1.855469 2.527344 -1.65625 2.324219 -1.539062 Z M 6.054688 -1.972656 C 6.171875 -1.921875 6.121094 -2.089844 6.238281 -2.039062 C 6.203125 -1.972656 6.121094 -1.890625 6.054688 -1.855469 C 6.054688 -1.890625 6.054688 -1.921875 6.054688 -1.972656 Z M 1.269531 -1.738281 C 1.386719 -1.804688 1.386719 -2.007812 1.589844 -2.007812 C 1.503906 -1.890625 1.4375 -1.738281 1.269531 -1.738281 Z M 1.707031 -1.738281 C 1.789062 -1.855469 1.855469 -1.921875 1.972656 -2.007812 C 1.941406 -1.890625 1.824219 -1.804688 1.707031 -1.738281 Z M 7.109375 -1.6875 C 7.140625 -1.804688 7.308594 -1.855469 7.34375 -2.007812 C 7.425781 -1.890625 7.226562 -1.738281 7.109375 -1.6875 Z M 6.171875 -1.539062 C 6.238281 -1.738281 6.40625 -1.855469 6.554688 -1.972656 C 6.4375 -1.804688 6.320312 -1.65625 6.171875 -1.539062 Z M 1.90625 -1.539062 C 2.023438 -1.621094 2.058594 -1.773438 2.207031 -1.804688 C 2.089844 -1.738281 2.089844 -1.539062 1.90625 -1.539062 Z M 2.691406 -1.421875 C 2.558594 -1.539062 2.875 -1.621094 2.875 -1.773438 C 2.992188 -1.621094 2.691406 -1.570312 2.691406 -1.421875 Z M 7.226562 -1.6875 C 7.308594 -1.65625 7.308594 -1.738281 7.308594 -1.773438 C 7.34375 -1.773438 7.375 -1.773438 7.425781 -1.773438 C 7.34375 -1.738281 7.34375 -1.570312 7.226562 -1.570312 C 7.226562 -1.621094 7.226562 -1.65625 7.226562 -1.6875 Z M 1.707031 -1.539062 C 1.738281 -1.621094 1.824219 -1.6875 1.90625 -1.738281 C 1.90625 -1.570312 1.789062 -1.570312 1.707031 -1.539062 Z M 1.824219 -1.222656 C 1.941406 -1.421875 2.140625 -1.539062 2.257812 -1.738281 C 2.324219 -1.570312 2.058594 -1.503906 2.023438 -1.339844 C 2.023438 -1.304688 2.058594 -1.304688 2.089844 -1.304688 C 2.175781 -1.386719 2.175781 -1.503906 2.324219 -1.503906 C 2.175781 -1.386719 2.140625 -1.1875 1.941406 -1.105469 C 1.90625 -1.222656 2.023438 -1.1875 2.023438 -1.269531 C 1.941406 -1.386719 1.941406 -1.1875 1.824219 -1.222656 Z M 6.289062 -1.269531 C 6.355469 -1.386719 6.40625 -1.539062 6.605469 -1.539062 C 6.605469 -1.421875 6.4375 -1.503906 6.472656 -1.386719 C 6.605469 -1.222656 6.640625 -1.570312 6.789062 -1.539062 C 6.671875 -1.386719 6.554688 -1.269531 6.40625 -1.152344 C 6.355469 -1.269531 6.472656 -1.222656 6.472656 -1.304688 C 6.40625 -1.421875 6.355469 -1.222656 6.289062 -1.269531 Z M 1.203125 -0.988281 C 1.355469 -1.152344 1.472656 -1.386719 1.707031 -1.503906 C 1.554688 -1.304688 1.4375 -1.105469 1.203125 -0.988281 Z M 6.722656 -1.070312 C 6.789062 -1.222656 6.957031 -1.339844 7.109375 -1.453125 C 6.992188 -1.304688 6.875 -1.152344 6.722656 -1.070312 Z M 7.023438 -1.1875 C 7.074219 -1.304688 7.191406 -1.386719 7.308594 -1.453125 C 7.257812 -1.339844 7.140625 -1.222656 7.023438 -1.1875 Z M 2.140625 -0.71875 C 2.375 -0.953125 2.558594 -1.222656 2.84375 -1.421875 C 2.609375 -1.1875 2.410156 -0.917969 2.140625 -0.71875 Z M 2.609375 -0.917969 C 2.558594 -1.105469 2.875 -1.304688 3.042969 -1.421875 C 2.960938 -1.1875 2.691406 -1.152344 2.609375 -0.917969 Z M 2.808594 -0.917969 C 2.726562 -1.035156 2.960938 -1.152344 3.042969 -1.222656 C 2.992188 -1.070312 2.84375 -1.070312 2.808594 -0.917969 Z M 1.386719 -0.785156 C 1.554688 -0.917969 1.621094 -1.105469 1.824219 -1.1875 C 1.671875 -1.035156 1.621094 -0.835938 1.386719 -0.785156 Z M 7.34375 -0.871094 C 7.375 -1.035156 7.542969 -1.035156 7.578125 -1.1875 C 7.660156 -1.070312 7.460938 -0.917969 7.34375 -0.871094 Z M 1.671875 -0.550781 C 1.621094 -0.71875 2.023438 -1.035156 2.140625 -1.070312 C 1.972656 -0.871094 1.789062 -0.753906 1.671875 -0.550781 Z M 7.492188 -0.753906 C 7.425781 -0.871094 7.609375 -1.035156 7.726562 -1.070312 C 7.695312 -0.917969 7.542969 -0.917969 7.492188 -0.753906 Z M 6.40625 -0.753906 C 6.472656 -0.871094 6.554688 -0.988281 6.722656 -1.035156 C 6.605469 -0.917969 6.554688 -0.785156 6.40625 -0.753906 Z M 7.660156 -0.871094 C 7.777344 -0.835938 7.726562 -0.953125 7.777344 -0.988281 C 7.894531 -0.917969 7.695312 -0.835938 7.695312 -0.753906 C 7.660156 -0.753906 7.660156 -0.753906 7.660156 -0.785156 C 7.660156 -0.835938 7.660156 -0.835938 7.660156 -0.871094 Z M 7.023438 -0.753906 C 7.074219 -0.835938 7.109375 -0.917969 7.226562 -0.953125 C 7.191406 -0.835938 7.109375 -0.785156 7.023438 -0.753906 Z M 2.257812 -0.601562 C 2.292969 -0.753906 2.410156 -0.835938 2.527344 -0.917969 C 2.492188 -0.753906 2.375 -0.667969 2.257812 -0.601562 Z M 2.757812 -0.71875 C 2.757812 -0.835938 2.84375 -0.871094 2.960938 -0.917969 C 2.925781 -0.785156 2.84375 -0.753906 2.757812 -0.71875 Z M 2.925781 -0.601562 C 2.84375 -0.71875 3.042969 -0.835938 3.160156 -0.917969 C 3.109375 -0.753906 2.960938 -0.753906 2.925781 -0.601562 Z M 0.804688 -9.984375 C 1.152344 -10.417969 1.589844 -10.769531 1.941406 -11.238281 C 1.855469 -11.324219 1.738281 -11.054688 1.707031 -11.289062 C 1.386719 -10.886719 0.6875 -10.535156 0.804688 -9.984375 Z M 1.503906 -10.9375 C 1.320312 -10.652344 1.085938 -10.386719 0.804688 -10.183594 C 1.003906 -10.453125 1.269531 -10.703125 1.503906 -10.9375 Z M 1.589844 -10.9375 C 1.386719 -11.003906 1.671875 -11.054688 1.671875 -11.171875 C 1.789062 -11.089844 1.589844 -11.003906 1.589844 -10.9375 Z M 8.246094 -0.785156 C 8.277344 -0.667969 8.160156 -0.71875 8.160156 -0.636719 C 8.246094 -0.636719 8.3125 -0.636719 8.3125 -0.753906 C 8.277344 -0.785156 8.195312 -0.835938 8.160156 -0.871094 C 8.078125 -0.785156 8.042969 -0.71875 7.960938 -0.636719 C 8.128906 -0.636719 8.128906 -0.753906 8.246094 -0.785156 Z M 1.121094 -11.238281 C 0.96875 -11.171875 0.734375 -10.972656 0.769531 -10.820312 C 0.851562 -10.972656 1.035156 -11.054688 1.121094 -11.238281 Z M -0.167969 -2.125 C -0.285156 -2.207031 -0.519531 -1.855469 -0.285156 -1.921875 C -0.367188 -1.855469 -0.402344 -1.738281 -0.453125 -1.65625 C -0.285156 -1.738281 -0.21875 -1.890625 -0.101562 -2.007812 C -0.167969 -2.125 -0.21875 -1.855469 -0.285156 -2.007812 C -0.285156 -2.089844 -0.167969 -2.039062 -0.167969 -2.125 Z M -0.132812 -1.222656 C -0.25 -1.070312 -0.402344 -0.953125 -0.484375 -0.785156 C -0.335938 -0.71875 -0.367188 -0.917969 -0.25 -0.917969 C -0.285156 -0.785156 -0.519531 -0.667969 -0.453125 -0.550781 C -0.335938 -0.636719 -0.285156 -0.785156 -0.132812 -0.835938 C -0.167969 -0.636719 -0.519531 -0.519531 -0.453125 -0.367188 C -0.335938 -0.402344 -0.285156 -0.550781 -0.167969 -0.636719 C -0.167969 -0.601562 -0.167969 -0.601562 -0.132812 -0.601562 C -0.21875 -0.519531 -0.25 -0.433594 -0.335938 -0.367188 C 0.015625 -0.402344 -0.132812 -0.835938 -0.132812 -1.035156 C -0.0507812 -0.917969 -0.25 -0.917969 -0.25 -0.988281 C -0.21875 -1.035156 -0.015625 -1.152344 -0.132812 -1.222656 Z M -0.132812 -1.222656 "/></g></g></g><g fill="#ffffff" fill-opacity="1"><g transform="translate(82.87839, 25.371243)"><g><path d="M 2.792969 -14.050781 C 2.792969 -13.949219 2.84375 -13.949219 2.910156 -13.949219 C 2.945312 -14.050781 2.875 -14.050781 2.792969 -14.050781 Z M 2.945312 -12.695312 C 2.875 -12.628906 2.875 -12.460938 2.976562 -12.425781 C 2.976562 -12.527344 3.078125 -12.660156 2.945312 -12.695312 Z M 9.75 -11.523438 C 9.015625 -11.589844 7.976562 -11.65625 7.226562 -11.589844 C 6.808594 -11.722656 6.371094 -11.757812 5.886719 -11.65625 C 5.738281 -11.792969 5.351562 -11.792969 5.101562 -11.691406 C 4.132812 -11.808594 2.960938 -11.839844 1.941406 -11.792969 C 1.65625 -11.941406 1.121094 -11.808594 0.835938 -11.839844 C 0.804688 -11.839844 0.804688 -11.808594 0.804688 -11.792969 C 0.804688 -10.871094 1.003906 -9.601562 0.9375 -8.714844 C 0.902344 -8.128906 1.222656 -7.578125 1.1875 -7.023438 C 1.1875 -6.605469 1.019531 -6.171875 1.019531 -5.785156 C 1.019531 -5.71875 1.085938 -5.71875 1.085938 -5.6875 C 1.085938 -5.652344 1.003906 -5.601562 1.003906 -5.570312 C 0.96875 -5.335938 1.019531 -5.085938 1.019531 -4.867188 C 1.019531 -4.046875 1.003906 -3.261719 0.96875 -2.726562 C 0.96875 -2.191406 0.96875 -1.738281 0.96875 -1.203125 C 0.96875 -0.667969 0.9375 -0.0664062 1.085938 -0.0351562 C 0.804688 0.183594 2.476562 0.152344 2.609375 0.152344 C 5.320312 0.285156 7.910156 0.367188 10.21875 0.535156 C 10.21875 0.25 10.183594 0 10.085938 -0.234375 C 10.085938 -0.484375 10.117188 -0.851562 9.933594 -1.054688 C 10.035156 -1.839844 9.648438 -2.757812 9.71875 -3.578125 C 9.902344 -3.578125 9.96875 -3.664062 10.035156 -3.730469 C 9.902344 -4.179688 10.117188 -4.902344 9.867188 -5.152344 C 9.933594 -5.152344 10 -5.152344 9.96875 -5.21875 C 9.933594 -5.570312 9.96875 -5.820312 9.96875 -6.039062 C 9.96875 -6.605469 9.933594 -7.273438 9.902344 -7.859375 C 9.902344 -8.027344 9.867188 -8.414062 9.800781 -8.378906 C 9.902344 -9.316406 9.75 -10.335938 9.75 -11.523438 Z M 7.308594 -8.996094 C 7.308594 -8.980469 7.273438 -8.980469 7.273438 -8.996094 C 7.242188 -8.949219 7.410156 -8.78125 7.507812 -8.746094 C 7.761719 -8.246094 7.945312 -7.960938 7.945312 -7.292969 C 7.476562 -7.242188 7.160156 -7.359375 6.625 -7.324219 C 6.421875 -7.996094 6.085938 -8.429688 5.386719 -8.628906 C 5.386719 -8.460938 5.234375 -8.628906 5.101562 -8.664062 C 5.132812 -8.53125 4.96875 -8.664062 4.917969 -8.664062 C 4.949219 -8.664062 4.667969 -8.496094 4.597656 -8.496094 C 4.53125 -8.496094 4.382812 -8.5625 4.28125 -8.460938 C 4.179688 -8.378906 3.964844 -8.246094 3.847656 -8.09375 C 3.8125 -8.027344 3.863281 -7.925781 3.714844 -7.925781 C 3.714844 -7.84375 3.8125 -7.859375 3.78125 -7.742188 C 3.746094 -7.8125 3.714844 -7.710938 3.679688 -7.777344 C 3.496094 -7.425781 3.277344 -7.023438 3.363281 -6.507812 C 3.328125 -6.539062 3.328125 -6.507812 3.277344 -6.507812 C 3.292969 -6.039062 3.292969 -5.4375 3.527344 -4.933594 C 3.613281 -4.714844 3.898438 -4.296875 4.097656 -4.199219 C 4.148438 -4.179688 4.214844 -4.230469 4.25 -4.199219 C 4.316406 -4.179688 4.25 -4.082031 4.414062 -4.148438 C 4.433594 -4.113281 4.433594 -4.082031 4.433594 -4.046875 C 4.714844 -4.082031 5.066406 -3.863281 5.320312 -4.046875 C 5.484375 -3.980469 5.820312 -4.113281 5.804688 -4.230469 C 6.203125 -4.398438 6.421875 -5.035156 6.554688 -5.46875 C 6.941406 -5.335938 7.375 -5.4375 7.878906 -5.335938 C 7.878906 -5.085938 7.8125 -4.765625 7.660156 -4.550781 C 7.660156 -4.480469 7.761719 -4.515625 7.726562 -4.433594 C 7.625 -4.398438 7.507812 -4.179688 7.527344 -4.113281 C 7.476562 -4.046875 7.34375 -4.046875 7.410156 -3.914062 C 7.34375 -3.914062 7.34375 -3.898438 7.273438 -3.898438 C 7.242188 -3.480469 6.554688 -3.226562 6.421875 -3.042969 C 6.339844 -3.011719 6.371094 -3.078125 6.273438 -3.078125 C 6.171875 -3.042969 6.238281 -3.011719 6.238281 -2.945312 C 6.105469 -2.945312 5.886719 -2.910156 5.855469 -2.808594 C 5.703125 -2.910156 5.570312 -2.625 5.453125 -2.808594 C 5.035156 -2.625 4.699219 -2.808594 4.179688 -2.808594 C 4.179688 -2.84375 4.179688 -2.875 4.179688 -2.910156 C 3.964844 -2.808594 3.929688 -3.011719 3.746094 -2.945312 C 3.8125 -2.976562 3.8125 -3.078125 3.714844 -3.078125 C 3.679688 -3.078125 3.644531 -3.042969 3.644531 -3.011719 C 3.496094 -3.128906 3.328125 -3.226562 3.179688 -3.378906 C 2.992188 -3.378906 2.441406 -3.945312 2.292969 -4.230469 C 2.074219 -4.648438 2.039062 -5.117188 1.855469 -5.601562 C 1.789062 -6.574219 1.972656 -7.425781 2.324219 -8.3125 C 2.507812 -8.460938 2.675781 -8.664062 2.757812 -8.914062 C 2.960938 -8.949219 3.042969 -9.066406 3.078125 -9.230469 C 3.179688 -9.164062 3.292969 -9.265625 3.277344 -9.382812 C 3.527344 -9.417969 3.8125 -9.601562 3.996094 -9.734375 C 4.148438 -9.667969 4.316406 -9.765625 4.433594 -9.835938 C 4.75 -9.851562 5.101562 -9.800781 5.320312 -9.917969 C 5.886719 -9.734375 6.390625 -9.601562 6.90625 -9.347656 C 6.992188 -9.164062 7.125 -9.066406 7.308594 -8.996094 Z M 6.320312 -13.949219 C 6.421875 -13.914062 6.507812 -13.765625 6.574219 -13.914062 C 6.472656 -13.882812 6.289062 -14.050781 6.320312 -13.949219 Z M 6.320312 -13.949219 "/></g></g></g><g fill="#ffffff" fill-opacity="1"><g transform="translate(95.037427, 25.371243)"><g><path d="M 5.21875 -5.183594 C 5.285156 -5.988281 4.683594 -6.839844 3.828125 -6.707031 C 2.84375 -6.691406 2.492188 -6.019531 2.390625 -5.101562 C 3.160156 -5.117188 4.464844 -5.152344 5.21875 -5.183594 Z M 5.785156 -15.453125 C 5.855469 -15.320312 5.753906 -14.851562 5.886719 -14.851562 C 5.855469 -14.953125 5.921875 -15.035156 5.855469 -15.167969 C 5.855469 -15.285156 5.953125 -15.421875 5.785156 -15.453125 Z M 5.855469 -14.601562 C 5.855469 -13.898438 5.953125 -13.328125 5.953125 -12.628906 C 4.230469 -12.59375 2.808594 -12.492188 1.1875 -12.492188 C 0.835938 -8.996094 1.019531 -5 0.769531 -1.121094 C 2.390625 -1.121094 3.980469 -1.121094 5.570312 -1.121094 C 6.105469 -1.121094 6.625 -1.054688 7.125 -1.222656 C 6.625 -5.601562 6.273438 -10.117188 5.855469 -14.601562 Z M 6.105469 -4.480469 C 4.75 -4.480469 3.5625 -4.398438 2.390625 -4.433594 C 2.425781 -3.914062 2.527344 -3.378906 2.925781 -2.992188 C 3.628906 -2.359375 4.832031 -2.574219 5.785156 -2.875 C 5.855469 -2.640625 5.886719 -2.359375 5.988281 -2.242188 C 5.753906 -2.105469 5.753906 -2.105469 5.503906 -2.074219 C 4.363281 -1.605469 2.742188 -1.722656 1.972656 -2.710938 C 1.253906 -3.597656 1.253906 -5.285156 1.855469 -6.304688 C 2.574219 -7.542969 4.582031 -7.859375 5.535156 -6.839844 C 6.019531 -6.339844 6.136719 -5.601562 6.136719 -5 C 6.136719 -4.96875 6.304688 -4.648438 6.105469 -4.480469 Z M 6.105469 -4.480469 "/></g></g></g><g fill="#000000" fill-opacity="1"><g transform="translate(110.329683, 24.395622)"><g><path d="M 11.359375 1.3125 L 11.203125 -2.859375 L 10.84375 -3.296875 L 11.203125 -4.265625 L 11.203125 -12.21875 L 10.328125 -12.28125 L 8.03125 -12.28125 L 7.359375 -12.0625 L 6.765625 -12.0625 L 5.9375 -12.375 L 0.140625 -12.28125 L 0.140625 -9.171875 L 0.453125 -8.71875 L 0.140625 -8.203125 L 0.140625 1.3125 L 3.5625 1.234375 Z M 1.75 -8.875 L 1.859375 -8.34375 L 1.984375 -8.0625 L 1.75 -7.890625 L 1.5 -8.140625 Z M 2.46875 -1.953125 L 2.515625 -3.71875 L 2.578125 -6.828125 L 2.796875 -9.046875 L 3.125 -9.90625 L 5.03125 -9.859375 L 7.078125 -10.125 L 8.609375 -10.0625 L 8.8125 -9.671875 L 8.9375 -8.65625 L 9.265625 -7.03125 L 9.0625 -4.5625 L 9.265625 -1.140625 L 7.734375 -1.34375 L 7.890625 -3.765625 L 7.078125 -3.828125 L 5.40625 -3.5 L 3.78125 -3.453125 L 3.984375 -2.578125 L 3.921875 -1.0625 L 2.390625 -1 Z M 5.890625 -4.953125 L 7.359375 -5.171875 L 7.671875 -7.53125 L 7.546875 -8.734375 L 6.484375 -9.203125 L 4.859375 -9.125 L 4.0625 -8.984375 L 4.09375 -8.046875 L 3.828125 -6.875 L 3.78125 -5.453125 L 3.78125 -5.015625 Z M 4.953125 -8.453125 L 5.015625 -7.46875 L 5.09375 -7.328125 L 5.40625 -7.03125 L 5.046875 -6.71875 L 4.6875 -7.265625 L 4.59375 -8.28125 Z M 10.34375 -3.796875 L 10.640625 -2.421875 L 10.765625 -1.53125 L 10.34375 -1.40625 L 10.328125 -1.96875 L 10.328125 -2.671875 L 10.15625 -3.75 Z M 10.34375 -3.796875 "/></g></g></g><g fill="#000000" fill-opacity="1"><g transform="translate(121.538013, 24.395622)"><g><path d="M 8.03125 1.3125 L 7.875 -2.859375 L 7.484375 -3.296875 L 7.875 -4.265625 L 7.875 -12.21875 L 6.96875 -12.28125 L 4.59375 -12.28125 L 3.921875 -12.0625 L 3.328125 -12.0625 L 2.515625 -12.375 L 0.140625 -12.28125 L 0.140625 -9.171875 L 0.453125 -8.71875 L 0.140625 -8.203125 L 0.140625 1.3125 L 3.5625 1.234375 Z M 0.765625 -2.421875 L 1.21875 -2.484375 L 1.15625 -2.015625 L 1.046875 -1.5 L 1.046875 -0.640625 L 0.8125 -0.625 L 0.734375 -1.734375 Z M 1.703125 -9.84375 L 3.484375 -9.953125 L 3.359375 -6.796875 L 3.421875 -4.859375 L 2.984375 -4.421875 L 2.90625 -3.265625 L 2.984375 -2.484375 L 3.421875 -2.34375 L 5.421875 -2.421875 L 7.125 -2.609375 L 7.28125 -1.15625 L 4.609375 -1.15625 L 1.84375 -1.03125 L 1.703125 -3 Z M 4.09375 -9.75 L 4.609375 -9.984375 L 4.421875 -9.515625 L 4.34375 -8.890625 L 3.953125 -9.203125 Z M 5.390625 -8.21875 L 5.65625 -9.25 L 5.78125 -10 L 6.078125 -10.1875 L 6.203125 -9.375 L 5.265625 -7.328125 L 4.859375 -7.421875 Z M 5.390625 -8.21875 "/></g></g></g><g fill="#000000" fill-opacity="1"><g transform="translate(129.565198, 24.395622)"><g><path d="M 8.03125 1.3125 L 7.875 -2.859375 L 7.484375 -3.296875 L 7.875 -4.265625 L 7.875 -12.21875 L 6.96875 -12.28125 L 4.59375 -12.28125 L 3.921875 -12.0625 L 3.328125 -12.0625 L 2.515625 -12.375 L 0.140625 -12.28125 L 0.140625 -9.171875 L 0.453125 -8.71875 L 0.140625 -8.203125 L 0.140625 1.3125 L 3.5625 1.234375 Z M 0.765625 -2.421875 L 1.21875 -2.484375 L 1.15625 -2.015625 L 1.046875 -1.5 L 1.046875 -0.640625 L 0.8125 -0.625 L 0.734375 -1.734375 Z M 1.703125 -9.84375 L 3.484375 -9.953125 L 3.359375 -6.796875 L 3.421875 -4.859375 L 2.984375 -4.421875 L 2.90625 -3.265625 L 2.984375 -2.484375 L 3.421875 -2.34375 L 5.421875 -2.421875 L 7.125 -2.609375 L 7.28125 -1.15625 L 4.609375 -1.15625 L 1.84375 -1.03125 L 1.703125 -3 Z M 4.09375 -9.75 L 4.609375 -9.984375 L 4.421875 -9.515625 L 4.34375 -8.890625 L 3.953125 -9.203125 Z M 5.390625 -8.21875 L 5.65625 -9.25 L 5.78125 -10 L 6.078125 -10.1875 L 6.203125 -9.375 L 5.265625 -7.328125 L 4.859375 -7.421875 Z M 5.390625 -8.21875 "/></g></g></g></g></g></g></svg>