<svg xmlns="http://www.w3.org/2000/svg" xmlns:xlink="http://www.w3.org/1999/xlink" width="200" zoomAndPan="magnify" viewBox="0 0 150 37.5" height="50" preserveAspectRatio="xMidYMid meet" version="1.0"><defs><g/><clipPath id="f35ed66d33"><path d="M 7.816406 0 L 142.183594 0 L 142.183594 37.007812 L 7.816406 37.007812 Z M 7.816406 0 " clip-rule="nonzero"/></clipPath><clipPath id="f4e9431afa"><path d="M 11.445312 3.476562 L 108.339844 3.476562 L 108.339844 33.527344 L 11.445312 33.527344 Z M 11.445312 3.476562 " clip-rule="nonzero"/></clipPath><clipPath id="5981837a14"><path d="M 0.445312 0.476562 L 97.339844 0.476562 L 97.339844 30.527344 L 0.445312 30.527344 Z M 0.445312 0.476562 " clip-rule="nonzero"/></clipPath><clipPath id="acb1d39706"><rect x="0" width="98" y="0" height="31"/></clipPath><clipPath id="82dcf9a1fa"><path d="M 0.355469 4 L 12 4 L 12 18 L 0.355469 18 Z M 0.355469 4 " clip-rule="nonzero"/></clipPath><clipPath id="b36b579293"><rect x="0" width="29" y="0" height="22"/></clipPath></defs><g clip-path="url(#f35ed66d33)"><path stroke-linecap="butt" transform="matrix(0.740132, 0, 0, 0.740132, 7.814956, 0.000207533)" fill="none" stroke-linejoin="miter" d="M 0.00195894 -0.000280401 L 181.546967 -0.000280401 L 181.546967 50.001388 L 0.00195894 50.001388 Z M 0.00195894 -0.000280401 " stroke="#ffffff" stroke-width="2" stroke-opacity="1" stroke-miterlimit="4"/></g><g clip-path="url(#f4e9431afa)"><g transform="matrix(1, 0, 0, 1, 11, 3)"><g clip-path="url(#acb1d39706)"><g clip-path="url(#5981837a14)"><path fill="#ffffff" d="M 0.445312 0.476562 L 97.289062 0.476562 L 97.289062 30.527344 L 0.445312 30.527344 Z M 0.445312 0.476562 " fill-opacity="1" fill-rule="nonzero"/></g></g></g></g><g fill="#000000" fill-opacity="1"><g transform="translate(16.417295, 25.025288)"><g><path d="M 2.792969 -14.042969 C 2.792969 -13.945312 2.84375 -13.945312 2.910156 -13.945312 C 2.941406 -14.042969 2.875 -14.042969 2.792969 -14.042969 Z M 2.941406 -12.691406 C 2.875 -12.625 2.875 -12.457031 2.976562 -12.421875 C 2.976562 -12.523438 3.078125 -12.65625 2.941406 -12.691406 Z M 9.746094 -11.519531 C 9.011719 -11.585938 7.976562 -11.652344 7.222656 -11.585938 C 6.804688 -11.71875 6.371094 -11.753906 5.886719 -11.652344 C 5.734375 -11.789062 5.351562 -11.789062 5.097656 -11.6875 C 4.128906 -11.804688 2.960938 -11.835938 1.941406 -11.789062 C 1.65625 -11.9375 1.121094 -11.804688 0.835938 -11.835938 C 0.800781 -11.835938 0.800781 -11.804688 0.800781 -11.789062 C 0.800781 -10.867188 1.003906 -9.597656 0.9375 -8.710938 C 0.902344 -8.125 1.21875 -7.574219 1.1875 -7.023438 C 1.1875 -6.605469 1.019531 -6.167969 1.019531 -5.785156 C 1.019531 -5.71875 1.085938 -5.71875 1.085938 -5.683594 C 1.085938 -5.652344 1.003906 -5.601562 1.003906 -5.566406 C 0.96875 -5.332031 1.019531 -5.082031 1.019531 -4.867188 C 1.019531 -4.046875 1.003906 -3.261719 0.96875 -2.726562 C 0.96875 -2.191406 0.96875 -1.738281 0.96875 -1.203125 C 0.96875 -0.667969 0.9375 -0.0664062 1.085938 -0.0351562 C 0.800781 0.183594 2.472656 0.152344 2.609375 0.152344 C 5.316406 0.285156 7.910156 0.367188 10.214844 0.535156 C 10.214844 0.25 10.183594 0 10.082031 -0.234375 C 10.082031 -0.484375 10.117188 -0.851562 9.929688 -1.054688 C 10.03125 -1.839844 9.648438 -2.757812 9.714844 -3.578125 C 9.898438 -3.578125 9.964844 -3.660156 10.03125 -3.726562 C 9.898438 -4.179688 10.117188 -4.898438 9.863281 -5.148438 C 9.929688 -5.148438 10 -5.148438 9.964844 -5.214844 C 9.929688 -5.566406 9.964844 -5.820312 9.964844 -6.035156 C 9.964844 -6.605469 9.929688 -7.273438 9.898438 -7.859375 C 9.898438 -8.027344 9.863281 -8.410156 9.796875 -8.375 C 9.898438 -9.3125 9.746094 -10.332031 9.746094 -11.519531 Z M 7.304688 -8.996094 C 7.304688 -8.976562 7.273438 -8.976562 7.273438 -8.996094 C 7.238281 -8.945312 7.40625 -8.777344 7.507812 -8.746094 C 7.757812 -8.242188 7.941406 -7.957031 7.941406 -7.289062 C 7.472656 -7.238281 7.15625 -7.355469 6.621094 -7.324219 C 6.421875 -7.992188 6.085938 -8.425781 5.382812 -8.628906 C 5.382812 -8.460938 5.234375 -8.628906 5.097656 -8.660156 C 5.132812 -8.527344 4.964844 -8.660156 4.914062 -8.660156 C 4.949219 -8.660156 4.664062 -8.492188 4.597656 -8.492188 C 4.53125 -8.492188 4.378906 -8.558594 4.28125 -8.460938 C 4.179688 -8.375 3.960938 -8.242188 3.84375 -8.09375 C 3.8125 -8.027344 3.863281 -7.925781 3.710938 -7.925781 C 3.710938 -7.839844 3.8125 -7.859375 3.777344 -7.742188 C 3.746094 -7.808594 3.710938 -7.707031 3.679688 -7.773438 C 3.496094 -7.421875 3.277344 -7.023438 3.359375 -6.503906 C 3.328125 -6.539062 3.328125 -6.503906 3.277344 -6.503906 C 3.292969 -6.035156 3.292969 -5.433594 3.527344 -4.933594 C 3.613281 -4.714844 3.894531 -4.296875 4.097656 -4.195312 C 4.144531 -4.179688 4.214844 -4.230469 4.246094 -4.195312 C 4.3125 -4.179688 4.246094 -4.078125 4.414062 -4.144531 C 4.429688 -4.113281 4.429688 -4.078125 4.429688 -4.046875 C 4.714844 -4.078125 5.066406 -3.863281 5.316406 -4.046875 C 5.484375 -3.980469 5.820312 -4.113281 5.800781 -4.230469 C 6.203125 -4.398438 6.421875 -5.03125 6.554688 -5.46875 C 6.9375 -5.332031 7.375 -5.433594 7.875 -5.332031 C 7.875 -5.082031 7.808594 -4.765625 7.65625 -4.546875 C 7.65625 -4.480469 7.757812 -4.515625 7.722656 -4.429688 C 7.625 -4.398438 7.507812 -4.179688 7.523438 -4.113281 C 7.472656 -4.046875 7.339844 -4.046875 7.40625 -3.914062 C 7.339844 -3.914062 7.339844 -3.894531 7.273438 -3.894531 C 7.238281 -3.476562 6.554688 -3.226562 6.421875 -3.042969 C 6.335938 -3.007812 6.371094 -3.078125 6.269531 -3.078125 C 6.167969 -3.042969 6.238281 -3.007812 6.238281 -2.941406 C 6.101562 -2.941406 5.886719 -2.910156 5.851562 -2.808594 C 5.703125 -2.910156 5.566406 -2.625 5.449219 -2.808594 C 5.03125 -2.625 4.699219 -2.808594 4.179688 -2.808594 C 4.179688 -2.84375 4.179688 -2.875 4.179688 -2.910156 C 3.960938 -2.808594 3.929688 -3.007812 3.746094 -2.941406 C 3.8125 -2.976562 3.8125 -3.078125 3.710938 -3.078125 C 3.679688 -3.078125 3.644531 -3.042969 3.644531 -3.007812 C 3.496094 -3.125 3.328125 -3.226562 3.175781 -3.378906 C 2.992188 -3.378906 2.441406 -3.945312 2.289062 -4.230469 C 2.074219 -4.648438 2.039062 -5.117188 1.855469 -5.601562 C 1.789062 -6.570312 1.972656 -7.421875 2.324219 -8.308594 C 2.507812 -8.460938 2.675781 -8.660156 2.757812 -8.910156 C 2.960938 -8.945312 3.042969 -9.0625 3.078125 -9.230469 C 3.175781 -9.164062 3.292969 -9.261719 3.277344 -9.378906 C 3.527344 -9.414062 3.8125 -9.597656 3.996094 -9.730469 C 4.144531 -9.664062 4.3125 -9.765625 4.429688 -9.832031 C 4.75 -9.847656 5.097656 -9.796875 5.316406 -9.914062 C 5.886719 -9.730469 6.386719 -9.597656 6.90625 -9.347656 C 6.988281 -9.164062 7.121094 -9.0625 7.304688 -8.996094 Z M 6.320312 -13.945312 C 6.421875 -13.910156 6.503906 -13.761719 6.570312 -13.910156 C 6.46875 -13.878906 6.285156 -14.042969 6.320312 -13.945312 Z M 6.320312 -13.945312 "/></g></g></g><g fill="#000000" fill-opacity="1"><g transform="translate(28.56717, 25.025288)"><g><path d="M 10.5 -14.628906 C 10.550781 -13.996094 10.550781 -13.308594 10.699219 -12.855469 C 10.699219 -13.507812 10.699219 -14.195312 10.5 -14.628906 Z M 5.097656 -11.234375 C 4.0625 -11.136719 3.125 -10.851562 2.472656 -10.398438 C 1.503906 -9.664062 0.71875 -8.476562 0.617188 -6.855469 C 0.46875 -4.832031 1.203125 -2.425781 2.875 -1.4375 C 4.648438 -0.367188 7.457031 -0.652344 8.878906 -2.222656 C 9.5625 -3.027344 10.015625 -4.144531 10.066406 -5.382812 C 10.265625 -8.878906 8.445312 -11.535156 5.097656 -11.234375 Z M 2.289062 -9.613281 C 2.925781 -10.300781 4.011719 -10.75 5.132812 -10.800781 C 8.242188 -10.984375 9.8125 -8.476562 9.511719 -5.082031 C 9.378906 -3.710938 8.675781 -2.472656 7.757812 -1.890625 C 6.421875 -1.003906 4.113281 -0.953125 2.777344 -2.039062 C 1.003906 -3.460938 0.519531 -7.691406 2.289062 -9.613281 Z M 10.699219 -11.285156 C 10.601562 -11.183594 10.316406 -11.285156 10.164062 -11.234375 C 10.164062 -11.085938 10.164062 -10.984375 10.164062 -10.851562 C 10.398438 -10.851562 10.601562 -10.851562 10.800781 -10.902344 C 10.800781 -11.035156 10.75 -11.183594 10.699219 -11.285156 Z M 11.203125 -1.152344 C 11.152344 -1.335938 11.285156 -1.789062 11.101562 -1.839844 C 11 -1.738281 10.851562 -1.738281 10.648438 -1.738281 C 10.648438 -1.589844 10.601562 -1.386719 10.699219 -1.335938 C 10.953125 -1.4375 11.203125 -1.386719 11.203125 -1.152344 Z M 1.085938 -12.691406 C 1.085938 -12.488281 0.988281 -12.1875 1.171875 -12.1875 C 1.121094 -12.339844 1.121094 -12.742188 1.085938 -12.691406 Z M 1.121094 -12.15625 C 1.085938 -11.90625 1.121094 -11.402344 1.171875 -11.117188 C 1.171875 -11.351562 1.21875 -11.855469 1.121094 -12.15625 Z M 1.121094 -12.15625 "/></g></g></g><g fill="#000000" fill-opacity="1"><g transform="translate(41.118101, 25.025288)"><g><path d="M 10.433594 -2.257812 C 10.433594 -2.140625 10.382812 -1.722656 10.464844 -1.804688 C 10.464844 -1.921875 10.5 -2.339844 10.433594 -2.257812 Z M 10.347656 -0.167969 C 10.300781 0.0507812 10.433594 0.453125 10.300781 0.652344 C 10.433594 0.535156 10.433594 -0.0351562 10.347656 -0.167969 Z M 10.300781 0.785156 C 10.300781 1.40625 10.265625 2.089844 10.214844 2.875 C 10.183594 2.992188 10.265625 3.242188 10.265625 2.992188 C 10.265625 2.875 10.265625 2.707031 10.265625 2.589844 C 10.300781 1.972656 10.382812 1.4375 10.300781 0.785156 Z M 10.183594 3.242188 C 10.132812 3.496094 10.214844 3.578125 10.214844 3.527344 C 10.265625 3.496094 10.214844 3.042969 10.183594 3.242188 Z M 0.703125 -2.625 C 0.769531 -2.339844 0.453125 -2.054688 0.453125 -1.722656 C 0.851562 -1.6875 1.4375 -1.554688 2.007812 -1.753906 C 2.125 -2.089844 2.207031 -2.589844 2.507812 -2.824219 C 2.875 -3.980469 3.277344 -5 3.945312 -6.238281 C 4.179688 -4.796875 4.429688 -3.042969 4.597656 -1.4375 C 4.882812 -1.4375 4.914062 -1.386719 5.214844 -1.4375 C 6.152344 -3.078125 7.054688 -4.679688 8.007812 -6.152344 C 8.042969 -4.230469 7.839844 -3.195312 8.007812 -1.386719 C 8.410156 -1.472656 8.945312 -1.386719 9.480469 -1.386719 C 9.53125 -4.0625 9.480469 -7.273438 9.5625 -10.214844 C 9.144531 -10.300781 8.945312 -10.300781 8.628906 -10.265625 C 8.492188 -10.066406 8.375 -9.730469 8.242188 -9.679688 C 7.957031 -8.910156 7.421875 -8.09375 6.972656 -7.421875 C 6.855469 -7.023438 6.519531 -6.402344 6.285156 -6.152344 C 6.203125 -5.75 5.835938 -5.300781 5.585938 -4.933594 C 5.5 -5.535156 5.367188 -5.984375 5.449219 -6.4375 C 5.167969 -7.640625 5.050781 -9.113281 4.914062 -10.382812 C 4.597656 -10.433594 4.179688 -10.464844 3.980469 -10.433594 C 2.792969 -7.589844 1.890625 -5.25 0.734375 -2.625 C 0.734375 -2.660156 0.703125 -2.660156 0.703125 -2.625 Z M 0.703125 -2.625 "/></g></g></g><g fill="#000000" fill-opacity="1"><g transform="translate(52.766647, 25.025288)"><g><path d="M 10.433594 -2.257812 C 10.433594 -2.140625 10.382812 -1.722656 10.464844 -1.804688 C 10.464844 -1.921875 10.5 -2.339844 10.433594 -2.257812 Z M 10.347656 -0.167969 C 10.300781 0.0507812 10.433594 0.453125 10.300781 0.652344 C 10.433594 0.535156 10.433594 -0.0351562 10.347656 -0.167969 Z M 10.300781 0.785156 C 10.300781 1.40625 10.265625 2.089844 10.214844 2.875 C 10.183594 2.992188 10.265625 3.242188 10.265625 2.992188 C 10.265625 2.875 10.265625 2.707031 10.265625 2.589844 C 10.300781 1.972656 10.382812 1.4375 10.300781 0.785156 Z M 10.183594 3.242188 C 10.132812 3.496094 10.214844 3.578125 10.214844 3.527344 C 10.265625 3.496094 10.214844 3.042969 10.183594 3.242188 Z M 0.703125 -2.625 C 0.769531 -2.339844 0.453125 -2.054688 0.453125 -1.722656 C 0.851562 -1.6875 1.4375 -1.554688 2.007812 -1.753906 C 2.125 -2.089844 2.207031 -2.589844 2.507812 -2.824219 C 2.875 -3.980469 3.277344 -5 3.945312 -6.238281 C 4.179688 -4.796875 4.429688 -3.042969 4.597656 -1.4375 C 4.882812 -1.4375 4.914062 -1.386719 5.214844 -1.4375 C 6.152344 -3.078125 7.054688 -4.679688 8.007812 -6.152344 C 8.042969 -4.230469 7.839844 -3.195312 8.007812 -1.386719 C 8.410156 -1.472656 8.945312 -1.386719 9.480469 -1.386719 C 9.53125 -4.0625 9.480469 -7.273438 9.5625 -10.214844 C 9.144531 -10.300781 8.945312 -10.300781 8.628906 -10.265625 C 8.492188 -10.066406 8.375 -9.730469 8.242188 -9.679688 C 7.957031 -8.910156 7.421875 -8.09375 6.972656 -7.421875 C 6.855469 -7.023438 6.519531 -6.402344 6.285156 -6.152344 C 6.203125 -5.75 5.835938 -5.300781 5.585938 -4.933594 C 5.5 -5.535156 5.367188 -5.984375 5.449219 -6.4375 C 5.167969 -7.640625 5.050781 -9.113281 4.914062 -10.382812 C 4.597656 -10.433594 4.179688 -10.464844 3.980469 -10.433594 C 2.792969 -7.589844 1.890625 -5.25 0.734375 -2.625 C 0.734375 -2.660156 0.703125 -2.660156 0.703125 -2.625 Z M 0.703125 -2.625 "/></g></g></g><g fill="#000000" fill-opacity="1"><g transform="translate(64.415192, 25.025288)"><g><path d="M 5.214844 -5.183594 C 5.285156 -5.984375 4.679688 -6.839844 3.828125 -6.703125 C 2.84375 -6.6875 2.492188 -6.019531 2.390625 -5.097656 C 3.160156 -5.117188 4.464844 -5.148438 5.214844 -5.183594 Z M 5.785156 -15.449219 C 5.851562 -15.316406 5.75 -14.847656 5.886719 -14.847656 C 5.851562 -14.949219 5.917969 -15.03125 5.851562 -15.164062 C 5.851562 -15.28125 5.953125 -15.414062 5.785156 -15.449219 Z M 5.851562 -14.597656 C 5.851562 -13.894531 5.953125 -13.324219 5.953125 -12.625 C 4.230469 -12.589844 2.808594 -12.488281 1.1875 -12.488281 C 0.835938 -8.996094 1.019531 -5 0.769531 -1.121094 C 2.390625 -1.121094 3.980469 -1.121094 5.566406 -1.121094 C 6.101562 -1.121094 6.621094 -1.054688 7.121094 -1.21875 C 6.621094 -5.601562 6.269531 -10.117188 5.851562 -14.597656 Z M 6.101562 -4.480469 C 4.75 -4.480469 3.5625 -4.398438 2.390625 -4.429688 C 2.425781 -3.914062 2.523438 -3.378906 2.925781 -2.992188 C 3.628906 -2.359375 4.832031 -2.574219 5.785156 -2.875 C 5.851562 -2.640625 5.886719 -2.359375 5.984375 -2.242188 C 5.75 -2.105469 5.75 -2.105469 5.5 -2.074219 C 4.363281 -1.605469 2.742188 -1.722656 1.972656 -2.707031 C 1.253906 -3.59375 1.253906 -5.285156 1.855469 -6.304688 C 2.574219 -7.539062 4.582031 -7.859375 5.535156 -6.839844 C 6.019531 -6.335938 6.136719 -5.601562 6.136719 -5 C 6.136719 -4.964844 6.304688 -4.648438 6.101562 -4.480469 Z M 6.101562 -4.480469 "/></g></g></g><g fill="#000000" fill-opacity="1"><g transform="translate(73.356581, 25.025288)"><g><path d="M 9.09375 -12.839844 C 9.144531 -11.753906 9.0625 -10.816406 9.210938 -9.832031 C 9.179688 -10.882812 9.328125 -12.289062 9.09375 -12.839844 Z M 0.734375 -10.617188 C 0.96875 -10.765625 1.152344 -10.96875 1.320312 -11.234375 C 1.085938 -11.085938 0.886719 -10.882812 0.734375 -10.617188 Z M 0.800781 -10.417969 C 0.96875 -10.699219 1.503906 -10.96875 1.4375 -11.234375 C 1.269531 -10.933594 0.800781 -10.734375 0.800781 -10.417969 Z M 6.167969 -10.96875 C 6.121094 -11.085938 6.238281 -11.050781 6.238281 -11.117188 C 6.167969 -11.117188 6.085938 -11.085938 6.050781 -11 C 6.085938 -11 6.085938 -10.96875 6.167969 -10.96875 Z M 9.144531 -9.394531 C 9.179688 -9.394531 9.144531 -9.210938 9.210938 -9.128906 C 9.210938 -9.210938 9.261719 -9.5625 9.144531 -9.394531 Z M 7.574219 -9.246094 C 7.574219 -9.09375 7.375 -9.128906 7.375 -8.929688 C 7.492188 -8.929688 7.722656 -9.210938 7.574219 -9.246094 Z M -0.167969 -1.855469 C -0.25 -1.6875 -0.402344 -1.65625 -0.453125 -1.453125 C -0.335938 -1.503906 -0.015625 -1.773438 -0.167969 -1.855469 Z M -0.167969 -1.65625 C -0.167969 -1.539062 -0.25 -1.453125 -0.367188 -1.453125 C -0.335938 -1.304688 -0.484375 -1.335938 -0.453125 -1.21875 C -0.335938 -1.21875 -0.335938 -1.421875 -0.167969 -1.421875 C -0.21875 -1.21875 -0.402344 -1.21875 -0.453125 -1.035156 C -0.167969 -1.152344 -0.015625 -1.503906 -0.167969 -1.65625 Z M 8.125 -0.988281 C 7.925781 -0.917969 7.890625 -0.753906 7.773438 -0.636719 C 7.957031 -0.667969 8.074219 -0.785156 8.125 -0.988281 Z M 3.078125 -10.734375 C 3.308594 -10.882812 3.460938 -11.085938 3.628906 -11.320312 C 3.34375 -11.203125 3.226562 -10.933594 2.992188 -10.765625 C 3.042969 -11 3.425781 -11.085938 3.34375 -11.320312 C 3.109375 -11.085938 2.925781 -10.851562 2.691406 -10.648438 C 2.726562 -10.96875 3.195312 -11.050781 3.160156 -11.320312 C 2.84375 -11.050781 2.558594 -10.734375 2.289062 -10.449219 C 2.40625 -10.816406 2.875 -11 2.960938 -11.320312 C 2.726562 -11.203125 2.558594 -10.816406 2.375 -10.816406 C 2.523438 -10.96875 2.640625 -11.085938 2.757812 -11.285156 C 2.523438 -11.234375 2.523438 -11.050781 2.375 -10.96875 C 2.375 -11.117188 2.523438 -11.085938 2.523438 -11.285156 C 2.324219 -11.167969 2.257812 -10.96875 2.054688 -10.851562 C 2.089844 -11.050781 2.289062 -11.085938 2.375 -11.285156 C 2.207031 -11.285156 2.207031 -11.085938 2.054688 -11.085938 C 2.054688 -11.203125 2.171875 -11.167969 2.171875 -11.285156 C 1.671875 -10.851562 1.085938 -10.300781 0.800781 -9.796875 C 1.203125 -10.183594 1.589844 -10.648438 2.023438 -11.050781 C 1.671875 -10.5 1.121094 -10.148438 0.769531 -9.597656 C 1.035156 -9.679688 1.121094 -9.949219 1.320312 -10.097656 C 1.203125 -9.746094 0.886719 -9.679688 0.769531 -9.363281 C 1.035156 -9.445312 1.085938 -9.796875 1.355469 -9.863281 C 1.203125 -9.597656 0.886719 -9.480469 0.769531 -9.164062 C 1.121094 -9.363281 1.320312 -9.746094 1.621094 -9.980469 C 1.4375 -9.597656 0.886719 -9.363281 0.851562 -8.976562 C 1.238281 -9.328125 1.554688 -9.796875 1.972656 -10.097656 C 1.671875 -9.597656 1.003906 -9.246094 0.851562 -8.746094 C 1.003906 -8.929688 1.152344 -9.128906 1.355469 -9.246094 C 1.238281 -8.976562 0.800781 -8.8125 0.851562 -8.542969 C 1.085938 -8.777344 1.320312 -9.046875 1.554688 -9.28125 C 1.355469 -8.894531 0.96875 -8.746094 0.800781 -8.34375 C 1.035156 -8.460938 1.152344 -8.695312 1.355469 -8.863281 C 1.238281 -8.492188 0.851562 -8.375 0.800781 -8.109375 C 0.96875 -8.140625 1.003906 -8.34375 1.152344 -8.425781 C 1.085938 -8.191406 0.851562 -8.140625 0.800781 -7.910156 C 0.96875 -7.839844 0.800781 -8.074219 0.96875 -8.027344 C 0.96875 -7.875 0.800781 -7.875 0.800781 -7.722656 C 0.96875 -7.722656 0.917969 -7.875 1.085938 -7.910156 C 1.035156 -7.757812 0.769531 -7.675781 0.886719 -7.523438 C 1.035156 -7.640625 1.121094 -7.839844 1.269531 -7.957031 C 1.238281 -7.640625 0.800781 -7.558594 0.886719 -7.289062 C 0.96875 -7.40625 1.085938 -7.605469 1.203125 -7.558594 C 1.085938 -7.40625 0.886719 -7.324219 0.851562 -7.089844 C 1.003906 -7.171875 1.035156 -7.324219 1.203125 -7.40625 C 1.152344 -7.171875 0.886719 -7.140625 0.851562 -6.90625 C 1.085938 -6.9375 1.085938 -7.207031 1.320312 -7.289062 C 1.203125 -7.054688 0.917969 -6.9375 0.851562 -6.703125 C 1.085938 -6.789062 1.121094 -7.023438 1.320312 -7.089844 C 1.121094 -6.789062 0.851562 -6.621094 0.851562 -6.269531 C 1.035156 -6.304688 1.152344 -6.65625 1.320312 -6.621094 C 1.121094 -6.386719 0.769531 -6.152344 0.917969 -5.835938 C 1.238281 -6.238281 1.589844 -6.539062 1.941406 -6.90625 C 1.621094 -6.421875 1.121094 -6.152344 0.886719 -5.652344 C 1.152344 -5.769531 1.320312 -6.1875 1.554688 -6.238281 C 1.320312 -5.953125 1.035156 -5.769531 0.886719 -5.449219 C 1.238281 -5.652344 1.386719 -6.035156 1.738281 -6.269531 C 1.503906 -5.800781 0.769531 -5.535156 0.96875 -5.015625 C 1.035156 -5.183594 1.238281 -5.25 1.269531 -5.449219 C 1.121094 -5.484375 1.203125 -5.300781 1.085938 -5.332031 C 1.238281 -5.535156 1.4375 -5.886719 1.671875 -5.917969 C 1.554688 -5.769531 1.355469 -5.652344 1.269531 -5.449219 C 1.589844 -5.652344 1.789062 -5.953125 2.054688 -6.1875 C 1.789062 -5.683594 1.121094 -5.332031 0.96875 -4.832031 C 1.386719 -5.300781 1.824219 -5.769531 2.257812 -6.1875 C 1.90625 -5.566406 1.152344 -5.183594 0.96875 -4.582031 C 1.152344 -4.832031 1.320312 -5.066406 1.589844 -5.214844 C 1.386719 -4.898438 1.085938 -4.75 0.917969 -4.398438 C 1.085938 -4.464844 1.121094 -4.632812 1.269531 -4.699219 C 1.238281 -4.464844 0.96875 -4.429688 0.917969 -4.195312 C 1.203125 -4.230469 1.269531 -4.699219 1.503906 -4.664062 C 1.269531 -4.464844 1.152344 -4.230469 0.917969 -4.078125 C 1.003906 -3.929688 0.96875 -3.84375 1.003906 -3.644531 C 0.96875 -3.644531 0.917969 -3.644531 0.917969 -3.578125 C 1.238281 -3.726562 1.472656 -4.164062 1.707031 -4.28125 C 1.503906 -3.929688 1.003906 -3.726562 1.003906 -3.34375 C 1.035156 -3.460938 1.238281 -3.644531 1.320312 -3.613281 C 1.238281 -3.460938 0.886719 -3.34375 1.003906 -3.144531 C 1.035156 -3.226562 1.085938 -3.34375 1.238281 -3.34375 C 1.152344 -3.175781 1.003906 -3.144531 0.96875 -2.941406 C 1.320312 -3.175781 1.589844 -3.726562 1.941406 -3.84375 C 1.589844 -3.496094 1.238281 -3.175781 0.96875 -2.742188 C 1.035156 -2.707031 1.085938 -2.910156 1.152344 -2.792969 C 1.003906 -2.792969 0.917969 -2.390625 1.121094 -2.589844 C 1.085938 -2.507812 1.003906 -2.441406 0.96875 -2.359375 C 1.035156 -2.242188 1.035156 -2.390625 1.152344 -2.390625 C 1.121094 -2.324219 0.917969 -2.207031 1.035156 -2.125 C 1.320312 -2.359375 1.589844 -2.824219 1.855469 -2.910156 C 1.589844 -2.589844 1.238281 -2.390625 1.085938 -2.007812 C 1.355469 -2.15625 1.472656 -2.472656 1.738281 -2.625 C 1.554688 -2.324219 1.320312 -2.125 1.085938 -1.890625 C 1.085938 -1.921875 1.085938 -2.007812 1.003906 -2.007812 C 1.085938 -1.804688 1.035156 -1.855469 1.003906 -1.6875 C 1.121094 -1.621094 1.085938 -1.890625 1.152344 -1.773438 C 1.152344 -1.65625 1.003906 -1.65625 1.003906 -1.503906 C 1.085938 -1.453125 1.121094 -1.65625 1.203125 -1.539062 C 1.121094 -1.539062 1.003906 -1.335938 1.085938 -1.304688 C 1.4375 -1.6875 1.789062 -2.089844 2.171875 -2.441406 C 1.855469 -1.855469 1.085938 -1.570312 1.035156 -0.871094 C 1.121094 -0.835938 1.121094 -1.035156 1.203125 -0.917969 C 1.121094 -0.835938 1.035156 -0.785156 1.035156 -0.667969 C 1.386719 -0.871094 1.554688 -1.269531 1.90625 -1.503906 C 1.707031 -1.101562 1.121094 -0.871094 1.085938 -0.433594 C 1.121094 -0.519531 1.152344 -0.636719 1.320312 -0.636719 C 1.238281 -0.550781 1.203125 -0.484375 1.121094 -0.402344 C 1.386719 -0.433594 1.472656 -0.871094 1.707031 -0.835938 C 1.554688 -0.71875 1.472656 -0.519531 1.320312 -0.402344 C 1.472656 -0.367188 1.472656 -0.519531 1.589844 -0.550781 C 1.589844 -0.519531 1.621094 -0.519531 1.621094 -0.484375 C 1.589844 -0.484375 1.503906 -0.484375 1.503906 -0.433594 C 1.789062 -0.316406 1.90625 -0.917969 2.140625 -0.835938 C 1.972656 -0.71875 1.738281 -0.519531 1.789062 -0.402344 C 1.90625 -0.519531 2.140625 -0.402344 2.207031 -0.601562 C 2.257812 -0.484375 2.140625 -0.519531 2.140625 -0.433594 C 2.324219 -0.433594 2.375 -0.636719 2.523438 -0.71875 C 2.523438 -0.550781 2.40625 -0.550781 2.375 -0.433594 C 2.523438 -0.433594 2.640625 -0.71875 2.726562 -0.667969 C 2.691406 -0.601562 2.609375 -0.519531 2.558594 -0.433594 C 2.726562 -0.433594 2.726562 -0.601562 2.84375 -0.601562 C 2.875 -0.484375 2.726562 -0.550781 2.757812 -0.433594 C 2.960938 -0.433594 3.042969 -0.753906 3.195312 -0.667969 C 3.109375 -0.601562 3.078125 -0.550781 2.992188 -0.484375 C 3.078125 -0.519531 3.195312 -0.484375 3.226562 -0.519531 C 3.160156 -0.667969 3.277344 -0.953125 3.195312 -1.152344 C 3.195312 -1.035156 3.042969 -0.871094 2.960938 -0.988281 C 3.078125 -1.070312 3.195312 -1.1875 3.226562 -1.335938 C 3.109375 -1.386719 3.160156 -1.152344 3.078125 -1.304688 C 3.226562 -1.386719 3.195312 -1.65625 3.160156 -1.773438 C 3.195312 -1.6875 3.078125 -1.570312 3.078125 -1.6875 C 3.195312 -1.804688 3.195312 -2.039062 3.160156 -2.15625 C 3.078125 -2.125 3.078125 -1.972656 2.960938 -1.972656 C 2.992188 -2.039062 2.992188 -2.15625 3.160156 -2.15625 C 3.109375 -2.273438 3.195312 -2.242188 3.195312 -2.359375 C 3.042969 -2.359375 2.960938 -2.039062 2.84375 -2.125 C 2.960938 -2.273438 3.160156 -2.324219 3.195312 -2.558594 C 3.078125 -2.589844 3.078125 -2.390625 3.042969 -2.507812 C 3.109375 -2.589844 3.160156 -2.675781 3.195312 -2.792969 C 3.078125 -2.824219 3.109375 -2.589844 3.042969 -2.742188 C 3.078125 -2.792969 3.195312 -2.941406 3.109375 -2.992188 C 3.042969 -2.910156 2.925781 -2.625 2.808594 -2.742188 C 3.042969 -2.910156 3.195312 -3.109375 3.160156 -3.410156 C 3.042969 -3.460938 3.109375 -3.292969 2.992188 -3.34375 C 3.042969 -3.410156 3.160156 -3.460938 3.160156 -3.613281 C 2.960938 -3.527344 2.875 -3.292969 2.691406 -3.226562 C 2.757812 -3.460938 3.078125 -3.496094 3.160156 -3.8125 C 3.042969 -3.84375 3.078125 -3.613281 2.992188 -3.761719 C 3.277344 -3.929688 2.960938 -4.195312 3.160156 -4.429688 C 2.992188 -4.429688 2.992188 -4.28125 2.875 -4.28125 C 2.925781 -4.398438 3.042969 -4.429688 3.109375 -4.546875 C 2.960938 -5.214844 3.746094 -5.449219 4.011719 -5.953125 C 3.980469 -5.652344 3.511719 -5.417969 3.34375 -5.097656 C 3.511719 -5.132812 3.460938 -5.214844 3.628906 -5.097656 C 3.695312 -5.183594 3.746094 -5.25 3.863281 -5.300781 C 3.863281 -5.183594 3.746094 -5.214844 3.746094 -5.097656 C 3.929688 -5.066406 3.894531 -5.300781 4.046875 -5.300781 C 4.046875 -5.214844 3.929688 -5.214844 3.980469 -5.097656 C 4.164062 -5.097656 4.214844 -5.449219 4.363281 -5.367188 C 4.332031 -5.25 4.164062 -5.25 4.164062 -5.097656 C 4.28125 -5.066406 4.246094 -5.214844 4.398438 -5.214844 C 4.398438 -5.132812 4.332031 -5.132812 4.332031 -5.097656 C 4.5625 -5.132812 4.648438 -5.097656 4.832031 -5.066406 C 5.066406 -5.300781 5.351562 -5.71875 5.617188 -5.835938 C 5.351562 -5.566406 5.117188 -5.332031 4.882812 -5.015625 C 5.117188 -5.015625 5.117188 -5.300781 5.300781 -5.332031 C 5.265625 -5.183594 5.066406 -5.132812 5.03125 -4.984375 C 5.03125 -4.898438 5.183594 -4.949219 5.148438 -4.832031 C 5.300781 -4.78125 5.234375 -4.984375 5.351562 -4.949219 C 5.351562 -4.867188 5.183594 -4.832031 5.265625 -4.75 C 5.351562 -4.699219 5.351562 -4.898438 5.417969 -4.78125 C 5.417969 -4.699219 5.300781 -4.75 5.351562 -4.664062 C 5.5 -4.632812 5.417969 -4.546875 5.46875 -4.464844 C 5.535156 -4.464844 5.585938 -4.699219 5.652344 -4.582031 C 5.585938 -4.515625 5.382812 -4.398438 5.535156 -4.3125 C 5.535156 -4.347656 5.617188 -4.515625 5.652344 -4.398438 C 5.617188 -4.347656 5.46875 -4.230469 5.585938 -4.164062 C 5.703125 -4.230469 5.734375 -4.398438 5.851562 -4.429688 C 5.851562 -4.230469 5.46875 -4.113281 5.652344 -3.996094 C 5.734375 -4.113281 5.820312 -4.28125 5.96875 -4.3125 C 5.617188 -4.046875 5.617188 -3.761719 5.617188 -3.410156 C 5.851562 -3.527344 5.933594 -3.84375 6.203125 -3.929688 C 6.003906 -3.695312 5.769531 -3.496094 5.617188 -3.226562 C 5.886719 -3.292969 6.003906 -3.761719 6.285156 -3.761719 C 6.050781 -3.496094 5.535156 -3.226562 5.703125 -2.792969 C 5.703125 -2.824219 5.734375 -2.875 5.820312 -2.875 C 5.652344 -2.707031 5.652344 -2.558594 5.734375 -2.390625 C 5.734375 -2.472656 5.820312 -2.507812 5.886719 -2.558594 C 5.769531 -2.390625 5.652344 -2.15625 5.734375 -2.007812 C 5.851562 -2.039062 5.851562 -2.207031 6.003906 -2.242188 C 5.96875 -2.089844 5.652344 -1.972656 5.769531 -1.804688 C 5.933594 -2.007812 6.085938 -2.207031 6.320312 -2.359375 C 6.203125 -2.089844 5.769531 -1.890625 5.769531 -1.621094 C 5.886719 -1.65625 5.886719 -1.804688 6.003906 -1.855469 C 5.96875 -1.65625 5.769531 -1.65625 5.769531 -1.421875 C 5.933594 -1.453125 6.003906 -1.773438 6.167969 -1.6875 C 6.003906 -1.570312 5.851562 -1.421875 5.769531 -1.21875 C 5.886719 -1.152344 5.851562 -1.421875 5.933594 -1.304688 C 5.933594 -1.21875 5.734375 -1.101562 5.851562 -1.035156 C 6.050781 -1.269531 6.320312 -1.621094 6.554688 -1.6875 C 6.320312 -1.421875 6.050781 -1.21875 5.851562 -0.917969 C 6.003906 -0.871094 5.933594 -1.070312 6.050781 -1.035156 C 6.050781 -0.871094 5.886719 -0.917969 5.886719 -0.753906 C 5.933594 -0.71875 5.96875 -0.71875 5.96875 -0.636719 C 6.285156 -0.71875 6.4375 -1.152344 6.671875 -1.1875 C 6.46875 -0.953125 6.238281 -0.785156 6.085938 -0.550781 C 6.238281 -0.550781 6.285156 -0.636719 6.351562 -0.71875 C 6.402344 -0.601562 6.285156 -0.636719 6.285156 -0.550781 C 6.46875 -0.519531 6.4375 -0.71875 6.605469 -0.71875 C 6.636719 -0.601562 6.46875 -0.667969 6.519531 -0.550781 C 6.671875 -0.636719 6.839844 -0.601562 7.023438 -0.71875 C 7.023438 -0.636719 6.90625 -0.667969 6.90625 -0.601562 C 7.140625 -0.550781 7.140625 -0.785156 7.304688 -0.871094 C 7.304688 -0.71875 7.1875 -0.71875 7.140625 -0.601562 C 7.339844 -0.636719 7.457031 -0.601562 7.605469 -0.753906 C 7.65625 -0.636719 7.492188 -0.71875 7.539062 -0.601562 C 7.773438 -0.667969 7.890625 -0.917969 8.042969 -1.070312 C 7.925781 -1.101562 8.007812 -1.152344 8.007812 -1.304688 C 7.890625 -1.269531 7.839844 -1.101562 7.773438 -1.070312 C 7.722656 -1.1875 8.160156 -1.503906 7.808594 -1.65625 C 7.839844 -1.6875 7.925781 -1.6875 7.925781 -1.804688 C 7.773438 -1.804688 7.773438 -1.621094 7.605469 -1.621094 C 7.691406 -1.738281 7.839844 -1.804688 7.890625 -2.007812 C 7.722656 -2.007812 7.722656 -1.738281 7.605469 -1.855469 C 7.722656 -1.921875 7.808594 -2.039062 7.890625 -2.207031 C 7.65625 -2.15625 7.605469 -1.890625 7.421875 -1.804688 C 7.574219 -2.089844 7.925781 -2.242188 7.839844 -2.625 C 7.691406 -2.625 7.773438 -2.441406 7.605469 -2.441406 C 7.65625 -2.589844 7.808594 -2.625 7.839844 -2.824219 C 7.691406 -2.792969 7.65625 -2.589844 7.492188 -2.558594 C 7.574219 -2.707031 7.890625 -2.824219 7.773438 -3.058594 C 7.773438 -2.992188 7.722656 -2.941406 7.65625 -2.941406 C 7.691406 -3.027344 7.890625 -3.144531 7.773438 -3.261719 C 7.605469 -3.027344 7.421875 -2.792969 7.1875 -2.625 C 7.304688 -2.941406 7.808594 -3.109375 7.773438 -3.460938 C 7.65625 -3.34375 7.492188 -3.058594 7.375 -3.109375 C 7.457031 -3.261719 7.808594 -3.410156 7.722656 -3.613281 C 7.65625 -3.613281 7.605469 -3.378906 7.574219 -3.496094 C 7.574219 -3.644531 7.773438 -3.578125 7.722656 -3.761719 C 7.574219 -3.726562 7.492188 -3.527344 7.375 -3.460938 C 7.457031 -3.644531 7.605469 -3.761719 7.773438 -3.929688 C 7.605469 -3.996094 7.691406 -4.046875 7.722656 -4.195312 C 7.574219 -4.164062 7.605469 -3.996094 7.457031 -3.996094 C 7.492188 -4.164062 7.691406 -4.164062 7.691406 -4.398438 C 7.574219 -4.3125 7.492188 -4.164062 7.375 -4.078125 C 7.375 -4.078125 7.375 -4.113281 7.339844 -4.113281 C 7.457031 -4.230469 7.691406 -4.398438 7.605469 -4.546875 C 7.492188 -4.464844 7.375 -4.195312 7.257812 -4.230469 C 7.375 -4.398438 7.574219 -4.464844 7.605469 -4.699219 C 7.492188 -4.699219 7.421875 -4.429688 7.339844 -4.546875 C 7.375 -4.632812 7.605469 -4.75 7.492188 -4.867188 C 7.457031 -4.832031 7.375 -4.664062 7.339844 -4.75 C 7.375 -4.832031 7.492188 -4.867188 7.492188 -5.015625 C 7.222656 -4.867188 7.105469 -4.546875 6.839844 -4.398438 C 6.988281 -4.664062 7.257812 -4.832031 7.421875 -5.097656 C 7.257812 -5.132812 7.375 -5.183594 7.304688 -5.300781 C 7.304688 -5.214844 7.140625 -5.097656 7.105469 -5.183594 C 7.140625 -5.25 7.257812 -5.300781 7.257812 -5.417969 C 7.140625 -5.367188 7.1875 -5.535156 7.074219 -5.484375 C 6.988281 -5.367188 6.90625 -5.25 6.789062 -5.214844 C 6.839844 -5.367188 6.988281 -5.417969 7.074219 -5.566406 C 6.957031 -5.683594 6.90625 -5.417969 6.789062 -5.417969 C 6.789062 -5.535156 6.90625 -5.566406 6.957031 -5.652344 C 6.753906 -5.71875 6.605469 -5.300781 6.46875 -5.332031 C 6.554688 -5.484375 6.753906 -5.535156 6.789062 -5.71875 C 6.605469 -5.769531 6.605469 -5.800781 6.4375 -5.71875 C 6.4375 -5.769531 6.4375 -5.800781 6.46875 -5.835938 C 6.320312 -5.800781 6.285156 -5.652344 6.121094 -5.601562 C 6.121094 -5.71875 6.320312 -5.71875 6.320312 -5.886719 C 6.121094 -5.835938 6.085938 -5.652344 5.933594 -5.601562 C 5.933594 -5.769531 6.121094 -5.71875 6.121094 -5.917969 C 6.003906 -5.953125 5.96875 -5.71875 5.933594 -5.835938 C 5.96875 -5.953125 6.121094 -6.003906 6.167969 -6.121094 C 6.238281 -6.121094 6.203125 -6.003906 6.238281 -6.003906 C 6.4375 -6.121094 6.519531 -6.351562 6.753906 -6.421875 C 6.722656 -6.304688 6.46875 -6.238281 6.554688 -6.152344 C 6.871094 -6.421875 7.304688 -6.789062 7.421875 -7.140625 C 7.304688 -7.054688 7.304688 -6.90625 7.140625 -6.90625 C 7.257812 -6.972656 7.375 -7.257812 7.492188 -7.207031 C 7.457031 -7.375 7.65625 -7.640625 7.605469 -7.792969 C 7.605469 -7.722656 7.492188 -7.558594 7.421875 -7.675781 C 7.574219 -7.722656 7.605469 -7.875 7.691406 -8.027344 C 7.539062 -8.027344 7.574219 -7.839844 7.421875 -7.839844 C 7.457031 -7.957031 7.574219 -7.992188 7.605469 -8.109375 C 7.457031 -8.140625 7.421875 -7.875 7.339844 -7.992188 C 7.457031 -8.109375 7.65625 -8.191406 7.691406 -8.425781 C 7.574219 -8.460938 7.605469 -8.226562 7.539062 -8.375 C 7.574219 -8.460938 7.691406 -8.492188 7.691406 -8.660156 C 7.492188 -8.542969 7.421875 -8.308594 7.222656 -8.226562 C 7.339844 -8.460938 7.605469 -8.542969 7.691406 -8.863281 C 7.539062 -8.8125 7.574219 -8.660156 7.421875 -8.660156 C 7.457031 -8.8125 7.65625 -8.863281 7.691406 -9.046875 C 7.539062 -9.09375 7.574219 -8.894531 7.457031 -8.863281 C 7.375 -9.011719 7.257812 -8.8125 7.1875 -8.894531 C 7.304688 -9.046875 7.605469 -9.210938 7.574219 -9.445312 C 7.339844 -9.210938 7.1875 -8.894531 6.871094 -8.746094 C 7.023438 -9.046875 7.539062 -9.246094 7.539062 -9.597656 C 7.457031 -9.511719 7.421875 -9.394531 7.304688 -9.363281 C 7.339844 -9.5625 7.539062 -9.5625 7.574219 -9.746094 C 7.339844 -9.796875 7.339844 -9.394531 7.1875 -9.511719 C 7.257812 -9.628906 7.421875 -9.679688 7.457031 -9.863281 C 7.257812 -9.832031 7.1875 -9.511719 7.074219 -9.597656 C 7.1875 -9.714844 7.457031 -9.863281 7.375 -10.066406 C 7.339844 -10.03125 7.222656 -9.832031 7.1875 -9.914062 C 7.1875 -10.03125 7.339844 -10.03125 7.339844 -10.183594 C 6.839844 -9.796875 6.4375 -9.128906 5.933594 -8.863281 C 6.050781 -9.046875 6.554688 -9.246094 6.351562 -9.511719 C 6.519531 -9.511719 6.554688 -9.914062 6.753906 -9.796875 C 6.636719 -9.679688 6.46875 -9.597656 6.4375 -9.445312 C 6.789062 -9.628906 7.023438 -9.949219 7.257812 -10.300781 C 7.105469 -10.332031 7.1875 -10.148438 7.074219 -10.183594 C 7.074219 -10.300781 7.1875 -10.300781 7.1875 -10.417969 C 6.90625 -10.300781 6.839844 -9.980469 6.554688 -9.863281 C 6.636719 -10.148438 7.1875 -10.332031 7.023438 -10.566406 C 6.90625 -10.449219 6.789062 -10.148438 6.636719 -10.214844 C 6.753906 -10.332031 6.988281 -10.5 6.957031 -10.648438 C 6.722656 -10.5 6.554688 -10.097656 6.320312 -10.097656 C 6.519531 -10.300781 6.722656 -10.5 6.90625 -10.734375 C 6.789062 -10.816406 6.753906 -10.566406 6.636719 -10.566406 C 6.636719 -10.699219 6.753906 -10.734375 6.789062 -10.851562 C 6.605469 -10.765625 6.46875 -10.566406 6.320312 -10.449219 C 6.351562 -10.699219 6.605469 -10.734375 6.671875 -10.933594 C 6.351562 -10.816406 6.238281 -10.5 6.003906 -10.332031 C 6.121094 -10.617188 6.402344 -10.699219 6.519531 -11 C 6.203125 -10.851562 6.050781 -10.535156 5.820312 -10.332031 C 5.933594 -10.648438 6.238281 -10.765625 6.402344 -11.050781 C 6.167969 -11.117188 6.003906 -10.535156 5.769531 -10.617188 C 5.886719 -10.699219 6.003906 -10.816406 6.085938 -10.96875 C 5.933594 -11.050781 5.96875 -10.765625 5.886719 -10.882812 C 5.886719 -11 6.050781 -11 6.050781 -11.167969 C 5.886719 -11.117188 5.820312 -10.933594 5.703125 -10.851562 C 5.703125 -11.050781 5.886719 -11.085938 5.933594 -11.234375 C 5.652344 -11.117188 5.535156 -10.648438 5.265625 -10.699219 C 5.46875 -10.882812 5.652344 -11.050781 5.769531 -11.285156 C 5.382812 -11.050781 5.117188 -10.5 4.765625 -10.382812 C 5.03125 -10.648438 5.382812 -10.882812 5.585938 -11.285156 C 5.265625 -11.167969 5.117188 -10.699219 4.882812 -10.699219 C 5.066406 -10.882812 5.265625 -11.085938 5.46875 -11.320312 C 5.117188 -11.203125 5.03125 -10.882812 4.765625 -10.734375 C 4.882812 -10.96875 5.148438 -11.085938 5.265625 -11.351562 C 5.03125 -11.320312 5 -11.050781 4.765625 -10.96875 C 4.796875 -11.167969 5.03125 -11.117188 5.03125 -11.351562 C 4.882812 -11.320312 4.914062 -11.167969 4.765625 -11.167969 C 4.714844 -11.285156 4.882812 -11.203125 4.832031 -11.351562 C 4.515625 -11.203125 4.449219 -10.851562 4.128906 -10.734375 C 4.246094 -10.96875 4.597656 -11.117188 4.597656 -11.351562 C 4.480469 -11.285156 4.363281 -11 4.246094 -11.085938 C 4.28125 -11.167969 4.480469 -11.285156 4.398438 -11.351562 C 4.046875 -11.085938 3.863281 -10.699219 3.511719 -10.5 C 3.746094 -10.765625 4.011719 -11 4.214844 -11.320312 C 3.929688 -11.320312 3.929688 -10.882812 3.695312 -10.96875 C 3.8125 -11.050781 3.929688 -11.167969 4.011719 -11.320312 C 3.695312 -11.117188 3.511719 -10.882812 3.308594 -10.566406 C 3.511719 -10.617188 3.511719 -10.851562 3.695312 -10.882812 C 3.460938 -10.617188 3.195312 -10.183594 2.925781 -10.097656 C 3.042969 -10.265625 3.277344 -10.332031 3.308594 -10.566406 C 3.109375 -10.617188 3.195312 -10.332031 2.992188 -10.382812 C 3.226562 -10.699219 3.578125 -10.933594 3.777344 -11.285156 C 3.460938 -11.203125 3.34375 -10.699219 3.078125 -10.734375 Z M 7.257812 -7.207031 C 7.339844 -7.324219 7.421875 -7.441406 7.539062 -7.523438 C 7.492188 -7.324219 7.375 -7.289062 7.257812 -7.207031 Z M 6.957031 -5.097656 C 6.988281 -5.25 7.140625 -5.25 7.1875 -5.417969 C 7.074219 -5.367188 6.871094 -5.214844 6.957031 -5.097656 Z M 6.722656 -0.636719 C 6.90625 -0.953125 7.222656 -1.1875 7.457031 -1.503906 C 7.574219 -1.335938 7.222656 -1.269531 7.222656 -1.101562 C 7.304688 -0.953125 7.339844 -1.1875 7.421875 -1.152344 C 7.421875 -1.035156 7.304688 -0.988281 7.222656 -0.988281 C 7.222656 -1.035156 7.222656 -1.070312 7.1875 -1.070312 C 6.988281 -0.953125 6.90625 -0.71875 6.722656 -0.636719 Z M 6.320312 -1.152344 C 6.351562 -0.988281 6.085938 -0.785156 5.96875 -0.71875 C 6.050781 -0.871094 6.238281 -0.953125 6.320312 -1.152344 Z M 5.734375 -2.15625 C 5.851562 -2.359375 6.003906 -2.558594 6.203125 -2.675781 C 6.085938 -2.472656 5.886719 -2.324219 5.734375 -2.15625 Z M 1.671875 -1.6875 C 1.503906 -1.421875 1.320312 -1.21875 1.085938 -1.070312 C 1.238281 -1.304688 1.4375 -1.503906 1.671875 -1.6875 Z M 1.503906 -4.28125 C 1.355469 -4.078125 1.203125 -3.878906 1.003906 -3.761719 C 1.152344 -3.929688 1.269531 -4.164062 1.503906 -4.28125 Z M 1.554688 -4.632812 C 1.554688 -4.398438 1.203125 -4.164062 1.003906 -3.960938 C 1.121094 -4.230469 1.386719 -4.347656 1.554688 -4.632812 Z M 1.320312 -6.46875 C 1.203125 -6.269531 1.121094 -6.121094 0.917969 -6.035156 C 1.003906 -6.238281 1.152344 -6.304688 1.320312 -6.46875 Z M 0.917969 -6.46875 C 0.917969 -6.585938 1.035156 -6.621094 1.121094 -6.65625 C 1.085938 -6.585938 1.035156 -6.46875 0.917969 -6.46875 Z M 4.246094 -10.617188 C 4.363281 -10.816406 4.515625 -11 4.714844 -11.117188 C 4.597656 -10.933594 4.449219 -10.734375 4.246094 -10.617188 Z M 3.578125 -10.265625 C 3.578125 -10.535156 3.980469 -10.765625 4.214844 -11 C 4.046875 -10.699219 3.746094 -10.566406 3.578125 -10.265625 Z M 2.171875 -10.851562 C 2.289062 -10.816406 2.257812 -10.933594 2.289062 -10.96875 C 2.40625 -10.882812 2.207031 -10.816406 2.207031 -10.734375 C 2.171875 -10.734375 2.171875 -10.734375 2.171875 -10.765625 C 2.171875 -10.816406 2.171875 -10.816406 2.171875 -10.851562 Z M 4.046875 -10.214844 C 4.214844 -10.5 4.515625 -10.648438 4.679688 -10.933594 C 4.648438 -10.699219 4.28125 -10.382812 4.046875 -10.214844 Z M 5.351562 -10.382812 C 5.148438 -10.535156 5.585938 -10.699219 5.652344 -10.851562 C 5.617188 -10.617188 5.382812 -10.617188 5.351562 -10.382812 Z M 5.066406 -10.265625 C 5.117188 -10.300781 5.183594 -10.382812 5.265625 -10.417969 C 5.234375 -10.332031 5.148438 -10.183594 5.066406 -10.265625 Z M 5.183594 -10.148438 C 5.417969 -10.382812 5.585938 -10.648438 5.851562 -10.851562 C 5.652344 -10.566406 5.46875 -10.300781 5.183594 -10.148438 Z M 2.171875 -10.648438 C 2.289062 -10.617188 2.257812 -10.734375 2.289062 -10.765625 C 2.40625 -10.699219 2.207031 -10.617188 2.207031 -10.535156 C 2.171875 -10.535156 2.171875 -10.535156 2.171875 -10.566406 C 2.171875 -10.617188 2.171875 -10.617188 2.171875 -10.648438 Z M 2.691406 -10.449219 C 2.691406 -10.617188 2.875 -10.648438 2.925781 -10.765625 C 2.992188 -10.648438 2.757812 -10.535156 2.691406 -10.449219 Z M 1.707031 -10.417969 C 1.621094 -10.535156 1.824219 -10.648438 1.941406 -10.734375 C 1.90625 -10.566406 1.738281 -10.566406 1.707031 -10.417969 Z M 4.128906 -10.097656 C 4.332031 -10.265625 4.515625 -10.648438 4.765625 -10.699219 C 4.515625 -10.5 4.398438 -10.214844 4.128906 -10.097656 Z M 3.746094 -10.300781 C 3.8125 -10.449219 3.980469 -10.535156 4.046875 -10.699219 C 4.097656 -10.566406 3.863281 -10.382812 3.746094 -10.300781 Z M 2.492188 -10.449219 C 2.523438 -10.535156 2.523438 -10.617188 2.640625 -10.648438 C 2.609375 -10.535156 2.609375 -10.449219 2.492188 -10.449219 Z M 2.40625 -9.949219 C 2.558594 -10.214844 2.808594 -10.449219 3.078125 -10.648438 C 2.875 -10.382812 2.640625 -10.148438 2.40625 -9.949219 Z M 1.738281 -10.332031 C 1.824219 -10.417969 1.90625 -10.566406 2.054688 -10.617188 C 1.941406 -10.535156 1.90625 -10.382812 1.738281 -10.332031 Z M 5 -10.332031 C 5.03125 -10.449219 5.148438 -10.535156 5.265625 -10.617188 C 5.183594 -10.5 5.117188 -10.417969 5 -10.332031 Z M 3.929688 -10.300781 C 3.980469 -10.417969 4.097656 -10.5 4.214844 -10.566406 C 4.164062 -10.449219 4.046875 -10.382812 3.929688 -10.300781 Z M 6.402344 -10.382812 C 6.46875 -10.417969 6.46875 -10.535156 6.605469 -10.566406 C 6.554688 -10.449219 6.554688 -10.332031 6.402344 -10.382812 Z M 5.617188 -10.332031 C 5.652344 -10.417969 5.652344 -10.5 5.769531 -10.535156 C 5.769531 -10.449219 5.585938 -10.332031 5.769531 -10.332031 C 5.734375 -10.214844 5.734375 -10.148438 5.617188 -10.148438 C 5.585938 -10.214844 5.820312 -10.300781 5.617188 -10.332031 Z M 4.480469 -10.300781 C 4.648438 -10.300781 4.597656 -10.5 4.765625 -10.5 C 4.714844 -10.417969 4.515625 -10.148438 4.480469 -10.300781 Z M 6.085938 -10.265625 C 6.167969 -10.300781 6.167969 -10.417969 6.285156 -10.449219 C 6.238281 -10.332031 6.238281 -10.214844 6.085938 -10.265625 Z M 1.355469 -10.097656 C 1.386719 -10.265625 1.503906 -10.300781 1.621094 -10.417969 C 1.589844 -10.265625 1.472656 -10.183594 1.355469 -10.097656 Z M 1.972656 -10.148438 C 2.023438 -10.265625 2.140625 -10.332031 2.257812 -10.417969 C 2.171875 -10.300781 2.140625 -10.183594 1.972656 -10.148438 Z M 1.671875 -10.03125 C 1.707031 -10.148438 1.855469 -10.183594 1.90625 -10.332031 C 1.972656 -10.214844 1.789062 -10.066406 1.671875 -10.03125 Z M 1.738281 -8.976562 C 2.023438 -9.394531 2.523438 -9.949219 2.992188 -10.332031 C 2.609375 -9.863281 2.140625 -9.445312 1.738281 -8.976562 Z M 5.617188 -9.949219 C 5.703125 -10.097656 5.820312 -10.214844 5.96875 -10.332031 C 5.886719 -10.183594 5.769531 -10.03125 5.617188 -9.949219 Z M 5.734375 -9.628906 C 5.933594 -9.914062 6.121094 -10.148438 6.402344 -10.332031 C 6.203125 -10.066406 5.96875 -9.832031 5.734375 -9.628906 Z M 4.515625 -9.980469 C 4.398438 -10.097656 4.679688 -10.214844 4.765625 -10.300781 C 4.714844 -10.148438 4.5625 -10.148438 4.515625 -9.980469 Z M 4.28125 -9.746094 C 4.5625 -9.714844 4.679688 -10.183594 4.949219 -10.300781 C 4.832031 -10.066406 4.648438 -9.914062 4.480469 -9.746094 C 4.480469 -9.714844 4.515625 -9.714844 4.515625 -9.679688 C 4.679688 -9.796875 4.765625 -9.980469 4.949219 -10.097656 C 4.914062 -9.863281 4.679688 -9.914062 4.679688 -9.679688 C 4.882812 -9.714844 4.914062 -9.949219 5.066406 -10.03125 C 5.03125 -9.796875 4.832031 -9.796875 4.796875 -9.597656 C 5.066406 -9.679688 5.117188 -9.980469 5.382812 -10.097656 C 5.265625 -9.863281 5.066406 -9.746094 4.914062 -9.5625 C 5.066406 -9.480469 5.117188 -9.796875 5.300781 -9.796875 C 5.265625 -9.628906 5.117188 -9.628906 5.066406 -9.480469 C 5.148438 -9.363281 5.183594 -9.597656 5.300781 -9.597656 C 5.300781 -9.480469 5.183594 -9.511719 5.183594 -9.394531 C 5.234375 -9.363281 5.351562 -9.394531 5.265625 -9.246094 C 5.351562 -9.246094 5.351562 -9.28125 5.417969 -9.28125 C 5.46875 -9.164062 5.300781 -9.246094 5.351562 -9.09375 C 5.5 -9.09375 5.46875 -9.28125 5.617188 -9.28125 C 5.585938 -9.128906 5.417969 -9.164062 5.417969 -8.976562 C 5.652344 -9.046875 5.703125 -9.28125 5.886719 -9.394531 C 5.820312 -9.128906 5.417969 -9.011719 5.5 -8.777344 C 5.617188 -8.863281 5.652344 -9.011719 5.820312 -9.09375 C 5.769531 -8.894531 5.535156 -8.894531 5.535156 -8.660156 C 5.769531 -8.746094 5.769531 -9.011719 6.003906 -9.09375 C 5.886719 -8.863281 5.652344 -8.695312 5.535156 -8.492188 C 5.703125 -8.375 5.734375 -8.777344 5.933594 -8.777344 C 5.851562 -8.578125 5.617188 -8.492188 5.585938 -8.257812 C 5.703125 -8.257812 5.703125 -8.460938 5.851562 -8.460938 C 5.769531 -8.257812 5.585938 -8.257812 5.585938 -8.027344 C 6.085938 -8.492188 6.46875 -9.09375 7.074219 -9.511719 C 6.554688 -8.929688 5.933594 -8.460938 5.535156 -7.792969 C 5.652344 -7.910156 5.769531 -8.027344 5.933594 -8.140625 C 5.820312 -7.910156 5.585938 -7.792969 5.5 -7.558594 C 5.769531 -7.757812 5.96875 -8.074219 6.238281 -8.257812 C 5.820312 -7.722656 5.300781 -7.207031 4.882812 -6.703125 C 4.714844 -6.738281 4.679688 -6.738281 4.5625 -6.65625 C 4.714844 -6.386719 4.246094 -6.152344 4.046875 -5.953125 C 4.164062 -6.1875 4.449219 -6.304688 4.5625 -6.539062 C 4.363281 -6.621094 4.363281 -6.269531 4.128906 -6.269531 C 4.246094 -6.386719 4.363281 -6.503906 4.480469 -6.65625 C 4.011719 -6.65625 3.8125 -6.269531 3.542969 -6.003906 C 3.511719 -5.886719 3.660156 -5.953125 3.628906 -5.835938 C 3.425781 -5.601562 3.195312 -5.417969 2.992188 -5.183594 C 2.960938 -5.449219 3.578125 -5.652344 3.511719 -5.953125 C 3.308594 -5.769531 3.195312 -5.484375 2.925781 -5.417969 C 3.277344 -5.800781 3.660156 -6.1875 4.011719 -6.621094 C 3.746094 -6.539062 3.695312 -6.269531 3.460938 -6.152344 C 3.542969 -6.304688 3.660156 -6.421875 3.777344 -6.539062 C 3.277344 -6.789062 2.960938 -6.152344 2.609375 -5.917969 C 2.757812 -6.152344 2.992188 -6.351562 3.195312 -6.539062 C 3.160156 -6.65625 3.078125 -6.503906 2.992188 -6.539062 C 3.078125 -6.738281 2.960938 -6.90625 3.042969 -7.089844 C 2.925781 -7.171875 2.84375 -6.855469 2.691406 -6.855469 C 2.757812 -7.054688 3.042969 -7.089844 3.042969 -7.375 C 2.875 -7.375 2.960938 -7.140625 2.757812 -7.171875 C 2.84375 -7.289062 2.960938 -7.375 3.042969 -7.492188 C 2.960938 -7.605469 3.042969 -7.722656 2.992188 -7.792969 C 2.875 -7.640625 2.726562 -7.492188 2.558594 -7.375 C 2.726562 -7.640625 3.042969 -7.792969 3.042969 -8.140625 C 2.726562 -8.074219 2.691406 -7.757812 2.441406 -7.675781 C 2.558594 -7.957031 2.925781 -8.027344 2.992188 -8.34375 C 2.925781 -8.425781 2.875 -8.140625 2.757812 -8.191406 C 2.808594 -8.34375 2.992188 -8.34375 2.992188 -8.578125 C 2.875 -8.609375 2.960938 -8.460938 2.84375 -8.492188 C 2.875 -8.609375 2.960938 -8.660156 2.992188 -8.777344 C 2.875 -8.8125 2.960938 -8.660156 2.84375 -8.695312 C 2.960938 -8.8125 2.925781 -8.976562 2.960938 -9.164062 C 2.84375 -9.210938 2.726562 -8.863281 2.523438 -8.8125 C 2.726562 -9.09375 3.078125 -9.28125 2.925781 -9.714844 C 3.226562 -9.628906 3.226562 -9.863281 3.425781 -9.949219 C 3.425781 -9.832031 3.308594 -9.796875 3.277344 -9.714844 C 3.578125 -9.796875 3.628906 -10.148438 3.929688 -10.265625 C 3.8125 -10.066406 3.578125 -9.914062 3.460938 -9.714844 C 3.746094 -9.796875 3.8125 -10.03125 4.011719 -10.183594 C 3.980469 -9.949219 3.746094 -9.914062 3.695312 -9.714844 C 3.894531 -9.746094 3.929688 -9.980469 4.128906 -10.066406 C 4.097656 -9.914062 3.980469 -9.863281 3.894531 -9.796875 C 4.046875 -9.679688 4.332031 -9.746094 4.398438 -9.980469 C 4.515625 -9.914062 4.332031 -9.796875 4.28125 -9.746094 Z M 2.558594 -7.558594 C 2.640625 -7.757812 2.808594 -7.875 2.960938 -7.992188 C 2.84375 -7.792969 2.726562 -7.675781 2.558594 -7.558594 Z M 2.808594 -6.738281 C 2.808594 -6.855469 2.875 -6.90625 2.992188 -6.9375 C 2.960938 -6.820312 2.875 -6.789062 2.808594 -6.738281 Z M 3.109375 -6.238281 C 3.195312 -6.351562 3.308594 -6.46875 3.425781 -6.539062 C 3.394531 -6.386719 3.226562 -6.304688 3.109375 -6.238281 Z M 3.042969 -5.917969 C 3.195312 -6.152344 3.394531 -6.386719 3.628906 -6.539062 C 3.460938 -6.304688 3.277344 -6.070312 3.042969 -5.917969 Z M 3.863281 -6.152344 C 3.929688 -6.351562 4.097656 -6.46875 4.246094 -6.585938 C 4.128906 -6.386719 4.011719 -6.269531 3.863281 -6.152344 Z M 4.765625 -6.503906 C 4.714844 -6.621094 4.949219 -6.503906 4.882812 -6.703125 C 5.066406 -6.703125 4.832031 -6.503906 4.765625 -6.503906 Z M 6.351562 -8.140625 C 5.933594 -7.757812 5.617188 -7.289062 5.183594 -6.9375 C 5.535156 -7.375 5.886719 -7.839844 6.351562 -8.140625 Z M 3.425781 -9.980469 C 3.542969 -10.066406 3.542969 -10.214844 3.695312 -10.265625 C 3.628906 -10.148438 3.578125 -9.980469 3.425781 -9.980469 Z M 5.933594 -10.148438 C 6.003906 -10.097656 6.003906 -10.183594 6.003906 -10.265625 C 6.167969 -10.183594 5.96875 -10.097656 5.96875 -10.03125 C 5.933594 -10.03125 5.933594 -10.03125 5.933594 -10.066406 C 5.933594 -10.097656 5.933594 -10.097656 5.933594 -10.148438 Z M 1.355469 -9.914062 C 1.386719 -10.03125 1.554688 -10.066406 1.589844 -10.214844 C 1.671875 -10.097656 1.472656 -9.949219 1.355469 -9.914062 Z M 2.171875 -9.949219 C 2.289062 -10.03125 2.324219 -10.183594 2.441406 -10.214844 C 2.375 -10.097656 2.324219 -9.949219 2.171875 -9.949219 Z M 3.195312 -9.832031 C 3.109375 -9.949219 3.308594 -10.066406 3.425781 -10.148438 C 3.394531 -9.980469 3.226562 -9.980469 3.195312 -9.832031 Z M 5.300781 -9.832031 C 5.417969 -9.914062 5.5 -10.183594 5.617188 -10.097656 C 5.5 -10.03125 5.46875 -9.863281 5.300781 -9.832031 Z M 6.320312 -9.863281 C 6.4375 -9.949219 6.4375 -10.148438 6.636719 -10.148438 C 6.519531 -10.066406 6.519531 -9.863281 6.320312 -9.863281 Z M 1.589844 -9.597656 C 1.855469 -9.714844 1.90625 -9.980469 2.171875 -10.097656 C 2.054688 -9.832031 1.738281 -9.746094 1.671875 -9.480469 C 1.90625 -9.480469 1.855469 -9.746094 2.054688 -9.796875 C 1.972656 -9.597656 1.855469 -9.511719 1.738281 -9.394531 C 1.621094 -9.394531 1.621094 -9.480469 1.589844 -9.597656 Z M 2.640625 -9.714844 C 2.523438 -9.832031 2.808594 -9.949219 2.875 -10.03125 C 2.84375 -9.863281 2.691406 -9.863281 2.640625 -9.714844 Z M 2.808594 -9.746094 C 2.875 -9.863281 2.925781 -9.980469 3.109375 -10.03125 C 2.992188 -9.949219 2.960938 -9.796875 2.808594 -9.746094 Z M 6.003906 -9.746094 C 6.121094 -9.832031 6.121094 -9.980469 6.320312 -10.03125 C 6.238281 -9.914062 6.167969 -9.746094 6.003906 -9.746094 Z M 1.671875 -9.210938 C 1.941406 -9.394531 2.089844 -9.714844 2.375 -9.914062 C 2.171875 -9.679688 1.90625 -9.28125 1.671875 -9.210938 Z M 5.300781 -9.628906 C 5.382812 -9.714844 5.46875 -9.746094 5.5 -9.914062 C 5.535156 -9.914062 5.585938 -9.914062 5.617188 -9.914062 C 5.535156 -9.832031 5.417969 -9.597656 5.300781 -9.628906 Z M 5.585938 -9.597656 C 5.5 -9.714844 5.703125 -9.863281 5.820312 -9.914062 C 5.734375 -9.796875 5.617188 -9.714844 5.585938 -9.597656 Z M 6.753906 -9.480469 C 6.90625 -9.597656 6.988281 -9.746094 7.140625 -9.863281 C 7.074219 -9.679688 6.871094 -9.445312 6.753906 -9.480469 Z M 5.933594 -9.445312 C 6.050781 -9.597656 6.121094 -9.746094 6.320312 -9.832031 C 6.238281 -9.628906 6.085938 -9.5625 5.933594 -9.445312 Z M 5.886719 -9.128906 C 5.933594 -9.363281 6.285156 -9.628906 6.519531 -9.832031 C 6.402344 -9.628906 6.203125 -9.511719 6.285156 -9.328125 C 6.238281 -9.328125 6.285156 -9.445312 6.203125 -9.445312 C 6.050781 -9.363281 5.96875 -9.246094 5.886719 -9.128906 Z M 2.40625 -9.328125 C 2.523438 -9.445312 2.609375 -9.628906 2.808594 -9.714844 C 2.691406 -9.5625 2.558594 -9.394531 2.40625 -9.328125 Z M 5.617188 -9.328125 C 5.734375 -9.480469 5.851562 -9.597656 6.003906 -9.714844 C 5.886719 -9.5625 5.820312 -9.394531 5.617188 -9.328125 Z M 1.941406 -8.976562 C 1.90625 -9.164062 2.257812 -9.28125 2.289062 -9.480469 C 2.441406 -9.394531 2.140625 -9.246094 2.089844 -9.128906 C 2.089844 -9.09375 2.171875 -9.09375 2.171875 -9.046875 C 2.171875 -8.976562 2.089844 -8.894531 2.023438 -8.894531 C 1.972656 -9.011719 2.140625 -8.929688 2.089844 -9.09375 C 1.972656 -9.128906 1.972656 -9.011719 1.941406 -8.976562 Z M 6.871094 -9.164062 C 6.988281 -9.246094 6.988281 -9.394531 7.140625 -9.445312 C 7.074219 -9.328125 7.023438 -9.210938 6.871094 -9.164062 Z M 7.105469 -9.246094 C 7.222656 -9.210938 7.1875 -9.328125 7.222656 -9.363281 C 7.140625 -9.046875 6.753906 -8.746094 6.46875 -8.492188 C 6.636719 -8.777344 6.957031 -8.929688 7.105469 -9.246094 Z M 6.351562 -9.128906 C 6.519531 -9.128906 6.46875 -9.28125 6.636719 -9.328125 C 6.605469 -9.164062 6.46875 -9.09375 6.351562 -9.011719 C 6.351562 -9.046875 6.351562 -9.09375 6.351562 -9.128906 Z M 6.351562 -8.609375 C 6.519531 -8.8125 6.636719 -9.011719 6.871094 -9.128906 C 6.722656 -8.929688 6.605469 -8.746094 6.351562 -8.609375 Z M 1.90625 -8.578125 C 2.023438 -8.695312 2.089844 -8.894531 2.289062 -8.976562 C 2.171875 -8.8125 2.089844 -8.609375 1.90625 -8.578125 Z M 1.503906 -8.027344 C 1.90625 -8.257812 2.089844 -8.695312 2.492188 -8.976562 C 2.441406 -8.8125 2.257812 -8.777344 2.207031 -8.609375 C 2.289062 -8.460938 2.324219 -8.695312 2.40625 -8.660156 C 2.289062 -8.492188 2.207031 -8.34375 2.023438 -8.257812 C 2.023438 -8.425781 2.207031 -8.375 2.207031 -8.578125 C 1.824219 -8.308594 1.589844 -7.875 1.203125 -7.640625 C 1.320312 -7.757812 1.386719 -7.875 1.503906 -7.992188 C 1.4375 -8.109375 1.386719 -7.910156 1.320312 -7.957031 C 1.503906 -8.140625 1.671875 -8.375 1.90625 -8.542969 C 1.789062 -8.34375 1.589844 -8.257812 1.503906 -8.027344 Z M 1.386719 -8.460938 C 1.503906 -8.609375 1.621094 -8.746094 1.789062 -8.863281 C 1.671875 -8.695312 1.554688 -8.542969 1.386719 -8.460938 Z M 1.503906 -8.34375 C 1.621094 -8.542969 1.789062 -8.695312 1.972656 -8.863281 C 1.855469 -8.660156 1.671875 -8.492188 1.503906 -8.34375 Z M 6.90625 -8.542969 C 6.988281 -8.660156 7.023438 -8.777344 7.1875 -8.8125 C 7.105469 -8.695312 7.023438 -8.578125 6.90625 -8.542969 Z M 2.207031 -8.257812 C 2.375 -8.425781 2.492188 -8.660156 2.726562 -8.777344 C 2.558594 -8.609375 2.441406 -8.34375 2.207031 -8.257812 Z M 6.003906 -8.578125 C 5.851562 -8.609375 6.050781 -8.746094 6.121094 -8.777344 C 6.121094 -8.660156 6.003906 -8.695312 6.003906 -8.578125 Z M 5.96875 -8.191406 C 6.050781 -8.34375 6.203125 -8.460938 6.351562 -8.578125 C 6.238281 -8.425781 6.121094 -8.257812 5.96875 -8.191406 Z M 6.90625 -8.308594 C 6.957031 -8.375 6.957031 -8.460938 7.074219 -8.492188 C 7.023438 -8.375 7.023438 -8.308594 6.90625 -8.308594 Z M 2.324219 -7.992188 C 2.523438 -8.109375 2.558594 -8.375 2.84375 -8.460938 C 2.640625 -8.308594 2.558594 -8.074219 2.324219 -7.992188 Z M 6.90625 -8.109375 C 6.957031 -8.257812 7.105469 -8.257812 7.140625 -8.425781 C 7.222656 -8.308594 6.988281 -8.191406 6.90625 -8.109375 Z M 6.351562 -8.191406 C 6.402344 -8.257812 6.46875 -8.34375 6.554688 -8.375 C 6.519531 -8.308594 6.46875 -8.191406 6.351562 -8.191406 Z M 6.285156 -7.910156 C 6.4375 -8.074219 6.554688 -8.257812 6.789062 -8.375 C 6.636719 -8.191406 6.46875 -8.027344 6.285156 -7.910156 Z M 1.320312 -8.140625 C 1.355469 -8.226562 1.4375 -8.375 1.503906 -8.308594 C 1.472656 -8.226562 1.355469 -8.226562 1.355469 -8.109375 C 1.320312 -8.109375 1.320312 -8.109375 1.320312 -8.140625 Z M 1.738281 -7.558594 C 1.972656 -7.839844 2.207031 -8.109375 2.523438 -8.34375 C 2.289062 -8.074219 2.054688 -7.757812 1.738281 -7.558594 Z M 1.003906 -8.027344 C 1.035156 -8.140625 1.152344 -8.226562 1.269531 -8.308594 C 1.203125 -8.191406 1.121094 -8.074219 1.003906 -8.027344 Z M 6.636719 -7.40625 C 6.90625 -7.722656 7.1875 -8.027344 7.492188 -8.308594 C 7.222656 -7.992188 6.957031 -7.675781 6.636719 -7.40625 Z M 6.671875 -8.027344 C 6.605469 -8.074219 6.789062 -8.191406 6.839844 -8.257812 C 6.871094 -8.257812 6.871094 -8.257812 6.90625 -8.257812 C 6.839844 -8.191406 6.753906 -8.109375 6.671875 -8.027344 Z M 1.789062 -7.957031 C 1.707031 -8.027344 1.90625 -8.191406 2.023438 -8.226562 C 1.972656 -8.074219 1.824219 -8.074219 1.789062 -7.957031 Z M 1.738281 -7.757812 C 1.855469 -7.957031 2.023438 -8.109375 2.207031 -8.226562 C 2.089844 -8.027344 1.941406 -7.875 1.738281 -7.757812 Z M 2.257812 -7.675781 C 2.375 -7.875 2.523438 -8.027344 2.726562 -8.140625 C 2.558594 -7.992188 2.441406 -7.792969 2.257812 -7.675781 Z M 6.722656 -7.722656 C 6.753906 -7.839844 6.90625 -7.875 6.957031 -8.027344 C 7.023438 -7.910156 6.789062 -7.792969 6.722656 -7.722656 Z M 1.4375 -7.640625 C 1.472656 -7.792969 1.589844 -7.839844 1.671875 -7.957031 C 1.738281 -7.839844 1.503906 -7.675781 1.4375 -7.640625 Z M 6.402344 -7.605469 C 6.4375 -7.722656 6.605469 -7.757812 6.636719 -7.910156 C 6.722656 -7.792969 6.46875 -7.675781 6.402344 -7.605469 Z M 6.238281 -7.558594 C 6.050781 -7.640625 6.320312 -7.675781 6.320312 -7.792969 C 6.4375 -7.722656 6.238281 -7.640625 6.238281 -7.558594 Z M 7.140625 -7.523438 C 7.140625 -7.605469 7.339844 -7.722656 7.105469 -7.722656 C 7.1875 -7.875 7.257812 -7.640625 7.421875 -7.792969 C 7.375 -7.675781 7.257812 -7.558594 7.140625 -7.523438 Z M 1.472656 -7.40625 C 1.386719 -7.492188 1.589844 -7.675781 1.707031 -7.722656 C 1.671875 -7.558594 1.503906 -7.558594 1.472656 -7.40625 Z M 6.722656 -7.289062 C 6.839844 -7.40625 6.90625 -7.605469 7.105469 -7.675781 C 6.988281 -7.523438 6.90625 -7.375 6.722656 -7.289062 Z M 1.238281 -7.523438 C 1.355469 -7.492188 1.320312 -7.605469 1.355469 -7.640625 C 1.472656 -7.558594 1.269531 -7.492188 1.269531 -7.40625 C 1.238281 -7.40625 1.238281 -7.40625 1.238281 -7.441406 C 1.238281 -7.492188 1.238281 -7.492188 1.238281 -7.523438 Z M 1.621094 -7.257812 C 1.738281 -7.375 1.855469 -7.523438 2.023438 -7.640625 C 1.941406 -7.441406 1.824219 -7.289062 1.621094 -7.257812 Z M 5.933594 -7.257812 C 5.851562 -7.375 6.050781 -7.492188 6.167969 -7.558594 C 6.121094 -7.40625 5.96875 -7.40625 5.933594 -7.257812 Z M 6.003906 -7.171875 C 6.121094 -7.324219 6.203125 -7.492188 6.402344 -7.558594 C 6.285156 -7.441406 6.203125 -7.257812 6.003906 -7.171875 Z M 1.355469 -6.703125 C 1.589844 -6.972656 1.824219 -7.289062 2.140625 -7.523438 C 1.90625 -7.207031 1.621094 -6.9375 1.355469 -6.703125 Z M 1.855469 -7.023438 C 2.023438 -7.171875 2.089844 -7.40625 2.324219 -7.523438 C 2.089844 -7.171875 1.738281 -6.9375 1.503906 -6.585938 C 1.472656 -6.789062 1.738281 -6.855469 1.855469 -7.023438 Z M 1.972656 -6.9375 C 2.089844 -7.171875 2.324219 -7.289062 2.441406 -7.523438 C 2.523438 -7.40625 2.140625 -7.089844 1.972656 -6.9375 Z M 7.023438 -7.207031 C 7.140625 -7.289062 7.1875 -7.441406 7.339844 -7.492188 C 7.257812 -7.375 7.1875 -7.257812 7.023438 -7.207031 Z M 2.558594 -7.171875 C 2.640625 -7.257812 2.726562 -7.375 2.84375 -7.441406 C 2.808594 -7.324219 2.691406 -7.207031 2.558594 -7.171875 Z M 5.5 -7.054688 C 5.617188 -7.207031 5.703125 -7.324219 5.851562 -7.441406 C 5.769531 -7.257812 5.652344 -7.140625 5.5 -7.054688 Z M 6.753906 -7.089844 C 6.789062 -7.207031 6.90625 -7.289062 7.023438 -7.375 C 6.957031 -7.257812 6.871094 -7.171875 6.753906 -7.089844 Z M 5.585938 -6.9375 C 5.652344 -7.054688 5.769531 -7.140625 5.820312 -7.257812 C 5.886719 -7.140625 5.703125 -6.972656 5.585938 -6.9375 Z M 6.121094 -6.855469 C 6.203125 -7.023438 6.320312 -7.171875 6.46875 -7.257812 C 6.402344 -7.054688 6.285156 -6.9375 6.121094 -6.855469 Z M 2.375 -6.738281 C 2.492188 -6.90625 2.609375 -7.023438 2.757812 -7.140625 C 2.640625 -6.972656 2.523438 -6.820312 2.375 -6.738281 Z M 6.003906 -7.054688 C 6.085938 -7.023438 6.085938 -7.089844 6.085938 -7.140625 C 6.121094 -7.140625 6.167969 -7.140625 6.203125 -7.140625 C 6.167969 -7.054688 6.050781 -7.054688 6.050781 -6.9375 C 6.003906 -6.9375 6.003906 -6.9375 6.003906 -6.972656 C 6.003906 -7.023438 6.003906 -7.023438 6.003906 -7.054688 Z M 1.269531 -6.789062 C 1.203125 -6.855469 1.386719 -7.054688 1.503906 -7.089844 C 1.503906 -6.90625 1.320312 -6.90625 1.269531 -6.789062 Z M 6.753906 -6.65625 C 6.871094 -6.820312 6.957031 -6.972656 7.140625 -7.054688 C 6.988281 -6.9375 6.90625 -6.738281 6.753906 -6.65625 Z M 2.171875 -6.738281 C 2.171875 -6.90625 2.375 -6.855469 2.375 -7.023438 C 2.523438 -6.972656 2.257812 -6.738281 2.171875 -6.738281 Z M 4.679688 -6.1875 C 4.914062 -6.503906 5.183594 -6.789062 5.5 -7.023438 C 5.234375 -6.738281 5 -6.421875 4.679688 -6.1875 Z M 5.617188 -6.738281 C 5.703125 -6.855469 5.734375 -6.972656 5.886719 -7.023438 C 5.820312 -6.90625 5.734375 -6.789062 5.617188 -6.738281 Z M 6.167969 -6.621094 C 6.085938 -6.738281 6.285156 -6.855469 6.402344 -6.9375 C 6.351562 -6.789062 6.203125 -6.789062 6.167969 -6.621094 Z M 6.4375 -6.855469 C 6.519531 -6.820312 6.519531 -6.90625 6.519531 -6.9375 C 6.554688 -6.9375 6.605469 -6.9375 6.636719 -6.9375 C 6.605469 -6.855469 6.46875 -6.855469 6.46875 -6.738281 C 6.4375 -6.738281 6.4375 -6.738281 6.4375 -6.789062 C 6.4375 -6.820312 6.4375 -6.820312 6.4375 -6.855469 Z M 5.03125 -6.703125 C 4.914062 -6.738281 5.117188 -6.789062 5.066406 -6.90625 C 5.117188 -6.90625 5.148438 -6.90625 5.183594 -6.90625 C 5.183594 -6.789062 5.03125 -6.820312 5.03125 -6.703125 Z M 5.300781 -6.621094 C 5.300781 -6.789062 5.46875 -6.738281 5.5 -6.90625 C 5.652344 -6.855469 5.382812 -6.621094 5.300781 -6.621094 Z M 6.753906 -6.46875 C 6.839844 -6.621094 6.988281 -6.738281 7.140625 -6.855469 C 7.023438 -6.703125 6.90625 -6.539062 6.753906 -6.46875 Z M 5.820312 -6.539062 C 5.851562 -6.65625 5.96875 -6.738281 6.085938 -6.820312 C 6.003906 -6.703125 5.933594 -6.585938 5.820312 -6.539062 Z M 1.824219 -6.503906 C 1.738281 -6.585938 1.941406 -6.738281 2.054688 -6.789062 C 2.023438 -6.65625 1.855469 -6.621094 1.824219 -6.503906 Z M 6.203125 -6.539062 C 6.238281 -6.621094 6.320312 -6.703125 6.402344 -6.738281 C 6.351562 -6.65625 6.320312 -6.539062 6.203125 -6.539062 Z M 5.117188 -6.1875 C 5.234375 -6.386719 5.382812 -6.539062 5.585938 -6.703125 C 5.46875 -6.503906 5.265625 -6.351562 5.117188 -6.1875 Z M 6.605469 -6.421875 C 6.402344 -6.503906 6.671875 -6.539062 6.671875 -6.65625 C 6.789062 -6.585938 6.605469 -6.503906 6.605469 -6.421875 Z M 1.789062 -6.304688 C 1.824219 -6.421875 1.941406 -6.503906 2.054688 -6.585938 C 1.972656 -6.46875 1.90625 -6.351562 1.789062 -6.304688 Z M 1.824219 -6.070312 C 1.789062 -6.269531 2.089844 -6.421875 2.257812 -6.585938 C 2.171875 -6.351562 1.90625 -6.304688 1.824219 -6.070312 Z M 4.164062 -5.449219 C 4.515625 -5.835938 4.832031 -6.269531 5.265625 -6.585938 C 5.03125 -6.269531 4.714844 -6.003906 4.480469 -5.71875 C 4.480469 -5.652344 4.515625 -5.652344 4.5625 -5.652344 C 4.515625 -5.535156 4.515625 -5.449219 4.398438 -5.449219 C 4.363281 -5.566406 4.515625 -5.484375 4.480469 -5.652344 C 4.28125 -5.683594 4.363281 -5.417969 4.164062 -5.449219 Z M 5.535156 -6.503906 C 5.617188 -6.46875 5.617188 -6.539062 5.617188 -6.585938 C 5.652344 -6.503906 5.300781 -6.121094 5.117188 -5.917969 C 5.03125 -5.835938 4.949219 -5.769531 4.882812 -5.769531 C 4.832031 -5.652344 4.832031 -5.535156 4.679688 -5.566406 C 4.679688 -5.484375 4.679688 -5.449219 4.597656 -5.449219 C 4.882812 -5.835938 5.265625 -6.121094 5.535156 -6.503906 Z M 6.203125 -6.351562 C 6.203125 -6.421875 6.320312 -6.421875 6.320312 -6.539062 C 6.519531 -6.503906 6.285156 -6.351562 6.203125 -6.351562 Z M 1.554688 -6.304688 C 1.621094 -6.351562 1.621094 -6.46875 1.738281 -6.503906 C 1.738281 -6.351562 1.621094 -6.351562 1.554688 -6.304688 Z M 2.324219 -6.1875 C 2.257812 -6.304688 2.492188 -6.421875 2.558594 -6.503906 C 2.523438 -6.351562 2.375 -6.351562 2.324219 -6.1875 Z M 2.375 -6.121094 C 2.441406 -6.269531 2.609375 -6.386719 2.757812 -6.503906 C 2.640625 -6.351562 2.558594 -6.1875 2.375 -6.121094 Z M 4.515625 -6.152344 C 4.449219 -6.269531 4.648438 -6.386719 4.765625 -6.46875 C 4.714844 -6.304688 4.5625 -6.304688 4.515625 -6.152344 Z M 6.285156 -6.121094 C 6.167969 -6.238281 6.4375 -6.351562 6.519531 -6.421875 C 6.46875 -6.269531 6.320312 -6.269531 6.285156 -6.121094 Z M 5.417969 -6.121094 C 5.46875 -6.238281 5.585938 -6.304688 5.703125 -6.386719 C 5.652344 -6.269531 5.535156 -6.152344 5.417969 -6.121094 Z M 5.300781 -5.800781 C 5.46875 -6.003906 5.652344 -6.152344 5.820312 -6.386719 C 5.886719 -6.269531 5.5 -5.917969 5.300781 -5.800781 Z M 2.691406 -5.800781 C 2.808594 -5.917969 2.960938 -6.1875 3.109375 -6.1875 C 2.960938 -6.070312 2.875 -5.886719 2.691406 -5.800781 Z M 4.882812 -6.003906 C 4.949219 -6.035156 4.949219 -6.152344 5.066406 -6.1875 C 5.066406 -6.070312 5 -6.003906 4.882812 -6.003906 Z M 5.820312 -5.917969 C 5.820312 -6.035156 6.003906 -6.035156 6.003906 -6.1875 C 6.167969 -6.152344 5.886719 -5.917969 5.820312 -5.917969 Z M 3.8125 -5.417969 C 3.8125 -5.683594 4.246094 -5.886719 4.398438 -6.152344 C 4.363281 -5.886719 3.929688 -5.683594 3.8125 -5.417969 Z M 3.863281 -5.332031 C 4.128906 -5.601562 4.363281 -5.917969 4.679688 -6.152344 C 4.398438 -5.886719 4.164062 -5.535156 3.863281 -5.332031 Z M 2.207031 -5.683594 C 2.257812 -5.886719 2.441406 -5.917969 2.523438 -6.121094 C 2.609375 -5.953125 2.289062 -5.800781 2.207031 -5.683594 Z M 3.042969 -5.71875 C 3.160156 -5.886719 3.277344 -6.003906 3.425781 -6.121094 C 3.34375 -5.953125 3.195312 -5.800781 3.042969 -5.71875 Z M 3.660156 -5.71875 C 3.746094 -5.886719 3.863281 -6.035156 4.011719 -6.121094 C 3.929688 -5.953125 3.777344 -5.835938 3.660156 -5.71875 Z M 1.972656 -5.683594 C 2.089844 -5.800781 2.171875 -6.003906 2.375 -6.070312 C 2.257812 -5.917969 2.171875 -5.71875 1.972656 -5.683594 Z M 5 -5.683594 C 5.117188 -5.769531 5.117188 -5.953125 5.300781 -5.953125 C 5.183594 -5.886719 5.148438 -5.71875 5 -5.683594 Z M 2.40625 -5.683594 C 2.375 -5.800781 2.523438 -5.769531 2.492188 -5.886719 C 2.523438 -5.886719 2.558594 -5.886719 2.609375 -5.886719 C 2.523438 -5.835938 2.523438 -5.683594 2.40625 -5.683594 Z M 5.535156 -5.601562 C 5.617188 -5.71875 5.652344 -5.835938 5.820312 -5.886719 C 5.734375 -5.769531 5.652344 -5.652344 5.535156 -5.601562 Z M 3.042969 -5.097656 C 3.226562 -5.300781 3.425781 -5.484375 3.578125 -5.71875 C 3.578125 -5.484375 3.277344 -5.214844 3.042969 -5.097656 Z M 6.351562 -5.683594 C 6.4375 -5.601562 6.554688 -5.535156 6.605469 -5.71875 C 6.605469 -5.484375 6.238281 -5.25 6.050781 -5.097656 C 6.167969 -5.25 6.238281 -5.417969 6.4375 -5.484375 C 6.46875 -5.652344 6.320312 -5.566406 6.351562 -5.683594 Z M 1.707031 -5.132812 C 1.789062 -5.367188 2.023438 -5.449219 2.140625 -5.683594 C 2.171875 -5.449219 1.824219 -5.300781 1.707031 -5.132812 Z M 2.375 -5.183594 C 2.375 -5.332031 2.640625 -5.566406 2.808594 -5.683594 C 2.691406 -5.484375 2.492188 -5.332031 2.375 -5.183594 Z M 2.207031 -4.867188 C 2.492188 -5.132812 2.691406 -5.484375 3.042969 -5.683594 C 2.757812 -5.417969 2.523438 -5.066406 2.207031 -4.867188 Z M 1.589844 -5.25 C 1.707031 -5.417969 1.789062 -5.566406 1.972656 -5.652344 C 1.90625 -5.449219 1.738281 -5.367188 1.589844 -5.25 Z M 4.597656 -5.25 C 4.714844 -5.367188 4.796875 -5.566406 5 -5.652344 C 4.882812 -5.484375 4.765625 -5.332031 4.597656 -5.25 Z M 4.914062 -5.367188 C 5 -5.484375 5.066406 -5.601562 5.234375 -5.652344 C 5.117188 -5.535156 5.066406 -5.417969 4.914062 -5.367188 Z M 5.734375 -4.984375 C 5.886719 -5.214844 6.121094 -5.367188 6.285156 -5.601562 C 6.238281 -5.367188 5.96875 -5.132812 5.734375 -4.984375 Z M 5.46875 -5.066406 C 5.585938 -5.300781 5.734375 -5.449219 5.933594 -5.566406 C 5.769531 -5.367188 5.652344 -5.214844 5.46875 -5.066406 Z M 5.46875 -4.867188 C 5.585938 -5.097656 5.820312 -5.25 5.96875 -5.484375 C 5.96875 -5.25 5.617188 -5.015625 5.46875 -4.867188 Z M 2.089844 -5.183594 C 2.207031 -5.25 2.257812 -5.417969 2.40625 -5.449219 C 2.289062 -5.367188 2.289062 -5.183594 2.089844 -5.183594 Z M 6.46875 -5.097656 C 6.519531 -5.25 6.671875 -5.25 6.722656 -5.417969 C 6.789062 -5.300781 6.554688 -5.183594 6.46875 -5.097656 Z M 4.714844 -5.132812 C 4.765625 -5.214844 4.765625 -5.332031 4.914062 -5.332031 C 4.832031 -5.25 4.832031 -5.132812 4.714844 -5.132812 Z M 2.140625 -5.066406 C 2.257812 -5.015625 2.207031 -5.132812 2.257812 -5.183594 C 2.375 -5.097656 2.171875 -5.015625 2.171875 -4.949219 C 2.140625 -4.949219 2.140625 -4.949219 2.140625 -4.984375 C 2.140625 -5.015625 2.140625 -5.015625 2.140625 -5.066406 Z M 6.46875 -4.898438 C 6.605469 -4.984375 6.605469 -5.183594 6.789062 -5.183594 C 6.722656 -5.066406 6.636719 -4.949219 6.46875 -4.898438 Z M 1.707031 -4.75 C 1.824219 -4.867188 1.941406 -5.015625 2.089844 -5.132812 C 1.972656 -4.984375 1.90625 -4.832031 1.707031 -4.75 Z M 6.285156 -4.898438 C 6.320312 -4.984375 6.402344 -5.132812 6.46875 -5.066406 C 6.4375 -4.984375 6.351562 -4.898438 6.285156 -4.898438 Z M 1.941406 -4.113281 C 2.171875 -4.429688 2.492188 -4.75 2.757812 -5.066406 C 2.640625 -4.75 2.257812 -4.398438 1.941406 -4.113281 Z M 2.757812 -4.78125 C 2.808594 -4.898438 2.925781 -4.984375 3.042969 -5.066406 C 2.960938 -4.949219 2.875 -4.832031 2.757812 -4.78125 Z M 5.652344 -4.664062 C 5.820312 -4.78125 5.851562 -5.015625 6.050781 -5.066406 C 5.886719 -4.949219 5.851562 -4.699219 5.652344 -4.664062 Z M 5.96875 -4.78125 C 5.96875 -4.949219 6.121094 -4.898438 6.167969 -5.066406 C 6.320312 -5.015625 6.050781 -4.78125 5.96875 -4.78125 Z M 1.355469 -4.699219 C 1.203125 -4.78125 1.472656 -4.949219 1.589844 -5.015625 C 1.554688 -4.867188 1.386719 -4.867188 1.355469 -4.699219 Z M 6.605469 -4.582031 C 6.722656 -4.75 6.839844 -4.867188 6.988281 -4.984375 C 6.871094 -4.832031 6.753906 -4.664062 6.605469 -4.582031 Z M 6.90625 -4.699219 C 6.90625 -4.832031 7.105469 -4.832031 7.105469 -4.984375 C 7.257812 -4.949219 6.988281 -4.699219 6.90625 -4.699219 Z M 6.402344 -4.582031 C 6.4375 -4.699219 6.554688 -4.78125 6.671875 -4.867188 C 6.605469 -4.75 6.519531 -4.632812 6.402344 -4.582031 Z M 1.707031 -4.546875 C 1.824219 -4.632812 1.855469 -4.78125 2.023438 -4.832031 C 1.90625 -4.75 1.824219 -4.464844 1.707031 -4.546875 Z M 2.140625 -4.546875 C 2.207031 -4.664062 2.289062 -4.75 2.40625 -4.832031 C 2.324219 -4.699219 2.257812 -4.582031 2.140625 -4.546875 Z M 1.941406 -4.632812 C 2.054688 -4.582031 2.023438 -4.699219 2.054688 -4.75 C 2.171875 -4.664062 1.972656 -4.582031 1.972656 -4.515625 C 1.941406 -4.515625 1.941406 -4.515625 1.941406 -4.546875 C 1.941406 -4.582031 1.941406 -4.582031 1.941406 -4.632812 Z M 2.324219 -4.347656 C 2.492188 -4.464844 2.523438 -4.664062 2.726562 -4.75 C 2.609375 -4.582031 2.523438 -4.429688 2.324219 -4.347656 Z M 2.757812 -4.347656 C 2.808594 -4.464844 2.960938 -4.515625 2.992188 -4.664062 C 3.078125 -4.546875 2.875 -4.398438 2.757812 -4.347656 Z M 5.703125 -3.84375 C 5.886719 -4.078125 6.121094 -4.347656 6.351562 -4.546875 C 6.203125 -4.3125 6.003906 -4.078125 5.769531 -3.929688 C 5.734375 -3.761719 5.886719 -3.84375 5.851562 -3.726562 C 5.734375 -3.726562 5.769531 -3.8125 5.703125 -3.84375 Z M 6.519531 -4.28125 C 6.554688 -4.398438 6.671875 -4.464844 6.789062 -4.546875 C 6.722656 -4.429688 6.636719 -4.3125 6.519531 -4.28125 Z M 1.503906 -4.3125 C 1.554688 -4.398438 1.621094 -4.464844 1.707031 -4.515625 C 1.738281 -4.398438 1.589844 -4.464844 1.621094 -4.3125 C 1.589844 -4.3125 1.554688 -4.3125 1.503906 -4.3125 Z M 1.355469 -3.695312 C 1.554688 -3.996094 1.824219 -4.28125 2.140625 -4.515625 C 1.855469 -4.230469 1.621094 -3.929688 1.355469 -3.695312 Z M 6.722656 -3.878906 C 6.957031 -4.046875 7.023438 -4.347656 7.339844 -4.464844 C 7.105469 -4.28125 7.023438 -3.996094 6.722656 -3.878906 Z M 6.402344 -3.960938 C 6.46875 -4.113281 6.636719 -4.230469 6.789062 -4.347656 C 6.671875 -4.195312 6.605469 -4.046875 6.402344 -3.960938 Z M 1.941406 -3.929688 C 2.054688 -4.046875 2.171875 -4.230469 2.324219 -4.3125 C 2.207031 -4.164062 2.140625 -3.960938 1.941406 -3.929688 Z M 2.257812 -4.046875 C 2.289062 -4.164062 2.40625 -4.230469 2.523438 -4.3125 C 2.492188 -4.195312 2.375 -4.078125 2.257812 -4.046875 Z M 2.640625 -4.046875 C 2.726562 -4.078125 2.726562 -4.195312 2.84375 -4.230469 C 2.808594 -4.113281 2.691406 -4.078125 2.84375 -3.996094 C 2.84375 -3.929688 2.757812 -3.84375 2.691406 -3.84375 C 2.691406 -3.929688 2.875 -4.046875 2.640625 -4.046875 Z M 6.839844 -3.761719 C 6.90625 -3.878906 6.988281 -3.996094 7.140625 -4.046875 C 7.023438 -3.929688 6.988281 -3.8125 6.839844 -3.761719 Z M 2.207031 -3.695312 C 2.140625 -3.8125 2.324219 -3.929688 2.441406 -3.996094 C 2.40625 -3.84375 2.257812 -3.84375 2.207031 -3.695312 Z M 2.375 -3.726562 C 2.375 -3.84375 2.558594 -3.84375 2.558594 -3.996094 C 2.726562 -3.960938 2.441406 -3.726562 2.375 -3.726562 Z M 7.105469 -3.34375 C 7.105469 -3.578125 7.457031 -3.8125 7.65625 -3.960938 C 7.457031 -3.726562 7.257812 -3.578125 7.105469 -3.34375 Z M 6.003906 -3.34375 C 6.121094 -3.527344 6.351562 -3.613281 6.4375 -3.84375 C 6.4375 -3.644531 6.167969 -3.460938 6.003906 -3.34375 Z M 6.519531 -3.644531 C 6.554688 -3.726562 6.636719 -3.8125 6.722656 -3.84375 C 6.722656 -3.726562 6.605469 -3.695312 6.519531 -3.644531 Z M 6.722656 -3.460938 C 6.871094 -3.578125 6.957031 -3.726562 7.105469 -3.84375 C 7.023438 -3.695312 6.90625 -3.496094 6.722656 -3.460938 Z M 6.519531 -3.027344 C 6.789062 -3.292969 6.988281 -3.613281 7.339844 -3.84375 C 7.074219 -3.578125 6.871094 -3.226562 6.519531 -3.027344 Z M 1.707031 -3.378906 C 1.621094 -3.460938 1.824219 -3.644531 1.941406 -3.695312 C 1.90625 -3.527344 1.738281 -3.527344 1.707031 -3.378906 Z M 1.386719 -3.460938 C 1.238281 -3.496094 1.4375 -3.613281 1.503906 -3.644531 C 1.503906 -3.527344 1.386719 -3.578125 1.386719 -3.460938 Z M 6.203125 -3.34375 C 6.285156 -3.460938 6.402344 -3.496094 6.4375 -3.644531 C 6.519531 -3.527344 6.320312 -3.378906 6.203125 -3.34375 Z M 1.671875 -3.175781 C 1.707031 -3.34375 1.855469 -3.34375 1.90625 -3.496094 C 1.972656 -3.378906 1.738281 -3.226562 1.671875 -3.175781 Z M 2.492188 -3.226562 C 2.492188 -3.378906 2.691406 -3.34375 2.691406 -3.496094 C 2.84375 -3.460938 2.558594 -3.261719 2.492188 -3.226562 Z M 7.257812 -3.144531 C 7.304688 -3.261719 7.421875 -3.378906 7.539062 -3.460938 C 7.492188 -3.292969 7.375 -3.226562 7.257812 -3.144531 Z M 6.46875 -3.109375 C 6.402344 -3.226562 6.605469 -3.34375 6.722656 -3.410156 C 6.671875 -3.261719 6.519531 -3.261719 6.46875 -3.109375 Z M 1.355469 -3.058594 C 1.386719 -3.226562 1.554688 -3.226562 1.589844 -3.378906 C 1.671875 -3.261719 1.472656 -3.109375 1.355469 -3.058594 Z M 1.855469 -2.992188 C 1.972656 -3.144531 2.089844 -3.261719 2.257812 -3.378906 C 2.171875 -3.226562 2.023438 -3.058594 1.855469 -2.992188 Z M 2.171875 -3.109375 C 2.257812 -3.226562 2.324219 -3.292969 2.441406 -3.378906 C 2.40625 -3.261719 2.289062 -3.144531 2.171875 -3.109375 Z M 2.691406 -3.027344 C 2.808594 -3.109375 2.84375 -3.261719 2.992188 -3.292969 C 2.875 -3.226562 2.84375 -3.027344 2.691406 -3.027344 Z M 5.769531 -2.992188 C 5.617188 -3.058594 5.886719 -3.226562 5.96875 -3.292969 C 5.96875 -3.144531 5.820312 -3.109375 5.769531 -2.992188 Z M 5.734375 -2.589844 C 5.933594 -2.875 6.121094 -3.109375 6.402344 -3.292969 C 6.203125 -3.027344 5.96875 -2.792969 5.734375 -2.589844 Z M 1.554688 -2.875 C 1.589844 -3.027344 1.738281 -3.027344 1.789062 -3.175781 C 1.941406 -3.109375 1.621094 -2.941406 1.554688 -2.875 Z M 1.90625 -2.558594 C 2.023438 -2.824219 2.257812 -2.941406 2.40625 -3.175781 C 2.375 -2.992188 2.054688 -2.707031 1.90625 -2.558594 Z M 2.289062 -2.792969 C 2.40625 -2.941406 2.492188 -3.109375 2.691406 -3.175781 C 2.523438 -3.058594 2.492188 -2.875 2.289062 -2.792969 Z M 1.355469 -2.875 C 1.386719 -2.992188 1.503906 -3.058594 1.621094 -3.144531 C 1.589844 -3.027344 1.472656 -2.910156 1.355469 -2.875 Z M 6.871094 -3.027344 C 6.988281 -2.992188 6.957031 -3.109375 6.988281 -3.144531 C 7.105469 -3.058594 6.90625 -2.992188 6.90625 -2.910156 C 6.871094 -2.910156 6.871094 -2.910156 6.871094 -2.941406 C 6.871094 -2.992188 6.871094 -2.992188 6.871094 -3.027344 Z M 1.824219 -2.625 C 1.789062 -2.792969 2.023438 -2.992188 2.171875 -3.058594 C 2.054688 -2.910156 1.941406 -2.792969 1.824219 -2.625 Z M 2.441406 -2.675781 C 2.375 -2.742188 2.558594 -2.941406 2.691406 -2.992188 C 2.640625 -2.824219 2.492188 -2.824219 2.441406 -2.675781 Z M 6.238281 -2.707031 C 6.285156 -2.824219 6.402344 -2.910156 6.519531 -2.992188 C 6.4375 -2.875 6.351562 -2.742188 6.238281 -2.707031 Z M 6.320312 -2.625 C 6.4375 -2.675781 6.46875 -2.875 6.636719 -2.910156 C 6.554688 -2.792969 6.4375 -2.589844 6.320312 -2.625 Z M 6.554688 -2.589844 C 6.605469 -2.742188 6.722656 -2.824219 6.839844 -2.910156 C 6.753906 -2.742188 6.671875 -2.675781 6.554688 -2.589844 Z M 6.554688 -2.207031 C 6.753906 -2.472656 7.023438 -2.625 7.1875 -2.910156 C 7.222656 -2.792969 6.789062 -2.359375 6.554688 -2.207031 Z M 7.339844 -2.507812 C 7.222656 -2.675781 7.539062 -2.742188 7.574219 -2.910156 C 7.722656 -2.824219 7.339844 -2.675781 7.339844 -2.507812 Z M 1.152344 -2.625 C 1.152344 -2.742188 1.238281 -2.792969 1.355469 -2.824219 C 1.269531 -2.742188 1.269531 -2.625 1.152344 -2.625 Z M 1.152344 -2.441406 C 1.203125 -2.558594 1.355469 -2.589844 1.386719 -2.742188 C 1.472656 -2.625 1.269531 -2.472656 1.152344 -2.441406 Z M 6.554688 -2.390625 C 6.605469 -2.558594 6.753906 -2.558594 6.789062 -2.707031 C 6.871094 -2.589844 6.636719 -2.472656 6.554688 -2.390625 Z M 2.289062 -1.972656 C 2.523438 -2.207031 2.726562 -2.472656 2.992188 -2.675781 C 2.925781 -2.441406 2.640625 -2.390625 2.609375 -2.15625 C 2.808594 -2.125 2.726562 -2.359375 2.925781 -2.359375 C 2.84375 -2.242188 2.726562 -2.207031 2.691406 -2.039062 C 2.609375 -2.039062 2.640625 -2.15625 2.558594 -2.15625 C 2.40625 -2.15625 2.492188 -1.921875 2.289062 -1.972656 Z M 1.589844 -2.242188 C 1.671875 -2.359375 1.738281 -2.472656 1.855469 -2.558594 C 1.824219 -2.390625 1.707031 -2.324219 1.589844 -2.242188 Z M 1.589844 -2.039062 C 1.707031 -2.242188 1.941406 -2.324219 2.023438 -2.558594 C 2.023438 -2.359375 1.738281 -2.15625 1.589844 -2.039062 Z M 2.40625 -2.273438 C 2.441406 -2.390625 2.558594 -2.472656 2.691406 -2.558594 C 2.640625 -2.441406 2.523438 -2.324219 2.40625 -2.273438 Z M 6.003906 -2.273438 C 6.050781 -2.390625 6.203125 -2.441406 6.238281 -2.558594 C 6.351562 -2.507812 6.121094 -2.273438 6.003906 -2.273438 Z M 7.492188 -2.125 C 7.574219 -2.207031 7.691406 -2.441406 7.808594 -2.390625 C 7.691406 -2.324219 7.65625 -2.15625 7.492188 -2.125 Z M 7.257812 -2.007812 C 7.222656 -2.125 7.457031 -2.324219 7.574219 -2.390625 C 7.492188 -2.207031 7.339844 -2.15625 7.257812 -2.007812 Z M 6.238281 -2.089844 C 6.320312 -2.207031 6.402344 -2.324219 6.554688 -2.359375 C 6.4375 -2.273438 6.402344 -2.125 6.238281 -2.089844 Z M 6.605469 -2.007812 C 6.671875 -2.125 6.722656 -2.242188 6.871094 -2.273438 C 6.789062 -2.15625 6.722656 -2.039062 6.605469 -2.007812 Z M 2.023438 -1.855469 C 2.089844 -2.007812 2.257812 -2.089844 2.324219 -2.242188 C 2.375 -2.089844 2.140625 -1.921875 2.023438 -1.855469 Z M 1.203125 -1.804688 C 1.269531 -1.972656 1.386719 -2.125 1.554688 -2.207031 C 1.472656 -2.039062 1.355469 -1.890625 1.203125 -1.804688 Z M 6.238281 -1.890625 C 6.351562 -1.972656 6.402344 -2.125 6.554688 -2.15625 C 6.46875 -2.039062 6.402344 -1.890625 6.238281 -1.890625 Z M 6.636719 -1.773438 C 6.554688 -1.890625 6.753906 -2.007812 6.871094 -2.089844 C 6.871094 -1.890625 6.671875 -1.921875 6.636719 -1.773438 Z M 6.722656 -1.6875 C 6.839844 -1.855469 6.90625 -1.972656 7.074219 -2.089844 C 6.988281 -1.890625 6.871094 -1.773438 6.722656 -1.6875 Z M 2.375 -1.738281 C 2.289062 -1.855469 2.492188 -1.972656 2.609375 -2.039062 C 2.558594 -1.890625 2.40625 -1.890625 2.375 -1.738281 Z M 2.324219 -1.539062 C 2.441406 -1.738281 2.609375 -1.890625 2.808594 -2.039062 C 2.691406 -1.855469 2.523438 -1.65625 2.324219 -1.539062 Z M 6.050781 -1.972656 C 6.167969 -1.921875 6.121094 -2.089844 6.238281 -2.039062 C 6.203125 -1.972656 6.121094 -1.890625 6.050781 -1.855469 C 6.050781 -1.890625 6.050781 -1.921875 6.050781 -1.972656 Z M 1.269531 -1.738281 C 1.386719 -1.804688 1.386719 -2.007812 1.589844 -2.007812 C 1.503906 -1.890625 1.4375 -1.738281 1.269531 -1.738281 Z M 1.707031 -1.738281 C 1.789062 -1.855469 1.855469 -1.921875 1.972656 -2.007812 C 1.941406 -1.890625 1.824219 -1.804688 1.707031 -1.738281 Z M 7.105469 -1.6875 C 7.140625 -1.804688 7.304688 -1.855469 7.339844 -2.007812 C 7.421875 -1.890625 7.222656 -1.738281 7.105469 -1.6875 Z M 6.167969 -1.539062 C 6.238281 -1.738281 6.402344 -1.855469 6.554688 -1.972656 C 6.4375 -1.804688 6.320312 -1.65625 6.167969 -1.539062 Z M 1.90625 -1.539062 C 2.023438 -1.621094 2.054688 -1.773438 2.207031 -1.804688 C 2.089844 -1.738281 2.089844 -1.539062 1.90625 -1.539062 Z M 2.691406 -1.421875 C 2.558594 -1.539062 2.875 -1.621094 2.875 -1.773438 C 2.992188 -1.621094 2.691406 -1.570312 2.691406 -1.421875 Z M 7.222656 -1.6875 C 7.304688 -1.65625 7.304688 -1.738281 7.304688 -1.773438 C 7.339844 -1.773438 7.375 -1.773438 7.421875 -1.773438 C 7.339844 -1.738281 7.339844 -1.570312 7.222656 -1.570312 C 7.222656 -1.621094 7.222656 -1.65625 7.222656 -1.6875 Z M 1.707031 -1.539062 C 1.738281 -1.621094 1.824219 -1.6875 1.90625 -1.738281 C 1.90625 -1.570312 1.789062 -1.570312 1.707031 -1.539062 Z M 1.824219 -1.21875 C 1.941406 -1.421875 2.140625 -1.539062 2.257812 -1.738281 C 2.324219 -1.570312 2.054688 -1.503906 2.023438 -1.335938 C 2.023438 -1.304688 2.054688 -1.304688 2.089844 -1.304688 C 2.171875 -1.386719 2.171875 -1.503906 2.324219 -1.503906 C 2.171875 -1.386719 2.140625 -1.1875 1.941406 -1.101562 C 1.90625 -1.21875 2.023438 -1.1875 2.023438 -1.269531 C 1.941406 -1.386719 1.941406 -1.1875 1.824219 -1.21875 Z M 6.285156 -1.269531 C 6.351562 -1.386719 6.402344 -1.539062 6.605469 -1.539062 C 6.605469 -1.421875 6.4375 -1.503906 6.46875 -1.386719 C 6.605469 -1.21875 6.636719 -1.570312 6.789062 -1.539062 C 6.671875 -1.386719 6.554688 -1.269531 6.402344 -1.152344 C 6.351562 -1.269531 6.46875 -1.21875 6.46875 -1.304688 C 6.402344 -1.421875 6.351562 -1.21875 6.285156 -1.269531 Z M 1.203125 -0.988281 C 1.355469 -1.152344 1.472656 -1.386719 1.707031 -1.503906 C 1.554688 -1.304688 1.4375 -1.101562 1.203125 -0.988281 Z M 6.722656 -1.070312 C 6.789062 -1.21875 6.957031 -1.335938 7.105469 -1.453125 C 6.988281 -1.304688 6.871094 -1.152344 6.722656 -1.070312 Z M 7.023438 -1.1875 C 7.074219 -1.304688 7.1875 -1.386719 7.304688 -1.453125 C 7.257812 -1.335938 7.140625 -1.21875 7.023438 -1.1875 Z M 2.140625 -0.71875 C 2.375 -0.953125 2.558594 -1.21875 2.84375 -1.421875 C 2.609375 -1.1875 2.40625 -0.917969 2.140625 -0.71875 Z M 2.609375 -0.917969 C 2.558594 -1.101562 2.875 -1.304688 3.042969 -1.421875 C 2.960938 -1.1875 2.691406 -1.152344 2.609375 -0.917969 Z M 2.808594 -0.917969 C 2.726562 -1.035156 2.960938 -1.152344 3.042969 -1.21875 C 2.992188 -1.070312 2.84375 -1.070312 2.808594 -0.917969 Z M 1.386719 -0.785156 C 1.554688 -0.917969 1.621094 -1.101562 1.824219 -1.1875 C 1.671875 -1.035156 1.621094 -0.835938 1.386719 -0.785156 Z M 7.339844 -0.871094 C 7.375 -1.035156 7.539062 -1.035156 7.574219 -1.1875 C 7.65625 -1.070312 7.457031 -0.917969 7.339844 -0.871094 Z M 1.671875 -0.550781 C 1.621094 -0.71875 2.023438 -1.035156 2.140625 -1.070312 C 1.972656 -0.871094 1.789062 -0.753906 1.671875 -0.550781 Z M 7.492188 -0.753906 C 7.421875 -0.871094 7.605469 -1.035156 7.722656 -1.070312 C 7.691406 -0.917969 7.539062 -0.917969 7.492188 -0.753906 Z M 6.402344 -0.753906 C 6.46875 -0.871094 6.554688 -0.988281 6.722656 -1.035156 C 6.605469 -0.917969 6.554688 -0.785156 6.402344 -0.753906 Z M 7.65625 -0.871094 C 7.773438 -0.835938 7.722656 -0.953125 7.773438 -0.988281 C 7.890625 -0.917969 7.691406 -0.835938 7.691406 -0.753906 C 7.65625 -0.753906 7.65625 -0.753906 7.65625 -0.785156 C 7.65625 -0.835938 7.65625 -0.835938 7.65625 -0.871094 Z M 7.023438 -0.753906 C 7.074219 -0.835938 7.105469 -0.917969 7.222656 -0.953125 C 7.1875 -0.835938 7.105469 -0.785156 7.023438 -0.753906 Z M 2.257812 -0.601562 C 2.289062 -0.753906 2.40625 -0.835938 2.523438 -0.917969 C 2.492188 -0.753906 2.375 -0.667969 2.257812 -0.601562 Z M 2.757812 -0.71875 C 2.757812 -0.835938 2.84375 -0.871094 2.960938 -0.917969 C 2.925781 -0.785156 2.84375 -0.753906 2.757812 -0.71875 Z M 2.925781 -0.601562 C 2.84375 -0.71875 3.042969 -0.835938 3.160156 -0.917969 C 3.109375 -0.753906 2.960938 -0.753906 2.925781 -0.601562 Z M 0.800781 -9.980469 C 1.152344 -10.417969 1.589844 -10.765625 1.941406 -11.234375 C 1.855469 -11.320312 1.738281 -11.050781 1.707031 -11.285156 C 1.386719 -10.882812 0.683594 -10.535156 0.800781 -9.980469 Z M 1.503906 -10.933594 C 1.320312 -10.648438 1.085938 -10.382812 0.800781 -10.183594 C 1.003906 -10.449219 1.269531 -10.699219 1.503906 -10.933594 Z M 1.589844 -10.933594 C 1.386719 -11 1.671875 -11.050781 1.671875 -11.167969 C 1.789062 -11.085938 1.589844 -11 1.589844 -10.933594 Z M 8.242188 -0.785156 C 8.277344 -0.667969 8.160156 -0.71875 8.160156 -0.636719 C 8.242188 -0.636719 8.308594 -0.636719 8.308594 -0.753906 C 8.277344 -0.785156 8.191406 -0.835938 8.160156 -0.871094 C 8.074219 -0.785156 8.042969 -0.71875 7.957031 -0.636719 C 8.125 -0.636719 8.125 -0.753906 8.242188 -0.785156 Z M 1.121094 -11.234375 C 0.96875 -11.167969 0.734375 -10.96875 0.769531 -10.816406 C 0.851562 -10.96875 1.035156 -11.050781 1.121094 -11.234375 Z M -0.167969 -2.125 C -0.285156 -2.207031 -0.519531 -1.855469 -0.285156 -1.921875 C -0.367188 -1.855469 -0.402344 -1.738281 -0.453125 -1.65625 C -0.285156 -1.738281 -0.21875 -1.890625 -0.101562 -2.007812 C -0.167969 -2.125 -0.21875 -1.855469 -0.285156 -2.007812 C -0.285156 -2.089844 -0.167969 -2.039062 -0.167969 -2.125 Z M -0.132812 -1.21875 C -0.25 -1.070312 -0.402344 -0.953125 -0.484375 -0.785156 C -0.335938 -0.71875 -0.367188 -0.917969 -0.25 -0.917969 C -0.285156 -0.785156 -0.519531 -0.667969 -0.453125 -0.550781 C -0.335938 -0.636719 -0.285156 -0.785156 -0.132812 -0.835938 C -0.167969 -0.636719 -0.519531 -0.519531 -0.453125 -0.367188 C -0.335938 -0.402344 -0.285156 -0.550781 -0.167969 -0.636719 C -0.167969 -0.601562 -0.167969 -0.601562 -0.132812 -0.601562 C -0.21875 -0.519531 -0.25 -0.433594 -0.335938 -0.367188 C 0.015625 -0.402344 -0.132812 -0.835938 -0.132812 -1.035156 C -0.0507812 -0.917969 -0.25 -0.917969 -0.25 -0.988281 C -0.21875 -1.035156 -0.015625 -1.152344 -0.132812 -1.21875 Z M -0.132812 -1.21875 "/></g></g></g><g fill="#000000" fill-opacity="1"><g transform="translate(83.350751, 25.025288)"><g><path d="M 2.792969 -14.042969 C 2.792969 -13.945312 2.84375 -13.945312 2.910156 -13.945312 C 2.941406 -14.042969 2.875 -14.042969 2.792969 -14.042969 Z M 2.941406 -12.691406 C 2.875 -12.625 2.875 -12.457031 2.976562 -12.421875 C 2.976562 -12.523438 3.078125 -12.65625 2.941406 -12.691406 Z M 9.746094 -11.519531 C 9.011719 -11.585938 7.976562 -11.652344 7.222656 -11.585938 C 6.804688 -11.71875 6.371094 -11.753906 5.886719 -11.652344 C 5.734375 -11.789062 5.351562 -11.789062 5.097656 -11.6875 C 4.128906 -11.804688 2.960938 -11.835938 1.941406 -11.789062 C 1.65625 -11.9375 1.121094 -11.804688 0.835938 -11.835938 C 0.800781 -11.835938 0.800781 -11.804688 0.800781 -11.789062 C 0.800781 -10.867188 1.003906 -9.597656 0.9375 -8.710938 C 0.902344 -8.125 1.21875 -7.574219 1.1875 -7.023438 C 1.1875 -6.605469 1.019531 -6.167969 1.019531 -5.785156 C 1.019531 -5.71875 1.085938 -5.71875 1.085938 -5.683594 C 1.085938 -5.652344 1.003906 -5.601562 1.003906 -5.566406 C 0.96875 -5.332031 1.019531 -5.082031 1.019531 -4.867188 C 1.019531 -4.046875 1.003906 -3.261719 0.96875 -2.726562 C 0.96875 -2.191406 0.96875 -1.738281 0.96875 -1.203125 C 0.96875 -0.667969 0.9375 -0.0664062 1.085938 -0.0351562 C 0.800781 0.183594 2.472656 0.152344 2.609375 0.152344 C 5.316406 0.285156 7.910156 0.367188 10.214844 0.535156 C 10.214844 0.25 10.183594 0 10.082031 -0.234375 C 10.082031 -0.484375 10.117188 -0.851562 9.929688 -1.054688 C 10.03125 -1.839844 9.648438 -2.757812 9.714844 -3.578125 C 9.898438 -3.578125 9.964844 -3.660156 10.03125 -3.726562 C 9.898438 -4.179688 10.117188 -4.898438 9.863281 -5.148438 C 9.929688 -5.148438 10 -5.148438 9.964844 -5.214844 C 9.929688 -5.566406 9.964844 -5.820312 9.964844 -6.035156 C 9.964844 -6.605469 9.929688 -7.273438 9.898438 -7.859375 C 9.898438 -8.027344 9.863281 -8.410156 9.796875 -8.375 C 9.898438 -9.3125 9.746094 -10.332031 9.746094 -11.519531 Z M 7.304688 -8.996094 C 7.304688 -8.976562 7.273438 -8.976562 7.273438 -8.996094 C 7.238281 -8.945312 7.40625 -8.777344 7.507812 -8.746094 C 7.757812 -8.242188 7.941406 -7.957031 7.941406 -7.289062 C 7.472656 -7.238281 7.15625 -7.355469 6.621094 -7.324219 C 6.421875 -7.992188 6.085938 -8.425781 5.382812 -8.628906 C 5.382812 -8.460938 5.234375 -8.628906 5.097656 -8.660156 C 5.132812 -8.527344 4.964844 -8.660156 4.914062 -8.660156 C 4.949219 -8.660156 4.664062 -8.492188 4.597656 -8.492188 C 4.53125 -8.492188 4.378906 -8.558594 4.28125 -8.460938 C 4.179688 -8.375 3.960938 -8.242188 3.84375 -8.09375 C 3.8125 -8.027344 3.863281 -7.925781 3.710938 -7.925781 C 3.710938 -7.839844 3.8125 -7.859375 3.777344 -7.742188 C 3.746094 -7.808594 3.710938 -7.707031 3.679688 -7.773438 C 3.496094 -7.421875 3.277344 -7.023438 3.359375 -6.503906 C 3.328125 -6.539062 3.328125 -6.503906 3.277344 -6.503906 C 3.292969 -6.035156 3.292969 -5.433594 3.527344 -4.933594 C 3.613281 -4.714844 3.894531 -4.296875 4.097656 -4.195312 C 4.144531 -4.179688 4.214844 -4.230469 4.246094 -4.195312 C 4.3125 -4.179688 4.246094 -4.078125 4.414062 -4.144531 C 4.429688 -4.113281 4.429688 -4.078125 4.429688 -4.046875 C 4.714844 -4.078125 5.066406 -3.863281 5.316406 -4.046875 C 5.484375 -3.980469 5.820312 -4.113281 5.800781 -4.230469 C 6.203125 -4.398438 6.421875 -5.03125 6.554688 -5.46875 C 6.9375 -5.332031 7.375 -5.433594 7.875 -5.332031 C 7.875 -5.082031 7.808594 -4.765625 7.65625 -4.546875 C 7.65625 -4.480469 7.757812 -4.515625 7.722656 -4.429688 C 7.625 -4.398438 7.507812 -4.179688 7.523438 -4.113281 C 7.472656 -4.046875 7.339844 -4.046875 7.40625 -3.914062 C 7.339844 -3.914062 7.339844 -3.894531 7.273438 -3.894531 C 7.238281 -3.476562 6.554688 -3.226562 6.421875 -3.042969 C 6.335938 -3.007812 6.371094 -3.078125 6.269531 -3.078125 C 6.167969 -3.042969 6.238281 -3.007812 6.238281 -2.941406 C 6.101562 -2.941406 5.886719 -2.910156 5.851562 -2.808594 C 5.703125 -2.910156 5.566406 -2.625 5.449219 -2.808594 C 5.03125 -2.625 4.699219 -2.808594 4.179688 -2.808594 C 4.179688 -2.84375 4.179688 -2.875 4.179688 -2.910156 C 3.960938 -2.808594 3.929688 -3.007812 3.746094 -2.941406 C 3.8125 -2.976562 3.8125 -3.078125 3.710938 -3.078125 C 3.679688 -3.078125 3.644531 -3.042969 3.644531 -3.007812 C 3.496094 -3.125 3.328125 -3.226562 3.175781 -3.378906 C 2.992188 -3.378906 2.441406 -3.945312 2.289062 -4.230469 C 2.074219 -4.648438 2.039062 -5.117188 1.855469 -5.601562 C 1.789062 -6.570312 1.972656 -7.421875 2.324219 -8.308594 C 2.507812 -8.460938 2.675781 -8.660156 2.757812 -8.910156 C 2.960938 -8.945312 3.042969 -9.0625 3.078125 -9.230469 C 3.175781 -9.164062 3.292969 -9.261719 3.277344 -9.378906 C 3.527344 -9.414062 3.8125 -9.597656 3.996094 -9.730469 C 4.144531 -9.664062 4.3125 -9.765625 4.429688 -9.832031 C 4.75 -9.847656 5.097656 -9.796875 5.316406 -9.914062 C 5.886719 -9.730469 6.386719 -9.597656 6.90625 -9.347656 C 6.988281 -9.164062 7.121094 -9.0625 7.304688 -8.996094 Z M 6.320312 -13.945312 C 6.421875 -13.910156 6.503906 -13.761719 6.570312 -13.910156 C 6.46875 -13.878906 6.285156 -14.042969 6.320312 -13.945312 Z M 6.320312 -13.945312 "/></g></g></g><g fill="#000000" fill-opacity="1"><g transform="translate(95.500626, 25.025288)"><g><path d="M 5.214844 -5.183594 C 5.285156 -5.984375 4.679688 -6.839844 3.828125 -6.703125 C 2.84375 -6.6875 2.492188 -6.019531 2.390625 -5.097656 C 3.160156 -5.117188 4.464844 -5.148438 5.214844 -5.183594 Z M 5.785156 -15.449219 C 5.851562 -15.316406 5.75 -14.847656 5.886719 -14.847656 C 5.851562 -14.949219 5.917969 -15.03125 5.851562 -15.164062 C 5.851562 -15.28125 5.953125 -15.414062 5.785156 -15.449219 Z M 5.851562 -14.597656 C 5.851562 -13.894531 5.953125 -13.324219 5.953125 -12.625 C 4.230469 -12.589844 2.808594 -12.488281 1.1875 -12.488281 C 0.835938 -8.996094 1.019531 -5 0.769531 -1.121094 C 2.390625 -1.121094 3.980469 -1.121094 5.566406 -1.121094 C 6.101562 -1.121094 6.621094 -1.054688 7.121094 -1.21875 C 6.621094 -5.601562 6.269531 -10.117188 5.851562 -14.597656 Z M 6.101562 -4.480469 C 4.75 -4.480469 3.5625 -4.398438 2.390625 -4.429688 C 2.425781 -3.914062 2.523438 -3.378906 2.925781 -2.992188 C 3.628906 -2.359375 4.832031 -2.574219 5.785156 -2.875 C 5.851562 -2.640625 5.886719 -2.359375 5.984375 -2.242188 C 5.75 -2.105469 5.75 -2.105469 5.5 -2.074219 C 4.363281 -1.605469 2.742188 -1.722656 1.972656 -2.707031 C 1.253906 -3.59375 1.253906 -5.285156 1.855469 -6.304688 C 2.574219 -7.539062 4.582031 -7.859375 5.535156 -6.839844 C 6.019531 -6.335938 6.136719 -5.601562 6.136719 -5 C 6.136719 -4.964844 6.304688 -4.648438 6.101562 -4.480469 Z M 6.101562 -4.480469 "/></g></g></g><g transform="matrix(1, 0, 0, 1, 111, 8)"><g clip-path="url(#b36b579293)"><g clip-path="url(#82dcf9a1fa)"><g fill="#ffffff" fill-opacity="1"><g transform="translate(0.54417, 16.59949)"><g><path d="M 11.359375 1.3125 L 11.203125 -2.859375 L 10.84375 -3.296875 L 11.203125 -4.265625 L 11.203125 -12.21875 L 10.328125 -12.28125 L 8.03125 -12.28125 L 7.359375 -12.0625 L 6.765625 -12.0625 L 5.9375 -12.375 L 0.140625 -12.28125 L 0.140625 -9.171875 L 0.453125 -8.71875 L 0.140625 -8.203125 L 0.140625 1.3125 L 3.5625 1.234375 Z M 1.75 -8.875 L 1.859375 -8.34375 L 1.984375 -8.0625 L 1.75 -7.890625 L 1.5 -8.140625 Z M 2.46875 -1.953125 L 2.515625 -3.71875 L 2.578125 -6.828125 L 2.796875 -9.046875 L 3.125 -9.90625 L 5.03125 -9.859375 L 7.078125 -10.125 L 8.609375 -10.0625 L 8.8125 -9.671875 L 8.9375 -8.65625 L 9.265625 -7.03125 L 9.0625 -4.5625 L 9.265625 -1.140625 L 7.734375 -1.34375 L 7.890625 -3.765625 L 7.078125 -3.828125 L 5.40625 -3.5 L 3.78125 -3.453125 L 3.984375 -2.578125 L 3.921875 -1.0625 L 2.390625 -1 Z M 5.890625 -4.953125 L 7.359375 -5.171875 L 7.671875 -7.53125 L 7.546875 -8.734375 L 6.484375 -9.203125 L 4.859375 -9.125 L 4.0625 -8.984375 L 4.09375 -8.046875 L 3.828125 -6.875 L 3.78125 -5.453125 L 3.78125 -5.015625 Z M 4.953125 -8.453125 L 5.015625 -7.46875 L 5.09375 -7.328125 L 5.40625 -7.03125 L 5.046875 -6.71875 L 4.6875 -7.265625 L 4.59375 -8.28125 Z M 10.34375 -3.796875 L 10.640625 -2.421875 L 10.765625 -1.53125 L 10.34375 -1.40625 L 10.328125 -1.96875 L 10.328125 -2.671875 L 10.15625 -3.75 Z M 10.34375 -3.796875 "/></g></g></g></g><g fill="#ffffff" fill-opacity="1"><g transform="translate(11.7525, 16.59949)"><g><path d="M 8.03125 1.3125 L 7.875 -2.859375 L 7.484375 -3.296875 L 7.875 -4.265625 L 7.875 -12.21875 L 6.96875 -12.28125 L 4.59375 -12.28125 L 3.921875 -12.0625 L 3.328125 -12.0625 L 2.515625 -12.375 L 0.140625 -12.28125 L 0.140625 -9.171875 L 0.453125 -8.71875 L 0.140625 -8.203125 L 0.140625 1.3125 L 3.5625 1.234375 Z M 0.765625 -2.421875 L 1.21875 -2.484375 L 1.15625 -2.015625 L 1.046875 -1.5 L 1.046875 -0.640625 L 0.8125 -0.625 L 0.734375 -1.734375 Z M 1.703125 -9.84375 L 3.484375 -9.953125 L 3.359375 -6.796875 L 3.421875 -4.859375 L 2.984375 -4.421875 L 2.90625 -3.265625 L 2.984375 -2.484375 L 3.421875 -2.34375 L 5.421875 -2.421875 L 7.125 -2.609375 L 7.28125 -1.15625 L 4.609375 -1.15625 L 1.84375 -1.03125 L 1.703125 -3 Z M 4.09375 -9.75 L 4.609375 -9.984375 L 4.421875 -9.515625 L 4.34375 -8.890625 L 3.953125 -9.203125 Z M 5.390625 -8.21875 L 5.65625 -9.25 L 5.78125 -10 L 6.078125 -10.1875 L 6.203125 -9.375 L 5.265625 -7.328125 L 4.859375 -7.421875 Z M 5.390625 -8.21875 "/></g></g></g><g fill="#ffffff" fill-opacity="1"><g transform="translate(19.779684, 16.59949)"><g><path d="M 8.03125 1.3125 L 7.875 -2.859375 L 7.484375 -3.296875 L 7.875 -4.265625 L 7.875 -12.21875 L 6.96875 -12.28125 L 4.59375 -12.28125 L 3.921875 -12.0625 L 3.328125 -12.0625 L 2.515625 -12.375 L 0.140625 -12.28125 L 0.140625 -9.171875 L 0.453125 -8.71875 L 0.140625 -8.203125 L 0.140625 1.3125 L 3.5625 1.234375 Z M 0.765625 -2.421875 L 1.21875 -2.484375 L 1.15625 -2.015625 L 1.046875 -1.5 L 1.046875 -0.640625 L 0.8125 -0.625 L 0.734375 -1.734375 Z M 1.703125 -9.84375 L 3.484375 -9.953125 L 3.359375 -6.796875 L 3.421875 -4.859375 L 2.984375 -4.421875 L 2.90625 -3.265625 L 2.984375 -2.484375 L 3.421875 -2.34375 L 5.421875 -2.421875 L 7.125 -2.609375 L 7.28125 -1.15625 L 4.609375 -1.15625 L 1.84375 -1.03125 L 1.703125 -3 Z M 4.09375 -9.75 L 4.609375 -9.984375 L 4.421875 -9.515625 L 4.34375 -8.890625 L 3.953125 -9.203125 Z M 5.390625 -8.21875 L 5.65625 -9.25 L 5.78125 -10 L 6.078125 -10.1875 L 6.203125 -9.375 L 5.265625 -7.328125 L 4.859375 -7.421875 Z M 5.390625 -8.21875 "/></g></g></g></g></g></svg>